<svg width="22" height="22" viewBox="0 0 22 22" fill="none" xmlns="http://www.w3.org/2000/svg">
<path d="M7.8705 16.5L11 19.6295L14.1295 16.5H17.4167C18.4278 16.5 19.25 15.6777 19.25 14.6667V3.66666C19.25 2.65558 18.4278 1.83333 17.4167 1.83333H4.58333C3.57225 1.83333 2.75 2.65558 2.75 3.66666V14.6667C2.75 15.6777 3.57225 16.5 4.58333 16.5H7.8705ZM4.58333 3.66666H17.4167V14.6667H13.3705L11 17.0372L8.6295 14.6667H4.58333V3.66666Z" fill="#678EFF"/>
<path d="M11.4392 6.61741L6.87695 11.1723V12.8214H8.52695L13.0874 8.2665L11.4392 6.61741ZM13.4733 4.58241L15.1233 6.23241L13.8675 7.48825L12.2175 5.83916L13.4733 4.58241Z" fill="#678EFF"/>
</svg>
