<svg width="226" height="226" viewBox="0 0 226 226" fill="none" xmlns="http://www.w3.org/2000/svg">
<path d="M226 172.845H0V172.958H226V172.845Z" fill="#DFE1E8"/>
<path d="M203.355 180.117H188.385V180.23H203.355V180.117Z" fill="#DFE1E8"/>
<path d="M149.712 181.347H145.784V181.46H149.712V181.347Z" fill="#DFE1E8"/>
<path d="M187.933 175.923H179.259V176.036H187.933V175.923Z" fill="#DFE1E8"/>
<path d="M43.2338 176.682H23.7119V176.795H43.2338V176.682Z" fill="#DFE1E8"/>
<path d="M50.1221 176.682H47.261V176.795H50.1221V176.682Z" fill="#DFE1E8"/>
<path d="M101.768 178.59H59.4243V178.703H101.768V178.59Z" fill="#DFE1E8"/>
<path d="M107.124 152.686H19.8474C19.1637 152.684 18.5084 152.412 18.0253 151.928C17.5423 151.444 17.271 150.788 17.271 150.105V27.4183C17.2769 26.7385 17.5509 26.0885 18.0333 25.6095C18.5157 25.1305 19.1676 24.8612 19.8474 24.86H107.124C107.809 24.86 108.465 25.1319 108.949 25.6159C109.433 26.1 109.705 26.7564 109.705 27.4409V150.105C109.705 150.789 109.433 151.446 108.949 151.93C108.465 152.414 107.809 152.686 107.124 152.686ZM19.8474 24.9504C19.1936 24.9516 18.5671 25.2121 18.1052 25.6748C17.6434 26.1375 17.384 26.7646 17.384 27.4183V150.105C17.384 150.758 17.6434 151.385 18.1052 151.848C18.5671 152.311 19.1936 152.571 19.8474 152.573H107.124C107.778 152.571 108.405 152.311 108.868 151.848C109.33 151.386 109.591 150.759 109.592 150.105V27.4183C109.591 26.7642 109.33 26.1371 108.868 25.6746C108.405 25.212 107.778 24.9516 107.124 24.9504H19.8474Z" fill="#DFE1E8"/>
<path d="M204.896 152.686H117.615C116.931 152.684 116.275 152.412 115.791 151.928C115.307 151.445 115.035 150.789 115.034 150.105V27.4183C115.041 26.7381 115.316 26.0881 115.799 25.6092C116.282 25.1303 116.935 24.8612 117.615 24.86H204.896C205.575 24.8624 206.226 25.1322 206.707 25.6111C207.189 26.09 207.462 26.7393 207.468 27.4183V150.105C207.468 150.788 207.197 151.443 206.715 151.926C206.233 152.41 205.579 152.683 204.896 152.686ZM117.615 24.9504C116.961 24.9516 116.334 25.212 115.871 25.6746C115.409 26.1371 115.148 26.7642 115.147 27.4183V150.105C115.148 150.759 115.409 151.386 115.871 151.848C116.334 152.311 116.961 152.571 117.615 152.573H204.896C205.55 152.571 206.177 152.311 206.64 151.848C207.102 151.386 207.363 150.759 207.364 150.105V27.4183C207.363 26.7642 207.102 26.1371 206.64 25.6746C206.177 25.212 205.55 24.9516 204.896 24.9504H117.615Z" fill="#DFE1E8"/>
<path d="M53.7608 143.912V150.331L51.0488 152.301H63.7048L59.6639 150.801V144.36L53.7608 143.912Z" fill="#DFE1E8"/>
<path d="M31.4004 152.116V172.334H87.9004V152.116H31.4004ZM86.8834 160.035H42.6597V153.427H86.8834V160.035Z" fill="#DFE1E8"/>
<path d="M41.2991 152.116V172.334H87.9003V152.116H41.2991ZM86.8833 160.035H42.6596V153.427H86.8833V160.035Z" fill="#DFE1E8"/>
<path d="M86.8834 153.427H77.7666V160.035H86.8834V153.427Z" fill="#DFE1E8"/>
<path d="M53.9373 156.731H42.6599V160.035H53.9373V156.731Z" fill="#DFE1E8"/>
<path d="M63.2574 158.069H54.7688V160.031H63.2574V158.069Z" fill="#DFE1E8"/>
<path d="M73.3053 156.021H65.219V160.035H73.3053V156.021Z" fill="#DFE1E8"/>
<path d="M50.6739 161.472L50.4343 162.263H47.189L46.9449 161.472H42.6599V170.246H56.8843V161.472H50.6739Z" fill="#DFE1E8"/>
<path d="M67.5784 161.472L67.3343 162.263H64.089L63.8449 161.472H57.6389V170.246H71.8634V161.472H67.5784Z" fill="#DFE1E8"/>
<path d="M80.6324 161.472L80.3928 162.263H77.1474L76.9034 161.472H72.6184V170.246H86.8428V161.472H80.6324Z" fill="#DFE1E8"/>
<path d="M79.638 120.422H37.6065C36.7253 120.422 36.011 121.136 36.011 122.017V146.15C36.011 147.031 36.7253 147.745 37.6065 147.745H79.638C80.5192 147.745 81.2336 147.031 81.2336 146.15V122.017C81.2336 121.136 80.5192 120.422 79.638 120.422Z" fill="#DFE1E8"/>
<path d="M80.7 120.422H38.6686C37.7874 120.422 37.073 121.136 37.073 122.017V146.15C37.073 147.031 37.7874 147.745 38.6686 147.745H80.7C81.5812 147.745 82.2956 147.031 82.2956 146.15V122.017C82.2956 121.136 81.5812 120.422 80.7 120.422Z" fill="#E6E6E6"/>
<path d="M80.9668 146.421V121.751H38.402V146.421H80.9668Z" fill="#F0F0F0"/>
<path d="M140.513 118.053H180.985C182.029 118.053 183.063 118.258 184.028 118.657C184.992 119.056 185.869 119.641 186.607 120.379C187.345 121.117 187.931 121.993 188.331 122.958C188.73 123.922 188.936 124.956 188.936 126V157.603H132.567V126C132.567 123.892 133.404 121.871 134.895 120.381C136.385 118.891 138.406 118.053 140.513 118.053Z" fill="#E6E6E6"/>
<path d="M120.603 141.476H127.835C129.087 141.476 130.289 141.974 131.174 142.859C132.06 143.745 132.558 144.947 132.558 146.199V172.334H115.879V146.199C115.879 144.947 116.377 143.745 117.263 142.859C118.148 141.974 119.35 141.476 120.603 141.476Z" fill="#DFE1E8"/>
<path d="M120.603 141.476H120.752C122.004 141.476 123.206 141.974 124.092 142.859C124.977 143.745 125.475 144.947 125.475 146.199V172.334H115.879V146.199C115.879 144.947 116.377 143.745 117.263 142.859C118.148 141.974 119.35 141.476 120.603 141.476Z" fill="#DFE1E8"/>
<path d="M183.038 160.329H127.496V172.334H183.038V160.329Z" fill="#E6E6E6"/>
<path d="M180.985 149.35H127.419C124.768 149.35 122.619 151.499 122.619 154.15V157.147C122.619 159.798 124.768 161.947 127.419 161.947H180.985C183.637 161.947 185.786 159.798 185.786 157.147V154.15C185.786 151.499 183.637 149.35 180.985 149.35Z" fill="#F5F5F5"/>
<path d="M180.899 149.35H174.25C171.599 149.35 169.45 151.499 169.45 154.15V157.147C169.45 159.798 171.599 161.947 174.25 161.947H180.899C183.55 161.947 185.7 159.798 185.7 157.147V154.15C185.7 151.499 183.55 149.35 180.899 149.35Z" fill="#DFE1E8"/>
<path d="M181.609 141.476H188.841C190.094 141.476 191.295 141.974 192.181 142.859C193.067 143.745 193.565 144.947 193.565 146.199V172.334H176.886V146.199C176.886 145.579 177.008 144.965 177.245 144.392C177.483 143.819 177.831 143.298 178.269 142.859C178.708 142.421 179.229 142.073 179.802 141.836C180.375 141.598 180.989 141.476 181.609 141.476Z" fill="#DFE1E8"/>
<path d="M181.609 141.476H181.763C183.016 141.476 184.217 141.974 185.103 142.859C185.989 143.745 186.486 144.947 186.486 146.199V172.334H176.886V146.199C176.886 145.579 177.008 144.965 177.245 144.392C177.483 143.819 177.831 143.298 178.269 142.859C178.708 142.421 179.229 142.073 179.802 141.836C180.375 141.598 180.989 141.476 181.609 141.476Z" fill="#F0F0F0"/>
<path d="M138.344 103.49H191.964V48.0838L138.344 48.0838V103.49Z" fill="#DFE1E8"/>
<path d="M136.468 103.49H190.089V48.0838L136.468 48.0838V103.49Z" fill="#F0F0F0"/>
<path d="M188.737 49.3946H137.887V102.202H188.737V49.3946Z" fill="#DFE1E8"/>
<path d="M188.737 49.3946H139.157V102.202H188.737V49.3946Z" fill="#F5F5F5"/>
<path d="M163.434 102.206H164.442V49.3991H163.434V102.206Z" fill="#DFE1E8"/>
<path d="M157.658 49.3946L143.528 102.202H142.172L156.302 49.3946H157.658Z" fill="white"/>
<path d="M163.005 103.214H163.868V48.581H163.005V103.214Z" fill="#F0F0F0"/>
<path d="M152.527 49.3946L139.157 99.3677V71.8996L145.178 49.3946H152.527Z" fill="white"/>
<path d="M188.737 54.1858V59.2572L177.243 102.202H175.887L188.737 54.1858Z" fill="white"/>
<path d="M188.737 64.4236V91.8916L185.98 102.202H178.63L188.737 64.4236Z" fill="white"/>
<path d="M44.1422 90.748H76.6094V51.2432L44.1422 51.2432L44.1422 90.748Z" fill="#E6E6E6"/>
<path d="M51.5732 80.9622L68.6317 64.193L50.1765 61.1466L51.5732 80.9622Z" fill="#DFE1E8"/>
<path d="M68.2203 76.9846L69.0655 64.1252L56.2197 67.2802L55.2886 77.1202L68.2203 76.9846Z" fill="#F0F0F0"/>
<path d="M55.0821 62.5595C57.1067 60.5349 57.1067 57.2523 55.0821 55.2276C53.0574 53.203 49.7748 53.203 47.7502 55.2276C45.7255 57.2523 45.7255 60.5349 47.7502 62.5595C49.7748 64.5842 53.0574 64.5842 55.0821 62.5595Z" fill="#FAFAFA"/>
<path d="M66.5435 81.5679C66.5435 81.0698 66.6912 80.5828 66.9681 80.1687C67.2449 79.7546 67.6384 79.4319 68.0987 79.2415C68.559 79.0511 69.0654 79.0015 69.5539 79.099C70.0424 79.1965 70.491 79.4367 70.8429 79.7893C71.1949 80.1418 71.4343 80.5909 71.5309 81.0795C71.6276 81.5682 71.5771 82.0746 71.3858 82.5345C71.1946 82.9945 70.8712 83.3874 70.4565 83.6635C70.0419 83.9396 69.5547 84.0865 69.0566 84.0856C68.7262 84.0856 68.399 84.0204 68.0938 83.8938C67.7886 83.7673 67.5114 83.5817 67.2779 83.3479C67.0445 83.114 66.8595 82.8365 66.7335 82.531C66.6074 82.2256 66.5429 81.8983 66.5435 81.5679Z" fill="#DFE1E8"/>
<path d="M68.4601 85.9885L61.2009 81.5679L67.3029 76.5417L68.4601 85.9885Z" fill="#F5F5F5"/>
<path d="M59.8853 56.265H58.457V87.81H59.8853V56.265Z" fill="#DFE1E8"/>
<path d="M73.563 56.265H71.7144V86.4133H73.563V56.265Z" fill="#DFE1E8"/>
<path d="M56.8389 77.1202H47.4011V86.558H56.8389V77.1202Z" fill="#DFE1E8"/>
<path d="M113 193.257C161.401 193.257 200.638 190.966 200.638 188.14C200.638 185.315 161.401 183.024 113 183.024C64.5986 183.024 25.3616 185.315 25.3616 188.14C25.3616 190.966 64.5986 193.257 113 193.257Z" fill="#C5E9F5"/>
<path d="M90.1108 106.672H184.29C184.543 106.672 184.794 106.722 185.028 106.819C185.262 106.916 185.475 107.058 185.654 107.237C185.833 107.417 185.976 107.629 186.073 107.863C186.17 108.098 186.22 108.349 186.22 108.602V176.732H88.1807V108.62C88.1784 108.365 88.2265 108.112 88.3224 107.876C88.4184 107.64 88.5602 107.425 88.7396 107.244C88.9191 107.063 89.1326 106.919 89.368 106.821C89.6033 106.722 89.8558 106.672 90.1108 106.672Z" fill="#263238"/>
<path d="M184.29 111.016H90.1108V171.209H184.29V111.016Z" fill="#678EFF"/>
<path opacity="0.2" d="M136.341 109.963C136.861 109.963 137.281 109.542 137.281 109.022C137.281 108.503 136.861 108.082 136.341 108.082C135.822 108.082 135.401 108.503 135.401 109.022C135.401 109.542 135.822 109.963 136.341 109.963Z" fill="white"/>
<path opacity="0.2" d="M138.289 109.728C138.679 109.728 138.994 109.412 138.994 109.022C138.994 108.633 138.679 108.317 138.289 108.317C137.9 108.317 137.584 108.633 137.584 109.022C137.584 109.412 137.9 109.728 138.289 109.728Z" fill="white"/>
<path opacity="0.2" d="M137.584 172.443C137.461 172.399 137.331 172.376 137.2 172.375C136.956 172.375 136.717 172.447 136.514 172.583C136.312 172.718 136.153 172.911 136.06 173.136C135.967 173.362 135.942 173.61 135.99 173.849C136.037 174.089 136.155 174.309 136.327 174.481C136.5 174.654 136.72 174.771 136.959 174.819C137.199 174.867 137.447 174.842 137.672 174.749C137.898 174.655 138.09 174.497 138.226 174.294C138.362 174.091 138.434 173.853 138.434 173.609C138.436 173.586 138.436 173.563 138.434 173.541C138.198 173.465 137.991 173.319 137.839 173.123C137.688 172.927 137.599 172.69 137.584 172.443Z" fill="white"/>
<path d="M193.528 175.774V176.678C193.527 176.958 193.436 177.23 193.268 177.455C193.101 177.679 192.865 177.844 192.597 177.925L185.772 179.923C184.924 180.176 184.044 180.304 183.16 180.303H91.2499C90.3667 180.303 89.4882 180.176 88.6418 179.923L81.8121 177.907C81.5431 177.827 81.307 177.662 81.1386 177.438C80.9702 177.213 80.8783 176.94 80.8765 176.66V175.756L193.528 175.774Z" fill="#263238"/>
<path opacity="0.2" d="M193.528 175.774V176.678C193.527 176.958 193.436 177.23 193.268 177.455C193.101 177.679 192.865 177.844 192.597 177.925L185.772 179.923C184.924 180.176 184.044 180.304 183.16 180.303H91.2499C90.3667 180.303 89.4882 180.176 88.6418 179.923L81.8121 177.907C81.5431 177.827 81.307 177.662 81.1386 177.438C80.9702 177.213 80.8783 176.94 80.8765 176.66V175.756L193.528 175.774Z" fill="white"/>
<path opacity="0.2" d="M193.528 175.774V176.678C193.528 176.912 193.464 177.142 193.343 177.342H81.0618C80.9408 177.142 80.8767 176.912 80.8765 176.678V175.774H193.528Z" fill="white"/>
<path opacity="0.2" d="M145.128 175.774V176.163C145.128 176.213 145.119 176.263 145.099 176.31C145.08 176.356 145.052 176.399 145.016 176.434C144.98 176.47 144.938 176.498 144.891 176.517C144.845 176.537 144.795 176.547 144.744 176.547H129.666C129.615 176.547 129.564 176.538 129.517 176.519C129.47 176.5 129.427 176.472 129.391 176.436C129.355 176.4 129.326 176.358 129.307 176.311C129.287 176.264 129.277 176.213 129.277 176.163V175.774H145.128Z" fill="black"/>
<path opacity="0.1" d="M184.29 111.016C184.29 111.016 171.267 162.72 90.1108 171.209V111.016H184.29Z" fill="white"/>
<path d="M175.376 87.4484V144.066L165.947 153.495H128.666C128.281 153.493 127.912 153.34 127.64 153.067C127.368 152.794 127.215 152.424 127.215 152.039V87.4484C127.215 87.0632 127.368 86.6937 127.64 86.4209C127.912 86.1481 128.281 85.9942 128.666 85.993H173.911C174.103 85.9918 174.294 86.0286 174.471 86.1012C174.649 86.1738 174.81 86.2808 174.946 86.4161C175.083 86.5514 175.191 86.7122 175.264 86.8894C175.338 87.0665 175.376 87.2565 175.376 87.4484Z" fill="#678EFF"/>
<path opacity="0.6" d="M175.376 89.9209V144.066L165.947 153.495H128.666C128.281 153.493 127.912 153.34 127.64 153.067C127.368 152.794 127.215 152.424 127.215 152.039V89.9209H175.376Z" fill="white"/>
<path opacity="0.6" d="M174.11 87.792C174.111 87.9316 174.071 88.0684 173.994 88.1849C173.917 88.3015 173.807 88.3926 173.678 88.4466C173.55 88.5007 173.408 88.5153 173.271 88.4886C173.133 88.4619 173.007 88.3951 172.908 88.2967C172.809 88.1982 172.742 88.0726 172.714 87.9357C172.687 87.7988 172.7 87.6568 172.753 87.5277C172.807 87.3986 172.897 87.2882 173.013 87.2105C173.129 87.1328 173.266 87.0913 173.405 87.0913C173.498 87.0908 173.589 87.1084 173.675 87.1434C173.76 87.1783 173.838 87.2298 173.904 87.2949C173.969 87.3601 174.021 87.4375 174.057 87.5228C174.092 87.6081 174.11 87.6996 174.11 87.792Z" fill="white"/>
<path opacity="0.6" d="M171.425 87.7919C171.425 87.9305 171.384 88.066 171.307 88.1812C171.23 88.2964 171.121 88.3862 170.993 88.4392C170.865 88.4923 170.724 88.5061 170.588 88.4791C170.452 88.4521 170.327 88.3853 170.229 88.2874C170.131 88.1894 170.065 88.0645 170.038 87.9286C170.011 87.7927 170.024 87.6519 170.077 87.5238C170.131 87.3958 170.22 87.2864 170.336 87.2094C170.451 87.1324 170.586 87.0913 170.725 87.0913C170.817 87.0907 170.908 87.1085 170.994 87.1435C171.079 87.1785 171.156 87.23 171.222 87.2952C171.287 87.3604 171.338 87.4379 171.373 87.5231C171.408 87.6084 171.426 87.6998 171.425 87.7919Z" fill="white"/>
<path opacity="0.6" d="M168.745 87.792C168.746 87.9318 168.705 88.0687 168.628 88.1854C168.551 88.302 168.441 88.3931 168.312 88.447C168.183 88.501 168.041 88.5153 167.904 88.4883C167.766 88.4612 167.64 88.3939 167.541 88.2951C167.443 88.1962 167.375 88.0701 167.348 87.9329C167.321 87.7957 167.336 87.6536 167.389 87.5245C167.443 87.3955 167.535 87.2854 167.651 87.2083C167.768 87.1312 167.905 87.0905 168.045 87.0913C168.23 87.0913 168.409 87.1652 168.54 87.2966C168.671 87.4279 168.745 87.6061 168.745 87.792Z" fill="white"/>
<path d="M156.482 94.2827H130.673C130.553 94.2827 130.438 94.2351 130.354 94.1503C130.269 94.0655 130.221 93.9506 130.221 93.8307C130.221 93.7108 130.269 93.5958 130.354 93.5111C130.438 93.4263 130.553 93.3787 130.673 93.3787H156.482C156.602 93.3787 156.717 93.4263 156.802 93.5111C156.887 93.5958 156.934 93.7108 156.934 93.8307C156.934 93.9506 156.887 94.0655 156.802 94.1503C156.717 94.2351 156.602 94.2827 156.482 94.2827Z" fill="#678EFF"/>
<path d="M149.187 96.7551H130.655C130.535 96.7551 130.42 96.7075 130.336 96.6227C130.251 96.538 130.203 96.423 130.203 96.3031C130.203 96.1832 130.251 96.0683 130.336 95.9835C130.42 95.8987 130.535 95.8511 130.655 95.8511H149.187C149.307 95.8511 149.422 95.8987 149.507 95.9835C149.592 96.0683 149.639 96.1832 149.639 96.3031C149.639 96.423 149.592 96.538 149.507 96.6227C149.422 96.7075 149.307 96.7551 149.187 96.7551Z" fill="#678EFF"/>
<path d="M169.197 134.931H136.201C136.081 134.931 135.966 134.883 135.882 134.799C135.797 134.714 135.749 134.599 135.749 134.479C135.749 134.359 135.797 134.244 135.882 134.159C135.966 134.075 136.081 134.027 136.201 134.027H169.197C169.317 134.027 169.432 134.075 169.517 134.159C169.602 134.244 169.649 134.359 169.649 134.479C169.649 134.599 169.602 134.714 169.517 134.799C169.432 134.883 169.317 134.931 169.197 134.931Z" fill="#678EFF"/>
<path d="M163.678 144.807H130.682C130.562 144.807 130.447 144.76 130.363 144.675C130.278 144.59 130.23 144.475 130.23 144.355C130.23 144.235 130.278 144.12 130.363 144.036C130.447 143.951 130.562 143.903 130.682 143.903H163.678C163.798 143.903 163.913 143.951 163.998 144.036C164.083 144.12 164.13 144.235 164.13 144.355C164.13 144.475 164.083 144.59 163.998 144.675C163.913 144.76 163.798 144.807 163.678 144.807Z" fill="#678EFF"/>
<path d="M169.197 137.408H130.673C130.553 137.408 130.438 137.36 130.354 137.276C130.269 137.191 130.221 137.076 130.221 136.956C130.221 136.836 130.269 136.721 130.354 136.636C130.438 136.552 130.553 136.504 130.673 136.504H169.197C169.317 136.504 169.432 136.552 169.517 136.636C169.602 136.721 169.649 136.836 169.649 136.956C169.649 137.076 169.602 137.191 169.517 137.276C169.432 137.36 169.317 137.408 169.197 137.408Z" fill="#678EFF"/>
<path d="M169.197 139.871H130.673C130.553 139.871 130.438 139.824 130.354 139.739C130.269 139.654 130.221 139.539 130.221 139.419C130.221 139.3 130.269 139.185 130.354 139.1C130.438 139.015 130.553 138.967 130.673 138.967H169.197C169.317 138.967 169.432 139.015 169.517 139.1C169.602 139.185 169.649 139.3 169.649 139.419C169.649 139.539 169.602 139.654 169.517 139.739C169.432 139.824 169.317 139.871 169.197 139.871Z" fill="#678EFF"/>
<path d="M169.197 142.339H130.673C130.553 142.339 130.438 142.292 130.354 142.207C130.269 142.122 130.221 142.007 130.221 141.887C130.221 141.767 130.269 141.652 130.354 141.568C130.438 141.483 130.553 141.435 130.673 141.435H169.197C169.317 141.435 169.432 141.483 169.517 141.568C169.602 141.652 169.649 141.767 169.649 141.887C169.649 142.007 169.602 142.122 169.517 142.207C169.432 142.292 169.317 142.339 169.197 142.339Z" fill="#678EFF"/>
<path opacity="0.5" d="M175.367 144.066L165.938 153.495V144.066H175.367Z" fill="#678EFF"/>
<path opacity="0.4" d="M175.367 89.9209H172.705V144.066H175.367V89.9209Z" fill="black"/>
<path d="M174.02 118.212C173.76 118.212 173.51 118.108 173.326 117.924C173.142 117.74 173.039 117.491 173.039 117.231V111.698C173.045 111.442 173.151 111.198 173.334 111.019C173.518 110.84 173.764 110.74 174.02 110.74C174.149 110.74 174.276 110.765 174.395 110.815C174.514 110.864 174.622 110.936 174.713 111.027C174.805 111.118 174.877 111.226 174.926 111.345C174.975 111.464 175.001 111.592 175.001 111.721V117.253C174.995 117.51 174.889 117.753 174.706 117.932C174.522 118.111 174.276 118.212 174.02 118.212Z" fill="#678EFF"/>
<path d="M169.197 121.371H136.201C136.081 121.371 135.966 121.323 135.882 121.239C135.797 121.154 135.749 121.039 135.749 120.919C135.749 120.799 135.797 120.684 135.882 120.599C135.966 120.515 136.081 120.467 136.201 120.467H169.197C169.317 120.467 169.432 120.515 169.517 120.599C169.602 120.684 169.649 120.799 169.649 120.919C169.649 121.039 169.602 121.154 169.517 121.239C169.432 121.323 169.317 121.371 169.197 121.371Z" fill="#678EFF"/>
<path d="M163.678 131.247H130.682C130.562 131.247 130.447 131.2 130.363 131.115C130.278 131.03 130.23 130.915 130.23 130.795C130.23 130.675 130.278 130.56 130.363 130.476C130.447 130.391 130.562 130.343 130.682 130.343H163.678C163.798 130.343 163.913 130.391 163.998 130.476C164.083 130.56 164.13 130.675 164.13 130.795C164.13 130.915 164.083 131.03 163.998 131.115C163.913 131.2 163.798 131.247 163.678 131.247Z" fill="#678EFF"/>
<path d="M169.197 123.848H130.673C130.553 123.848 130.438 123.8 130.354 123.716C130.269 123.631 130.221 123.516 130.221 123.396C130.221 123.276 130.269 123.161 130.354 123.076C130.438 122.992 130.553 122.944 130.673 122.944H169.197C169.317 122.944 169.432 122.992 169.517 123.076C169.602 123.161 169.649 123.276 169.649 123.396C169.649 123.516 169.602 123.631 169.517 123.716C169.432 123.8 169.317 123.848 169.197 123.848Z" fill="#678EFF"/>
<path d="M169.197 126.311H130.673C130.553 126.311 130.438 126.264 130.354 126.179C130.269 126.094 130.221 125.979 130.221 125.859C130.221 125.74 130.269 125.625 130.354 125.54C130.438 125.455 130.553 125.407 130.673 125.407H169.197C169.317 125.407 169.432 125.455 169.517 125.54C169.602 125.625 169.649 125.74 169.649 125.859C169.649 125.979 169.602 126.094 169.517 126.179C169.432 126.264 169.317 126.311 169.197 126.311Z" fill="#678EFF"/>
<path d="M169.197 128.779H130.673C130.553 128.779 130.438 128.732 130.354 128.647C130.269 128.562 130.221 128.447 130.221 128.327C130.221 128.207 130.269 128.092 130.354 128.008C130.438 127.923 130.553 127.875 130.673 127.875H169.197C169.317 127.875 169.432 127.923 169.517 128.008C169.602 128.092 169.649 128.207 169.649 128.327C169.649 128.447 169.602 128.562 169.517 128.647C169.432 128.732 169.317 128.779 169.197 128.779Z" fill="#678EFF"/>
<path d="M169.192 99.6977H130.555V114.116H169.192V99.6977Z" fill="#678EFF"/>
<path opacity="0.2" d="M130.555 111.802H131.609V109.181H132.82V104.005H134.51V107.192H136.834V111.427H139.604V108.475H141.896L143.41 106.957V103.445H144.337V108.475H146.669V110.265H149.083V101.135L149.752 100.466V102.97H151.293V104.096L152.771 105.578V108.249H154.896V106.134H160.437V104.557H161.689V101.799H162.137V106.134H162.842L164.437 104.539H165.938V103.097H166.697V104.557H167.678V110.532H168.745V107.549L169.197 107.576V99.6977H130.555V111.802Z" fill="black"/>
<path d="M169.197 116.399H158.801C158.681 116.399 158.566 116.351 158.482 116.267C158.397 116.182 158.349 116.067 158.349 115.947C158.349 115.827 158.397 115.712 158.482 115.627C158.566 115.543 158.681 115.495 158.801 115.495H169.197C169.317 115.495 169.432 115.543 169.517 115.627C169.602 115.712 169.649 115.827 169.649 115.947C169.649 116.067 169.602 116.182 169.517 116.267C169.432 116.351 169.317 116.399 169.197 116.399Z" fill="#678EFF"/>
<path opacity="0.2" d="M145.86 85.993V132.784L138.764 139.899H127.215V87.4666C127.215 87.0813 127.368 86.7118 127.64 86.439C127.912 86.1662 128.281 86.0123 128.666 86.0111L145.86 85.993Z" fill="black"/>
<path opacity="0.4" d="M174.02 118.212C173.76 118.212 173.51 118.108 173.326 117.924C173.142 117.74 173.039 117.491 173.039 117.231V111.698C173.045 111.442 173.151 111.198 173.334 111.019C173.518 110.84 173.764 110.74 174.02 110.74C174.149 110.74 174.276 110.765 174.395 110.815C174.514 110.864 174.622 110.936 174.713 111.027C174.805 111.118 174.877 111.226 174.926 111.345C174.975 111.464 175.001 111.592 175.001 111.721V117.253C174.995 117.51 174.889 117.753 174.706 117.932C174.522 118.111 174.276 118.212 174.02 118.212Z" fill="white"/>
<path d="M118.307 94.5042V151.122L108.878 160.55H71.6059C71.2207 160.549 70.8517 160.395 70.5797 160.123C70.3077 159.85 70.155 159.48 70.155 159.095V94.5042C70.155 94.1189 70.3077 93.7494 70.5797 93.4766C70.8517 93.2038 71.2207 93.0499 71.6059 93.0487H116.851C117.237 93.0487 117.607 93.2021 117.88 93.475C118.153 93.748 118.307 94.1182 118.307 94.5042Z" fill="#678EFF"/>
<path opacity="0.6" d="M118.307 96.9811V151.126L108.878 160.555H71.6059C71.2207 160.554 70.8517 160.4 70.5797 160.127C70.3077 159.854 70.155 159.485 70.155 159.099V96.9811H118.307Z" fill="white"/>
<path opacity="0.6" d="M117.068 94.8522C117.069 94.9918 117.028 95.1286 116.952 95.2452C116.875 95.3617 116.765 95.4528 116.636 95.5069C116.507 95.5609 116.365 95.5755 116.228 95.5488C116.091 95.5221 115.965 95.4553 115.866 95.3569C115.767 95.2585 115.699 95.1329 115.672 94.996C115.644 94.8591 115.658 94.717 115.711 94.5879C115.764 94.4588 115.855 94.3484 115.971 94.2708C116.087 94.1931 116.223 94.1516 116.363 94.1516C116.455 94.151 116.547 94.1687 116.633 94.2036C116.718 94.2386 116.796 94.2901 116.861 94.3552C116.927 94.4203 116.979 94.4977 117.014 94.583C117.05 94.6683 117.068 94.7598 117.068 94.8522Z" fill="white"/>
<path opacity="0.6" d="M114.356 94.8522C114.357 94.992 114.316 95.129 114.239 95.2456C114.162 95.3623 114.052 95.4534 113.923 95.5073C113.794 95.5612 113.652 95.5756 113.515 95.5485C113.378 95.5214 113.251 95.4542 113.153 95.3553C113.054 95.2564 112.986 95.1304 112.959 94.9932C112.932 94.856 112.947 94.7138 113.001 94.5848C113.055 94.4558 113.146 94.3457 113.262 94.2685C113.379 94.1914 113.516 94.1507 113.656 94.1516C113.748 94.151 113.839 94.1687 113.924 94.2037C114.01 94.2387 114.087 94.2903 114.152 94.3555C114.218 94.4206 114.269 94.4981 114.304 94.5834C114.339 94.6687 114.357 94.76 114.356 94.8522Z" fill="white"/>
<path opacity="0.6" d="M111.685 94.8522C111.686 94.9918 111.645 95.1286 111.568 95.2452C111.491 95.3617 111.381 95.4528 111.252 95.5069C111.124 95.5609 110.982 95.5755 110.845 95.5488C110.708 95.5221 110.582 95.4553 110.483 95.3569C110.383 95.2585 110.316 95.1329 110.288 94.996C110.261 94.8591 110.274 94.717 110.328 94.5879C110.381 94.4588 110.471 94.3484 110.587 94.2708C110.703 94.1931 110.84 94.1516 110.98 94.1516C111.072 94.151 111.163 94.1687 111.249 94.2036C111.335 94.2386 111.412 94.2901 111.478 94.3552C111.543 94.4203 111.595 94.4977 111.631 94.583C111.666 94.6683 111.685 94.7598 111.685 94.8522Z" fill="white"/>
<path d="M81.6314 101.587H73.6129C73.493 101.587 73.378 101.539 73.2933 101.455C73.2085 101.37 73.1609 101.255 73.1609 101.135C73.1609 101.015 73.2085 100.9 73.2933 100.815C73.378 100.731 73.493 100.683 73.6129 100.683H81.6314C81.7513 100.683 81.8662 100.731 81.951 100.815C82.0358 100.9 82.0834 101.015 82.0834 101.135C82.0834 101.255 82.0358 101.37 81.951 101.455C81.8662 101.539 81.7513 101.587 81.6314 101.587Z" fill="#678EFF"/>
<path d="M85.4282 104.055H73.631C73.5111 104.055 73.3961 104.007 73.3113 103.923C73.2266 103.838 73.179 103.723 73.179 103.603C73.179 103.483 73.2266 103.368 73.3113 103.283C73.3961 103.199 73.5111 103.151 73.631 103.151H85.4282C85.548 103.151 85.663 103.199 85.7478 103.283C85.8325 103.368 85.8801 103.483 85.8801 103.603C85.8801 103.723 85.8325 103.838 85.7478 103.923C85.663 104.007 85.548 104.055 85.4282 104.055Z" fill="#678EFF"/>
<path d="M81.7623 106.523H73.6263C73.5064 106.523 73.3915 106.475 73.3067 106.39C73.2219 106.306 73.1743 106.191 73.1743 106.071C73.1743 105.951 73.2219 105.836 73.3067 105.751C73.3915 105.666 73.5064 105.619 73.6263 105.619H81.7623C81.8822 105.619 81.9971 105.666 82.0819 105.751C82.1667 105.836 82.2143 105.951 82.2143 106.071C82.2143 106.191 82.1667 106.306 82.0819 106.39C81.9971 106.475 81.8822 106.523 81.7623 106.523Z" fill="#678EFF"/>
<path d="M112.132 146.963H79.1361C79.0162 146.963 78.9012 146.916 78.8165 146.831C78.7317 146.746 78.6841 146.631 78.6841 146.511C78.6841 146.391 78.7317 146.276 78.8165 146.192C78.9012 146.107 79.0162 146.059 79.1361 146.059H112.132C112.252 146.059 112.367 146.107 112.452 146.192C112.536 146.276 112.584 146.391 112.584 146.511C112.584 146.631 112.536 146.746 112.452 146.831C112.367 146.916 112.252 146.963 112.132 146.963Z" fill="#678EFF"/>
<path d="M94.0523 149.431H73.6129C73.493 149.431 73.378 149.384 73.2933 149.299C73.2085 149.214 73.1609 149.099 73.1609 148.979C73.1609 148.859 73.2085 148.744 73.2933 148.66C73.378 148.575 73.493 148.527 73.6129 148.527H94.0523C94.1722 148.527 94.2872 148.575 94.3719 148.66C94.4567 148.744 94.5043 148.859 94.5043 148.979C94.5043 149.099 94.4567 149.214 94.3719 149.299C94.2872 149.384 94.1722 149.431 94.0523 149.431Z" fill="#678EFF"/>
<path opacity="0.5" d="M118.307 151.126L108.878 160.555V151.126H118.307Z" fill="#678EFF"/>
<path opacity="0.4" d="M118.307 96.9811H115.644V151.126H118.307V96.9811Z" fill="black"/>
<path d="M116.973 147.42C116.713 147.42 116.463 147.316 116.279 147.133C116.096 146.949 115.992 146.699 115.992 146.439V140.906C115.992 140.646 116.096 140.397 116.279 140.213C116.463 140.029 116.713 139.926 116.973 139.926C117.102 139.926 117.229 139.951 117.348 140C117.467 140.05 117.576 140.122 117.667 140.213C117.758 140.304 117.83 140.412 117.879 140.531C117.929 140.65 117.954 140.778 117.954 140.906V146.448C117.951 146.707 117.847 146.954 117.663 147.136C117.48 147.318 117.232 147.42 116.973 147.42Z" fill="#678EFF"/>
<path d="M112.132 101.587H105.926C105.806 101.587 105.691 101.539 105.607 101.455C105.522 101.37 105.474 101.255 105.474 101.135C105.474 101.015 105.522 100.9 105.607 100.815C105.691 100.731 105.806 100.683 105.926 100.683H112.132C112.252 100.683 112.367 100.731 112.452 100.815C112.536 100.9 112.584 101.015 112.584 101.135C112.584 101.255 112.536 101.37 112.452 101.455C112.367 101.539 112.252 101.587 112.132 101.587Z" fill="#678EFF"/>
<path d="M112.132 104.055H108.932C108.812 104.055 108.697 104.007 108.612 103.923C108.528 103.838 108.48 103.723 108.48 103.603C108.48 103.483 108.528 103.368 108.612 103.283C108.697 103.199 108.812 103.151 108.932 103.151H112.141C112.261 103.151 112.376 103.199 112.461 103.283C112.546 103.368 112.593 103.483 112.593 103.603C112.593 103.723 112.546 103.838 112.461 103.923C112.376 104.007 112.261 104.055 112.141 104.055H112.132Z" fill="#678EFF"/>
<path d="M112.132 113.063H79.1361C79.0162 113.063 78.9012 113.016 78.8165 112.931C78.7317 112.846 78.6841 112.731 78.6841 112.611C78.6841 112.491 78.7317 112.376 78.8165 112.292C78.9012 112.207 79.0162 112.159 79.1361 112.159H112.132C112.252 112.159 112.367 112.207 112.452 112.292C112.536 112.376 112.584 112.491 112.584 112.611C112.584 112.731 112.536 112.846 112.452 112.931C112.367 113.016 112.252 113.063 112.132 113.063Z" fill="#678EFF"/>
<path d="M112.132 115.531H73.6129C73.493 115.531 73.378 115.484 73.2933 115.399C73.2085 115.314 73.1609 115.199 73.1609 115.079C73.1609 114.959 73.2085 114.844 73.2933 114.76C73.378 114.675 73.493 114.627 73.6129 114.627H112.132C112.252 114.627 112.367 114.675 112.452 114.76C112.537 114.844 112.584 114.959 112.584 115.079C112.584 115.199 112.537 115.314 112.452 115.399C112.367 115.484 112.252 115.531 112.132 115.531Z" fill="#678EFF"/>
<path d="M89.5323 117.999H73.6129C73.493 117.999 73.378 117.952 73.2933 117.867C73.2085 117.782 73.1609 117.667 73.1609 117.547C73.1609 117.427 73.2085 117.312 73.2933 117.228C73.378 117.143 73.493 117.095 73.6129 117.095H89.5323C89.6522 117.095 89.7672 117.143 89.8519 117.228C89.9367 117.312 89.9843 117.427 89.9843 117.547C89.9843 117.667 89.9367 117.782 89.8519 117.867C89.7672 117.952 89.6522 117.999 89.5323 117.999Z" fill="#678EFF"/>
<path opacity="0.7" d="M95.1823 121.276H80.0042V125.344H95.1823V121.276Z" fill="#678EFF"/>
<path opacity="0.3" d="M86.8791 126.248H80.0042V141.268H86.8791V126.248Z" fill="#678EFF"/>
<path opacity="0.3" d="M103.978 126.248H96.0818V141.268H103.978V126.248Z" fill="#678EFF"/>
<path opacity="0.7" d="M112.132 121.276H96.0818V125.344H112.132V121.276Z" fill="#678EFF"/>
<path opacity="0.3" d="M112.137 126.248H104.887V141.268H112.137V126.248Z" fill="#678EFF"/>
<path opacity="0.5" d="M79.1001 126.248H73.6128V141.268H79.1001V126.248Z" fill="#678EFF"/>
<path d="M79.1001 121.276H73.6128V125.344H79.1001V121.276Z" fill="#678EFF"/>
<path opacity="0.3" d="M95.1777 126.248H87.783V141.268H95.1777V126.248Z" fill="#678EFF"/>
<path opacity="0.4" d="M116.973 147.42C116.713 147.42 116.463 147.316 116.279 147.133C116.096 146.949 115.992 146.699 115.992 146.439V140.906C115.992 140.646 116.096 140.397 116.279 140.213C116.463 140.029 116.713 139.926 116.973 139.926C117.102 139.926 117.229 139.951 117.348 140C117.467 140.05 117.576 140.122 117.667 140.213C117.758 140.304 117.83 140.412 117.879 140.531C117.929 140.65 117.954 140.778 117.954 140.906V146.448C117.951 146.707 117.847 146.954 117.663 147.136C117.48 147.318 117.232 147.42 116.973 147.42Z" fill="white"/>
<path opacity="0.2" d="M118.307 94.5042V141.603H91.0373C90.6521 141.601 90.2831 141.447 90.0111 141.175C89.7391 140.902 89.5864 140.532 89.5864 140.147V93.0487H116.851C117.237 93.0487 117.607 93.2021 117.88 93.475C118.153 93.748 118.307 94.1182 118.307 94.5042Z" fill="black"/>
<path d="M142.249 68.8396V125.457L132.82 134.886H95.5483C95.1631 134.885 94.7941 134.731 94.5221 134.458C94.2501 134.185 94.0974 133.816 94.0974 133.43V68.8396C94.0974 68.4544 94.2501 68.0849 94.5221 67.812C94.7941 67.5392 95.1631 67.3854 95.5483 67.3842H140.794C141.18 67.3842 141.55 67.5375 141.823 67.8104C142.096 68.0834 142.249 68.4536 142.249 68.8396Z" fill="#678EFF"/>
<path opacity="0.6" d="M142.249 71.312V125.457L132.82 134.886H95.5483C95.1631 134.885 94.7941 134.731 94.5221 134.458C94.2501 134.185 94.0974 133.816 94.0974 133.43V71.312H142.249Z" fill="white"/>
<path opacity="0.6" d="M140.287 69.8837C140.674 69.8837 140.988 69.57 140.988 69.1831C140.988 68.7962 140.674 68.4825 140.287 68.4825C139.901 68.4825 139.587 68.7962 139.587 69.1831C139.587 69.57 139.901 69.8837 140.287 69.8837Z" fill="white"/>
<path opacity="0.6" d="M137.602 69.8837C137.989 69.8837 138.303 69.57 138.303 69.1831C138.303 68.7962 137.989 68.4825 137.602 68.4825C137.216 68.4825 136.902 68.7962 136.902 69.1831C136.902 69.57 137.216 69.8837 137.602 69.8837Z" fill="white"/>
<path opacity="0.6" d="M135.622 69.1831C135.623 69.323 135.583 69.4599 135.505 69.5765C135.428 69.6932 135.318 69.7843 135.189 69.8382C135.06 69.8921 134.918 69.9065 134.781 69.8794C134.644 69.8523 134.518 69.7851 134.419 69.6862C134.32 69.5873 134.253 69.4613 134.225 69.3241C134.198 69.1869 134.213 69.0447 134.267 68.9157C134.321 68.7867 134.412 68.6766 134.528 68.5995C134.645 68.5223 134.782 68.4816 134.922 68.4825C135.014 68.4819 135.105 68.4996 135.191 68.5346C135.276 68.5696 135.353 68.6212 135.419 68.6864C135.484 68.7516 135.535 68.829 135.57 68.9143C135.605 68.9996 135.623 69.0909 135.622 69.1831Z" fill="white"/>
<path d="M121.416 75.936H112.209C112.089 75.936 111.974 75.8884 111.889 75.8036C111.805 75.7188 111.757 75.6039 111.757 75.484C111.757 75.3641 111.805 75.2491 111.889 75.1644C111.974 75.0796 112.089 75.032 112.209 75.032H121.416C121.536 75.032 121.651 75.0796 121.736 75.1644C121.821 75.2491 121.868 75.3641 121.868 75.484C121.868 75.6039 121.821 75.7188 121.736 75.8036C121.651 75.8884 121.536 75.936 121.416 75.936Z" fill="#678EFF"/>
<path d="M125.204 78.3858H108.435C108.315 78.3858 108.2 78.3382 108.115 78.2534C108.031 78.1687 107.983 78.0537 107.983 77.9338C107.983 77.814 108.031 77.699 108.115 77.6142C108.2 77.5294 108.315 77.4818 108.435 77.4818H125.204C125.324 77.4818 125.439 77.5294 125.524 77.6142C125.608 77.699 125.656 77.814 125.656 77.9338C125.656 78.0537 125.608 78.1687 125.524 78.2534C125.439 78.3382 125.324 78.3858 125.204 78.3858Z" fill="#678EFF"/>
<path d="M121.552 80.8583H112.096C111.976 80.8583 111.861 80.8107 111.776 80.7259C111.692 80.6411 111.644 80.5262 111.644 80.4063C111.644 80.2864 111.692 80.1714 111.776 80.0867C111.861 80.0019 111.976 79.9543 112.096 79.9543H121.588C121.708 79.9543 121.823 80.0019 121.908 80.0867C121.992 80.1714 122.04 80.2864 122.04 80.4063C122.04 80.5262 121.992 80.6411 121.908 80.7259C121.823 80.8107 121.708 80.8583 121.588 80.8583H121.552Z" fill="#678EFF"/>
<path d="M136.075 87.3942H103.056C102.936 87.3942 102.821 87.3466 102.736 87.2618C102.652 87.177 102.604 87.0621 102.604 86.9422C102.604 86.8223 102.652 86.7073 102.736 86.6226C102.821 86.5378 102.936 86.4902 103.056 86.4902H136.052C136.172 86.4902 136.287 86.5378 136.372 86.6226C136.456 86.7073 136.504 86.8223 136.504 86.9422C136.504 87.0621 136.456 87.177 136.372 87.2618C136.287 87.3466 136.172 87.3942 136.052 87.3942H136.075Z" fill="#678EFF"/>
<path d="M130.556 97.2704H97.5599C97.44 97.2704 97.3251 97.2228 97.2403 97.138C97.1555 97.0532 97.1079 96.9383 97.1079 96.8184C97.1079 96.6985 97.1555 96.5835 97.2403 96.4988C97.3251 96.414 97.44 96.3664 97.5599 96.3664H130.556C130.676 96.3664 130.791 96.414 130.876 96.4988C130.96 96.5835 131.008 96.6985 131.008 96.8184C131.008 96.9383 130.96 97.0532 130.876 97.138C130.791 97.2228 130.676 97.2704 130.556 97.2704Z" fill="#678EFF"/>
<path d="M136.075 89.8621H97.5509C97.431 89.8621 97.316 89.8145 97.2313 89.7297C97.1465 89.645 97.0989 89.53 97.0989 89.4101C97.0989 89.2902 97.1465 89.1753 97.2313 89.0905C97.316 89.0057 97.431 88.9581 97.5509 88.9581H136.075C136.195 88.9581 136.31 89.0057 136.394 89.0905C136.479 89.1753 136.527 89.2902 136.527 89.4101C136.527 89.53 136.479 89.645 136.394 89.7297C136.31 89.8145 136.195 89.8621 136.075 89.8621Z" fill="#678EFF"/>
<path d="M136.075 92.3346H97.5509C97.431 92.3346 97.316 92.2869 97.2313 92.2022C97.1465 92.1174 97.0989 92.0024 97.0989 91.8826C97.0989 91.7627 97.1465 91.6477 97.2313 91.5629C97.316 91.4782 97.431 91.4305 97.5509 91.4305H136.075C136.195 91.4305 136.31 91.4782 136.394 91.5629C136.479 91.6477 136.527 91.7627 136.527 91.8826C136.527 92.0024 136.479 92.1174 136.394 92.2022C136.31 92.2869 136.195 92.3346 136.075 92.3346Z" fill="#678EFF"/>
<path d="M136.075 94.8025H97.5509C97.431 94.8025 97.316 94.7549 97.2313 94.6701C97.1465 94.5853 97.0989 94.4704 97.0989 94.3505C97.0989 94.2306 97.1465 94.1156 97.2313 94.0309C97.316 93.9461 97.431 93.8985 97.5509 93.8985H136.075C136.195 93.8985 136.31 93.9461 136.394 94.0309C136.479 94.1156 136.527 94.2306 136.527 94.3505C136.527 94.4704 136.479 94.5853 136.394 94.6701C136.31 94.7549 136.195 94.8025 136.075 94.8025Z" fill="#678EFF"/>
<path d="M136.075 112.254H103.056C102.936 112.254 102.821 112.207 102.736 112.122C102.652 112.037 102.604 111.922 102.604 111.802C102.604 111.682 102.652 111.567 102.736 111.483C102.821 111.398 102.936 111.35 103.056 111.35H136.052C136.172 111.35 136.287 111.398 136.372 111.483C136.456 111.567 136.504 111.682 136.504 111.802C136.504 111.922 136.456 112.037 136.372 112.122C136.287 112.207 136.172 112.254 136.052 112.254H136.075Z" fill="#678EFF"/>
<path d="M130.556 122.13H97.5599C97.44 122.13 97.3251 122.083 97.2403 121.998C97.1555 121.913 97.1079 121.798 97.1079 121.678C97.1079 121.559 97.1555 121.444 97.2403 121.359C97.3251 121.274 97.44 121.226 97.5599 121.226H130.556C130.676 121.226 130.791 121.274 130.876 121.359C130.96 121.444 131.008 121.559 131.008 121.678C131.008 121.798 130.96 121.913 130.876 121.998C130.791 122.083 130.676 122.13 130.556 122.13Z" fill="#678EFF"/>
<path d="M136.075 114.722H97.5509C97.431 114.722 97.316 114.675 97.2313 114.59C97.1465 114.505 97.0989 114.39 97.0989 114.27C97.0989 114.15 97.1465 114.035 97.2313 113.951C97.316 113.866 97.431 113.818 97.5509 113.818H136.075C136.195 113.818 136.31 113.866 136.394 113.951C136.479 114.035 136.527 114.15 136.527 114.27C136.527 114.39 136.479 114.505 136.394 114.59C136.31 114.675 136.195 114.722 136.075 114.722Z" fill="#678EFF"/>
<path d="M136.075 117.195H97.5509C97.431 117.195 97.316 117.147 97.2313 117.062C97.1465 116.977 97.0989 116.862 97.0989 116.743C97.0989 116.623 97.1465 116.508 97.2313 116.423C97.316 116.338 97.431 116.291 97.5509 116.291H136.075C136.195 116.291 136.31 116.338 136.394 116.423C136.479 116.508 136.527 116.623 136.527 116.743C136.527 116.862 136.479 116.977 136.394 117.062C136.31 117.147 136.195 117.195 136.075 117.195Z" fill="#678EFF"/>
<path d="M136.075 119.662H97.5509C97.431 119.662 97.316 119.615 97.2313 119.53C97.1465 119.445 97.0989 119.33 97.0989 119.21C97.0989 119.091 97.1465 118.976 97.2313 118.891C97.316 118.806 97.431 118.758 97.5509 118.758H136.075C136.195 118.758 136.31 118.806 136.394 118.891C136.479 118.976 136.527 119.091 136.527 119.21C136.527 119.33 136.479 119.445 136.394 119.53C136.31 119.615 136.195 119.662 136.075 119.662Z" fill="#678EFF"/>
<path d="M136.075 74.9235H131.451V81.0798H136.075V74.9235Z" fill="#678EFF"/>
<path d="M100.118 80.0492C101.534 80.0492 102.681 78.9018 102.681 77.4863C102.681 76.0709 101.534 74.9235 100.118 74.9235C98.7028 74.9235 97.5554 76.0709 97.5554 77.4863C97.5554 78.9018 98.7028 80.0492 100.118 80.0492Z" fill="#678EFF"/>
<path d="M97.4061 100.502C97.4184 100.637 97.4807 100.762 97.5806 100.853C97.6805 100.945 97.8109 100.995 97.9462 100.995C98.0815 100.995 98.2119 100.945 98.3118 100.853C98.4118 100.762 98.474 100.637 98.4864 100.502C98.4932 100.427 98.4844 100.351 98.4604 100.28C98.4363 100.208 98.3977 100.143 98.3469 100.087C98.296 100.031 98.2342 99.9869 98.1652 99.9565C98.0962 99.926 98.0216 99.9103 97.9462 99.9103C97.8708 99.9103 97.7962 99.926 97.7273 99.9565C97.6583 99.9869 97.5964 100.031 97.5456 100.087C97.4947 100.143 97.4561 100.208 97.4321 100.28C97.408 100.351 97.3992 100.427 97.4061 100.502Z" fill="#678EFF"/>
<path d="M97.406 102.97C97.4051 103.078 97.4363 103.183 97.4955 103.273C97.5548 103.363 97.6395 103.433 97.7388 103.475C97.8381 103.516 97.9475 103.528 98.0531 103.507C98.1588 103.486 98.2558 103.434 98.332 103.358C98.4081 103.282 98.4598 103.185 98.4806 103.079C98.5014 102.974 98.4903 102.864 98.4487 102.765C98.407 102.666 98.3368 102.581 98.2469 102.522C98.1571 102.462 98.0516 102.431 97.9439 102.432C97.8013 102.432 97.6644 102.489 97.5636 102.59C97.4627 102.691 97.406 102.827 97.406 102.97Z" fill="#678EFF"/>
<path d="M97.4061 105.443C97.4184 105.577 97.4807 105.703 97.5806 105.794C97.6805 105.885 97.8109 105.935 97.9462 105.935C98.0815 105.935 98.2119 105.885 98.3118 105.794C98.4118 105.703 98.474 105.577 98.4864 105.443C98.4932 105.367 98.4844 105.292 98.4604 105.22C98.4363 105.149 98.3977 105.083 98.3469 105.027C98.296 104.972 98.2342 104.927 98.1652 104.897C98.0962 104.866 98.0216 104.851 97.9462 104.851C97.8708 104.851 97.7962 104.866 97.7273 104.897C97.6583 104.927 97.5964 104.972 97.5456 105.027C97.4947 105.083 97.4561 105.149 97.4321 105.22C97.408 105.292 97.3992 105.367 97.4061 105.443Z" fill="#678EFF"/>
<path d="M97.4061 107.91C97.4184 108.045 97.4807 108.17 97.5806 108.262C97.6805 108.353 97.8109 108.403 97.9462 108.403C98.0815 108.403 98.2119 108.353 98.3118 108.262C98.4118 108.17 98.474 108.045 98.4864 107.91C98.4932 107.835 98.4844 107.76 98.4604 107.688C98.4363 107.617 98.3977 107.551 98.3469 107.495C98.296 107.44 98.2342 107.395 98.1652 107.365C98.0962 107.334 98.0216 107.319 97.9462 107.319C97.8708 107.319 97.7962 107.334 97.7273 107.365C97.6583 107.395 97.5964 107.44 97.5456 107.495C97.4947 107.551 97.4561 107.617 97.4321 107.688C97.408 107.76 97.3992 107.835 97.4061 107.91Z" fill="#678EFF"/>
<path d="M105.696 100.954H99.8199C99.7 100.954 99.5851 100.907 99.5003 100.822C99.4155 100.737 99.3679 100.622 99.3679 100.502C99.3679 100.382 99.4155 100.267 99.5003 100.183C99.5851 100.098 99.7 100.05 99.8199 100.05H105.696C105.816 100.05 105.931 100.098 106.016 100.183C106.1 100.267 106.148 100.382 106.148 100.502C106.148 100.622 106.1 100.737 106.016 100.822C105.931 100.907 105.816 100.954 105.696 100.954Z" fill="#678EFF"/>
<path d="M111.215 103.422H99.8109C99.691 103.422 99.576 103.374 99.4913 103.29C99.4065 103.205 99.3589 103.09 99.3589 102.97C99.3589 102.85 99.4065 102.735 99.4913 102.651C99.576 102.566 99.691 102.518 99.8109 102.518H111.215C111.335 102.518 111.45 102.566 111.534 102.651C111.619 102.735 111.667 102.85 111.667 102.97C111.667 103.09 111.619 103.205 111.534 103.29C111.45 103.374 111.335 103.422 111.215 103.422Z" fill="#678EFF"/>
<path d="M104.435 105.895H99.8109C99.691 105.895 99.576 105.847 99.4913 105.762C99.4065 105.677 99.3589 105.562 99.3589 105.443C99.3589 105.323 99.4065 105.208 99.4913 105.123C99.576 105.038 99.691 104.991 99.8109 104.991H104.435C104.555 104.991 104.67 105.038 104.754 105.123C104.839 105.208 104.887 105.323 104.887 105.443C104.887 105.562 104.839 105.677 104.754 105.762C104.67 105.847 104.555 105.895 104.435 105.895Z" fill="#678EFF"/>
<path d="M109.407 108.362H99.8109C99.691 108.362 99.576 108.315 99.4913 108.23C99.4065 108.145 99.3589 108.03 99.3589 107.91C99.3589 107.791 99.4065 107.676 99.4913 107.591C99.576 107.506 99.691 107.458 99.8109 107.458H109.407C109.527 107.458 109.642 107.506 109.726 107.591C109.811 107.676 109.859 107.791 109.859 107.91C109.859 108.03 109.811 108.145 109.726 108.23C109.642 108.315 109.527 108.362 109.407 108.362Z" fill="#678EFF"/>
<path opacity="0.5" d="M142.249 125.457L132.82 134.886V125.457H142.249Z" fill="#678EFF"/>
<path opacity="0.2" d="M136.075 74.9235L131.451 81.0798H136.075V74.9235Z" fill="black"/>
<path opacity="0.2" d="M101.614 75.9902H98.6174V78.987H101.614V75.9902Z" fill="black"/>
<path opacity="0.4" d="M142.244 71.312H139.582V125.457H142.244V71.312Z" fill="black"/>
<path d="M140.916 81.5227C140.656 81.5227 140.406 81.4194 140.222 81.2354C140.038 81.0515 139.935 80.802 139.935 80.5419V75.032C139.935 74.7719 140.038 74.5224 140.222 74.3384C140.406 74.1545 140.656 74.0511 140.916 74.0511C141.176 74.0511 141.425 74.1545 141.609 74.3384C141.793 74.5224 141.896 74.7719 141.896 75.032V80.5645C141.891 80.8207 141.785 81.0644 141.601 81.2435C141.418 81.4225 141.172 81.5228 140.916 81.5227Z" fill="#678EFF"/>
<path opacity="0.4" d="M140.916 81.5227C140.656 81.5227 140.406 81.4194 140.222 81.2354C140.038 81.0515 139.935 80.802 139.935 80.5419V75.032C139.935 74.7719 140.038 74.5224 140.222 74.3384C140.406 74.1545 140.656 74.0511 140.916 74.0511C141.176 74.0511 141.425 74.1545 141.609 74.3384C141.793 74.5224 141.896 74.7719 141.896 75.032V80.5645C141.891 80.8207 141.785 81.0644 141.601 81.2435C141.418 81.4225 141.172 81.5228 140.916 81.5227Z" fill="white"/>
<path d="M37.8911 94.4364H53.675C54.282 94.4376 54.8637 94.6795 55.2925 95.1092C55.7213 95.5388 55.9621 96.121 55.9621 96.728V112.069C55.9621 112.675 55.7211 113.257 55.2922 113.686C54.8633 114.115 54.2816 114.356 53.675 114.356H47.2656L47.9572 118.98L44.7932 114.356H37.8911C37.5906 114.357 37.2929 114.298 37.0152 114.183C36.7374 114.068 36.4851 113.9 36.2726 113.687C36.0601 113.475 35.8916 113.223 35.7769 112.945C35.6622 112.667 35.6034 112.369 35.604 112.069V96.728C35.6034 96.4273 35.6621 96.1294 35.7768 95.8514C35.8915 95.5734 36.0599 95.3207 36.2723 95.1078C36.4847 94.895 36.7371 94.7261 37.0148 94.6109C37.2926 94.4957 37.5904 94.4364 37.8911 94.4364Z" fill="#678EFF"/>
<path opacity="0.6" d="M37.8911 94.4364H53.675C54.282 94.4376 54.8637 94.6795 55.2925 95.1092C55.7213 95.5388 55.9621 96.121 55.9621 96.728V112.069C55.9621 112.675 55.7211 113.257 55.2922 113.686C54.8633 114.115 54.2816 114.356 53.675 114.356H47.2656L47.9572 118.98L44.7932 114.356H37.8911C37.5906 114.357 37.2929 114.298 37.0152 114.183C36.7374 114.068 36.4851 113.9 36.2726 113.687C36.0601 113.475 35.8916 113.223 35.7769 112.945C35.6622 112.667 35.6034 112.369 35.604 112.069V96.728C35.6034 96.4273 35.6621 96.1294 35.7768 95.8514C35.8915 95.5734 36.0599 95.3207 36.2723 95.1078C36.4847 94.895 36.7371 94.7261 37.0148 94.6109C37.2926 94.4957 37.5904 94.4364 37.8911 94.4364Z" fill="white"/>
<path d="M44.4812 101.207V102.432L45.114 102.491C45.191 102.893 45.3444 103.277 45.566 103.621L45.1637 104.109L46.027 104.972L46.5197 104.57C46.8646 104.791 47.248 104.944 47.6497 105.022L47.7085 105.65H48.9289L48.9922 105.022C49.3934 104.942 49.7764 104.789 50.1222 104.57L50.6103 104.972L51.4736 104.109L51.0714 103.621C51.291 103.276 51.4443 102.892 51.5234 102.491L52.1516 102.432V101.207L51.5234 101.149C51.4443 100.747 51.291 100.364 51.0714 100.019L51.4736 99.5304L50.6239 98.6626L50.1357 99.0694C49.79 98.8506 49.4069 98.6974 49.0057 98.6174L48.9424 97.9846H47.722L47.6633 98.6174C47.2615 98.6956 46.8782 98.849 46.5333 99.0694L46.0406 98.6626L45.1999 99.5304L45.6022 100.019C45.3806 100.363 45.2272 100.746 45.1502 101.149L44.4812 101.207ZM48.3322 100.163C48.6607 100.162 48.9821 100.259 49.2555 100.441C49.529 100.623 49.7423 100.882 49.8685 101.185C49.9946 101.488 50.0278 101.822 49.9639 102.145C49.9001 102.467 49.742 102.763 49.5097 102.995C49.2775 103.227 48.9815 103.385 48.6593 103.449C48.3371 103.513 48.0032 103.48 47.6999 103.354C47.3966 103.228 47.1375 103.014 46.9556 102.741C46.7737 102.467 46.677 102.146 46.6779 101.818C46.6791 101.379 46.8538 100.959 47.1638 100.649C47.4738 100.339 47.8939 100.164 48.3322 100.163Z" fill="#F5F5F5"/>
<path d="M45.2722 110.134C45.5936 110.069 45.9002 109.945 46.1762 109.768L46.5604 110.085L47.2384 109.407L46.922 109.022C47.099 108.746 47.2232 108.44 47.2881 108.118L47.7808 108.073V107.124L47.2881 107.079C47.225 106.757 47.1007 106.45 46.922 106.175L47.2384 105.791L46.5604 105.113L46.1762 105.429C45.9022 105.248 45.5949 105.124 45.2722 105.063L45.227 104.566H44.2688L44.2191 105.063C43.8964 105.124 43.5891 105.248 43.3151 105.429L42.9354 105.113L42.2574 105.791L42.5738 106.175C42.3917 106.449 42.2658 106.756 42.2031 107.079L41.7104 107.124V108.082L42.2031 108.127C42.2676 108.45 42.3934 108.757 42.5738 109.031L42.2574 109.416L42.9354 110.094L43.3151 109.777C43.5911 109.954 43.8976 110.078 44.2191 110.143L44.2688 110.636H45.227L45.2722 110.134ZM43.4642 107.612C43.4678 107.355 43.5477 107.104 43.6937 106.892C43.8397 106.68 44.0453 106.516 44.2845 106.421C44.5237 106.326 44.7858 106.304 45.0375 106.357C45.2893 106.411 45.5195 106.538 45.699 106.723C45.8785 106.907 45.9993 107.141 46.046 107.394C46.0927 107.647 46.0633 107.909 45.9615 108.145C45.8597 108.382 45.6901 108.583 45.474 108.723C45.258 108.863 45.0053 108.936 44.7479 108.932C44.5752 108.933 44.4042 108.899 44.2448 108.832C44.0854 108.766 43.9408 108.669 43.8196 108.546C43.6983 108.423 43.6029 108.277 43.5387 108.117C43.4746 107.956 43.4431 107.785 43.4461 107.612H43.4642Z" fill="#F5F5F5"/>
<path d="M42.7771 104.728L43.0438 105.049L43.7082 104.597L43.5048 104.231C43.6982 104.039 43.8518 103.81 43.9568 103.558L44.3727 103.598L44.5218 102.807L44.1195 102.69C44.1144 102.42 44.0592 102.153 43.9568 101.903L44.2777 101.637L43.8257 100.972L43.4596 101.171C43.2672 100.977 43.0383 100.824 42.7861 100.719L42.8268 100.303L42.0358 100.163L41.9183 100.561C41.6478 100.565 41.3807 100.622 41.1318 100.728L40.8651 100.407L40.2007 100.859L40.3996 101.225C40.2078 101.419 40.0545 101.648 39.9476 101.899L39.5317 101.863L39.3826 102.654L39.7803 102.767C39.7853 103.039 39.842 103.307 39.9476 103.558L39.6266 103.824L40.0786 104.489L40.4448 104.285C40.639 104.477 40.8674 104.63 41.1183 104.737L41.0821 105.153L41.8731 105.302L41.9861 104.9C42.258 104.892 42.5261 104.833 42.7771 104.728ZM40.8742 102.527C40.9275 102.243 41.0915 101.992 41.3302 101.829C41.5688 101.665 41.8624 101.604 42.1466 101.657C42.4307 101.71 42.6819 101.874 42.8451 102.113C43.0083 102.352 43.07 102.645 43.0167 102.929C42.9902 103.07 42.9364 103.204 42.8581 103.324C42.7799 103.444 42.6788 103.547 42.5607 103.628C42.4425 103.709 42.3096 103.766 42.1695 103.795C42.0294 103.824 41.8849 103.826 41.7443 103.8C41.6036 103.773 41.4695 103.719 41.3496 103.641C41.2298 103.563 41.1265 103.462 41.0457 103.344C40.9649 103.225 40.9082 103.092 40.8787 102.952C40.8493 102.812 40.8478 102.668 40.8742 102.527Z" fill="#F5F5F5"/>
<path d="M63.8946 150.57C63.8946 150.57 65.0065 160.578 65.3681 161.771C65.7297 162.964 70.8237 169.337 70.8237 169.337L69.3818 170.092C69.3818 170.092 63.9578 164.514 63.0945 162.86C62.2312 161.206 60.9385 152.573 60.9385 152.573L63.8946 150.57Z" fill="#EBB376"/>
<path d="M62.8775 146.114C64.7533 147.108 65.368 160.998 65.368 160.998L66.3172 162.458L63.4335 164.528C62.7393 163.383 62.1348 162.186 61.6255 160.948C61.0514 159.402 59.6909 151.773 59.6909 151.773L62.8775 146.114Z" fill="#263238"/>
<path opacity="0.1" d="M62.8775 146.114C64.7533 147.108 65.368 160.998 65.368 160.998L66.3172 162.458L63.4335 164.528C62.7393 163.383 62.1348 162.186 61.6255 160.948C61.0514 159.402 59.6909 151.773 59.6909 151.773L62.8775 146.114Z" fill="white"/>
<path d="M63.0085 164.514L66.3172 161.893L67.0268 163.38L63.9758 165.554L63.0085 164.514Z" fill="#678EFF"/>
<path opacity="0.4" d="M63.0085 164.514L66.3172 161.893L67.0268 163.38L63.9758 165.554L63.0085 164.514Z" fill="white"/>
<path d="M55.4828 164.022L58.8637 169.369C65.5669 167.81 87.0505 164.533 89.6856 171.905C92.9672 181.062 69.2688 188.366 56.1563 188.814C43.0437 189.261 32.5167 181.794 40.8109 162.675L55.4828 164.022Z" fill="#678EFF"/>
<path opacity="0.2" d="M55.4828 164.022L58.8637 169.369C65.5669 167.81 87.0505 164.533 89.6856 171.905C92.9672 181.062 69.2688 188.366 56.1563 188.814C43.0437 189.261 32.5167 181.794 40.8109 162.675L55.4828 164.022Z" fill="black"/>
<path d="M85.8797 184.868C85.8655 184.877 85.849 184.881 85.8323 184.881C85.8155 184.881 85.7991 184.877 85.7848 184.868C85.7724 184.859 85.7634 184.846 85.7593 184.831C85.7552 184.816 85.7562 184.801 85.7622 184.787C85.8029 184.637 86.2368 183.376 86.6662 183.245C86.7128 183.234 86.7616 183.235 86.8077 183.248C86.8537 183.262 86.8954 183.287 86.9284 183.322C86.9898 183.373 87.0368 183.439 87.0646 183.513C87.0924 183.588 87.1 183.669 87.0866 183.747C87.0141 183.982 86.8704 184.189 86.6753 184.339C86.4273 184.54 86.161 184.717 85.8797 184.868ZM85.9927 184.624C86.4018 184.443 86.7334 184.123 86.9284 183.72C86.939 183.666 86.934 183.61 86.914 183.559C86.894 183.508 86.8598 183.463 86.8154 183.431C86.803 183.416 86.7866 183.405 86.7681 183.399C86.7496 183.394 86.7299 183.394 86.7114 183.399C86.6759 183.414 86.6425 183.434 86.612 183.458C86.3418 183.803 86.1352 184.193 86.0018 184.61L85.9927 184.624Z" fill="#678EFF"/>
<path d="M85.8798 184.868C85.8658 184.875 85.8498 184.876 85.8348 184.872C85.8197 184.868 85.8068 184.859 85.7984 184.845C85.7577 184.809 85.1521 184.045 85.2515 183.53C85.2628 183.466 85.2871 183.405 85.3229 183.35C85.3586 183.296 85.4051 183.25 85.4594 183.214C85.5053 183.17 85.5647 183.143 85.6279 183.137C85.6911 183.131 85.7544 183.147 85.8074 183.182C86.1284 183.404 86.0877 184.43 85.934 184.814V184.854L85.8798 184.868ZM85.5362 183.372C85.4824 183.419 85.4458 183.483 85.4323 183.553C85.4485 183.938 85.5897 184.308 85.8346 184.606C85.934 184.154 85.9024 183.453 85.717 183.322C85.717 183.322 85.6583 183.281 85.5634 183.349L85.5362 183.372Z" fill="#678EFF"/>
<path d="M62.8277 187.001C62.8359 186.987 62.8486 186.975 62.864 186.967C62.8795 186.96 62.8968 186.958 62.9135 186.961C62.9285 186.963 62.9423 186.969 62.953 186.98C62.9636 186.991 62.9704 187.005 62.9723 187.02C63.0039 187.169 63.2345 188.484 62.9135 188.828C62.8798 188.861 62.8373 188.884 62.7909 188.895C62.7445 188.905 62.6962 188.902 62.6514 188.886C62.5734 188.872 62.5006 188.837 62.4403 188.785C62.38 188.734 62.3343 188.667 62.3079 188.592C62.2566 188.353 62.2819 188.103 62.3802 187.878C62.5001 187.572 62.65 187.278 62.8277 187.001ZM62.8277 187.268C62.5575 187.623 62.4214 188.061 62.4435 188.507C62.4603 188.559 62.4918 188.606 62.5342 188.641C62.5767 188.676 62.6283 188.699 62.683 188.705C62.7004 188.714 62.7201 188.716 62.7389 188.712C62.7578 188.708 62.7747 188.698 62.787 188.683C62.8134 188.654 62.8334 188.62 62.8457 188.583C62.9278 188.149 62.9309 187.704 62.8548 187.268H62.8277Z" fill="#678EFF"/>
<path d="M71.4202 180.366L66.0233 182.287L63.4333 183.209L64.0978 186.048L66.6064 185.51L72.7355 184.204L71.4202 180.366Z" fill="#EBB376"/>
<path d="M64.803 186.179L64.351 182.834C64.3449 182.789 64.33 182.747 64.307 182.708C64.284 182.669 64.2535 182.636 64.2172 182.609C64.1809 182.582 64.1396 182.563 64.0958 182.553C64.052 182.543 64.0066 182.542 63.9622 182.549L62.3125 182.825C62.3125 182.825 60.0525 183.037 59.6005 183.611C58.2942 185.297 59.1078 192.719 59.9801 192.981C60.2965 193.076 60.631 192.642 60.7711 192.34C61.2231 191.381 61.987 188.882 62.3622 188.086C62.8142 187.16 64.0075 186.708 64.5499 186.545C64.6296 186.526 64.6995 186.478 64.7462 186.41C64.7928 186.343 64.813 186.26 64.803 186.179Z" fill="#263238"/>
<path d="M62.8504 186.974C62.8626 186.967 62.8767 186.963 62.891 186.963C62.9054 186.963 62.9195 186.967 62.9317 186.974C62.986 186.974 63.8854 187.363 64.0482 187.878C64.0879 188.004 64.0766 188.141 64.0165 188.258C63.9975 188.319 63.9586 188.371 63.9062 188.407C63.8537 188.443 63.7907 188.461 63.7272 188.457C63.343 188.416 62.8775 187.499 62.8233 187.101V187.06C62.8188 187.045 62.819 187.028 62.8238 187.013C62.8287 186.998 62.8379 186.984 62.8504 186.974ZM63.8764 188.122C63.8988 188.053 63.8988 187.979 63.8764 187.91C63.7724 187.594 63.2707 187.313 63.0131 187.187C63.1396 187.616 63.5148 188.231 63.7408 188.253C63.7408 188.253 63.8086 188.253 63.8583 188.159V188.122H63.8764Z" fill="#678EFF"/>
<path opacity="0.2" d="M71.4203 180.366L66.0234 182.287L66.6065 185.51L72.7356 184.204L71.4203 180.366Z" fill="black"/>
<path d="M67.5601 185.998L69.115 186.106L68.0754 180.768L66.3171 181.745L67.5601 185.998Z" fill="#678EFF"/>
<path opacity="0.6" d="M67.5601 185.998L69.115 186.106L68.0754 180.768L66.3171 181.745L67.5601 185.998Z" fill="white"/>
<path opacity="0.2" d="M45.0552 165.251L53.1369 174.214C53.1369 174.214 62.073 174.015 72.921 179.317C72.921 179.317 84.56 174.508 85.6312 170.512C87.0324 165.278 58.8638 169.369 58.8638 169.369L45.0552 165.251Z" fill="black"/>
<path d="M82.9601 171.579V172.908C82.9601 173.247 82.5578 173.387 82.2233 173.387H55.6864C55.3474 173.387 54.936 173.247 54.936 172.908V171.579H82.9601Z" fill="#263238"/>
<path opacity="0.4" d="M82.9601 171.579V172.908C82.9601 173.247 82.5578 173.387 82.2233 173.387H55.6864C55.3474 173.387 54.936 173.247 54.936 172.908V171.579H82.9601Z" fill="white"/>
<path opacity="0.2" d="M82.9598 171.579V172.908C82.9598 173.247 82.5576 173.387 82.2231 173.387H64.7216C64.3826 173.387 63.9758 173.247 63.9758 172.908V171.579H82.9598Z" fill="black"/>
<path d="M87.3985 157.793L84.2345 172.122C84.1761 172.351 84.0441 172.555 83.8588 172.702C83.6734 172.849 83.4449 172.931 83.2084 172.935H65.9601C65.8521 172.933 65.746 172.906 65.6503 172.856C65.5547 172.806 65.4721 172.734 65.4093 172.646C65.3464 172.558 65.3051 172.457 65.2885 172.35C65.2719 172.243 65.2805 172.134 65.3137 172.031L68.4777 157.811C68.5415 157.595 68.6778 157.407 68.8639 157.279C69.05 157.152 69.2744 157.092 69.4993 157.111H86.7566C87.2358 157.115 87.5024 157.328 87.3985 157.793Z" fill="#263238"/>
<path opacity="0.4" d="M87.3987 157.793L84.2347 172.122C84.1763 172.351 84.0443 172.555 83.859 172.702C83.6736 172.849 83.4452 172.931 83.2086 172.935H66.5479C66.4398 172.933 66.3337 172.906 66.2379 172.855C66.1421 172.805 66.0592 172.734 65.9957 172.646C65.9322 172.558 65.8899 172.457 65.872 172.351C65.8541 172.244 65.8611 172.135 65.8925 172.031L69.0565 157.811C69.1219 157.6 69.2562 157.416 69.4381 157.29C69.62 157.164 69.839 157.102 70.06 157.115H86.7297C87.236 157.115 87.5026 157.328 87.3987 157.793Z" fill="white"/>
<path opacity="0.2" d="M78.8917 165.075C78.8917 166.304 77.5764 167.299 76.6317 167.299C75.6871 167.299 75.0949 166.304 75.3707 165.075C75.6464 163.845 76.6046 162.892 77.5493 162.856C77.2736 164.085 77.8612 165.075 78.8239 165.075C78.8465 165.077 78.8692 165.077 78.8917 165.075Z" fill="black"/>
<path d="M75.1675 186.504L80.8175 187.435L83.5295 187.883L84.3205 185.08L81.8661 184.33L75.8726 182.509L75.1675 186.504Z" fill="#EBB376"/>
<path d="M83.7691 184.619L82.5487 187.783C82.5292 187.826 82.519 187.872 82.5186 187.919C82.5182 187.965 82.5277 188.011 82.5465 188.054C82.5653 188.097 82.5929 188.135 82.6276 188.166C82.6623 188.198 82.7032 188.221 82.7476 188.235L84.3251 188.791C84.3251 188.791 86.3907 189.695 87.0597 189.406C89.0168 188.565 91.8961 181.672 91.2633 181.026C91.0328 180.786 90.5265 181.026 90.2598 181.202C89.4101 181.826 87.5207 183.643 86.8111 184.154C85.9749 184.75 84.7002 184.565 84.1488 184.448C84.0754 184.427 83.9972 184.433 83.9279 184.465C83.8585 184.496 83.8023 184.551 83.7691 184.619Z" fill="#263238"/>
<path opacity="0.2" d="M75.1675 186.504L80.8175 187.435L81.8661 184.33L75.8726 182.509L75.1675 186.504Z" fill="black"/>
<path d="M80.9077 183.747C80.9077 183.747 57.8557 170.793 49.9186 171.163C41.9814 171.534 40.8198 178.54 44.1013 182.915C47.3828 187.291 53.4396 188.367 53.4396 188.367C53.4396 188.367 49.3129 182.54 49.9095 180.899C50.5062 179.259 52.8385 181.55 52.8385 181.55C52.8385 181.55 67.3206 186.224 80.0037 187.318L80.9077 183.747Z" fill="#678EFF"/>
<path d="M81.2648 183.39L79.9631 182.513L78.2861 187.661H80.2975L81.2648 183.39Z" fill="#678EFF"/>
<path opacity="0.6" d="M81.2648 183.39L79.9631 182.513L78.2861 187.661H80.2975L81.2648 183.39Z" fill="white"/>
<path d="M40.811 162.675L55.4875 164.031C55.4875 164.031 57.7882 159.267 59.5555 157.409C61.3228 155.551 62.8822 146.109 62.8822 146.109C61.6887 145.531 60.4599 145.03 59.2029 144.608C55.5824 143.395 51.7936 142.757 47.9752 142.719H47.912C46.8181 142.719 46.1853 142.773 46.1853 142.773C45.7409 143.073 45.3813 143.483 45.1412 143.962C43.5682 146.674 42.3162 153.002 41.5749 157.545C41.0732 160.483 40.811 162.675 40.811 162.675Z" fill="#263238"/>
<path opacity="0.2" d="M41.552 157.549C44.7883 156.067 49.2044 153.558 48.9738 151.013C48.7252 148.22 46.4607 145.408 45.1183 143.967C43.5453 146.679 42.2933 153.007 41.552 157.549Z" fill="black"/>
<path d="M48.6892 142.737C48.6892 142.737 50.3616 148.242 54.9358 148.839C59.5101 149.436 60.2694 144.997 60.2694 144.997C60.2694 144.997 54.3799 141.765 48.6892 142.737Z" fill="#263238"/>
<path opacity="0.1" d="M48.6892 142.737C48.6892 142.737 50.3616 148.242 54.9358 148.839C59.5101 149.436 60.2694 144.997 60.2694 144.997C60.2694 144.997 54.3799 141.765 48.6892 142.737Z" fill="white"/>
<path d="M49.6475 142.891C49.6475 142.891 51.8035 147.989 55.6907 147.989C59.5779 147.989 59.6999 145.128 59.6999 145.128C59.6999 145.128 55.8127 142.579 49.6475 142.891Z" fill="#678EFF"/>
<path opacity="0.4" d="M49.6475 142.891C49.6475 142.891 51.8035 147.989 55.6907 147.989C59.5779 147.989 59.6999 145.128 59.6999 145.128C59.6999 145.128 55.8127 142.579 49.6475 142.891Z" fill="white"/>
<path d="M56.6851 143.686C56.7122 144.59 57.232 144.816 57.232 144.816C57.277 145.096 57.2571 145.383 57.1738 145.654C57.0906 145.925 56.9463 146.173 56.752 146.38C56.5577 146.586 56.3186 146.746 56.0531 146.845C55.7876 146.945 55.5028 146.982 55.2206 146.954C52.3414 146.66 51.4329 143.194 51.4329 143.194C53.5256 142.362 53.9957 140.052 54.0861 138.674C54.1115 138.315 54.1115 137.956 54.0861 137.598L58.0004 140.061C57.6699 140.611 57.3784 141.184 57.1281 141.774C56.853 142.375 56.7023 143.026 56.6851 143.686Z" fill="#EBB376"/>
<path opacity="0.2" d="M57.7608 139.758C57.4879 140.345 57.2553 140.949 57.0647 141.566C56.8527 142.19 56.7697 142.849 56.8206 143.505C54.6194 143.677 53.7425 138.818 53.7425 138.818V138.787C53.7326 138.427 53.6963 138.069 53.634 137.715L57.7608 139.758Z" fill="black"/>
<path d="M60.2648 128.901C60.2648 128.901 63.1396 125.593 59.6998 122.822C56.2601 120.051 49.4666 121.299 48.2145 127.559C46.9625 133.819 48.6665 136.463 48.6665 136.463C48.6665 136.463 48.6665 132.477 49.8146 131.315C49.8146 131.315 49.4711 133.222 49.8146 134.366C50.1581 135.51 49.8146 134.786 49.8146 134.786C49.8146 134.786 50.8723 129.792 55.9708 131.225C61.0694 132.657 60.2648 128.901 60.2648 128.901Z" fill="#263238"/>
<path d="M60.952 129.977C64.7398 131.134 65.341 133.53 64.4279 137.516C63.2889 142.488 61.1509 145.652 56.7439 143.148C50.7323 139.772 54.6647 128.061 60.952 129.977Z" fill="#EBB376"/>
<path d="M62.0458 136.558C62.1748 137.217 62.3827 137.857 62.665 138.466C62.5073 138.588 62.3187 138.665 62.1201 138.687C61.9215 138.71 61.7206 138.677 61.5396 138.592L62.0458 136.558Z" fill="#D58745"/>
<path d="M59.822 135.546C59.7316 135.858 59.492 136.066 59.2841 135.998C59.0762 135.93 58.9767 135.636 59.0626 135.324C59.1485 135.012 59.3926 134.804 59.6005 134.872C59.8084 134.94 59.9079 135.229 59.822 135.546Z" fill="#263238"/>
<path d="M59.51 134.863L60.2648 134.786C60.2648 134.786 59.7676 135.266 59.51 134.863Z" fill="#263238"/>
<path d="M63.7318 136.567C63.6459 136.879 63.4063 137.087 63.1984 137.019C62.9905 136.951 62.891 136.658 62.9769 136.346C63.0628 136.034 63.3069 135.826 63.5148 135.894C63.7227 135.962 63.8221 136.255 63.7318 136.567Z" fill="#263238"/>
<path d="M63.4246 135.885L64.1794 135.808C64.1794 135.808 63.6777 136.287 63.4246 135.885Z" fill="#263238"/>
<path d="M58.7598 133.155C58.7251 133.153 58.6917 133.141 58.6643 133.12C58.6369 133.098 58.6168 133.069 58.6068 133.035C58.5969 133.002 58.5976 132.967 58.6088 132.934C58.62 132.901 58.6412 132.872 58.6694 132.852C58.9693 132.685 59.3043 132.59 59.6474 132.576C59.9904 132.562 60.3321 132.628 60.6447 132.77C60.6833 132.788 60.7134 132.82 60.7286 132.86C60.7438 132.9 60.7429 132.944 60.726 132.983C60.7177 133.003 60.7054 133.021 60.6898 133.036C60.6743 133.052 60.6559 133.064 60.6357 133.072C60.6155 133.08 60.5938 133.084 60.5721 133.083C60.5503 133.083 60.5289 133.078 60.5091 133.069C60.2463 132.952 59.9607 132.897 59.6734 132.906C59.3862 132.915 59.1048 132.99 58.8502 133.123C58.8247 133.144 58.7927 133.155 58.7598 133.155Z" fill="#263238"/>
<path d="M64.7938 134.533C64.7698 134.533 64.7462 134.527 64.7245 134.517C64.7027 134.507 64.6832 134.492 64.6673 134.475C64.5225 134.266 64.332 134.093 64.1103 133.969C63.8886 133.846 63.6416 133.774 63.3881 133.76C63.3452 133.762 63.3035 133.746 63.2715 133.718C63.2395 133.689 63.2198 133.649 63.2163 133.607C63.2151 133.585 63.2181 133.564 63.2252 133.544C63.2323 133.523 63.2432 133.505 63.2575 133.489C63.2718 133.473 63.2891 133.46 63.3084 133.451C63.3277 133.441 63.3486 133.436 63.37 133.435C63.6748 133.443 63.9735 133.523 64.2425 133.666C64.5115 133.81 64.7436 134.014 64.9204 134.262C64.9513 134.293 64.9686 134.336 64.9686 134.38C64.9686 134.424 64.9513 134.466 64.9204 134.497C64.9027 134.511 64.8824 134.522 64.8607 134.528C64.839 134.534 64.8163 134.536 64.7938 134.533Z" fill="#263238"/>
<path d="M54.8681 135.098C54.8681 135.098 57.5801 132.526 58.0321 130.045C58.0321 130.045 66.471 129.267 64.5183 136.997C64.5183 136.997 67.3162 130.456 60.8526 128.323C54.389 126.189 51.5279 135.718 54.0274 139.578C54.0274 139.578 53.1822 136.707 54.8681 135.098Z" fill="#263238"/>
<path d="M60.6672 140.296C60.1631 140.301 59.6742 140.124 59.2898 139.798C58.9055 139.472 58.6516 139.018 58.5744 138.52C58.5705 138.476 58.5832 138.433 58.6101 138.399C58.637 138.364 58.6759 138.341 58.7191 138.335C58.7621 138.331 58.8049 138.344 58.8386 138.371C58.8723 138.398 58.8942 138.436 58.8999 138.479C58.9627 138.902 59.178 139.287 59.5053 139.562C59.8325 139.837 60.2491 139.982 60.6763 139.971C60.7194 139.971 60.7608 139.988 60.7913 140.019C60.8218 140.049 60.839 140.09 60.839 140.134C60.839 140.177 60.8218 140.218 60.7913 140.249C60.7608 140.279 60.7194 140.296 60.6763 140.296H60.6672Z" fill="#263238"/>
<path d="M54.2125 134.339C54.2067 134.364 54.2093 134.389 54.22 134.412C54.2306 134.435 54.2487 134.454 54.2712 134.465H54.2983L58.1539 135.369C58.0919 135.736 58.1538 136.113 58.3298 136.44C58.5058 136.768 58.7858 137.027 59.1257 137.177C59.5677 137.398 60.0751 137.448 60.5516 137.319C61.0282 137.19 61.4408 136.89 61.7112 136.477C61.7585 136.397 61.7979 136.312 61.8287 136.224C61.8975 136.167 61.977 136.126 62.0625 136.101C62.1479 136.076 62.2375 136.068 62.3259 136.079C62.374 136.101 62.4167 136.132 62.4511 136.172C62.4855 136.212 62.5106 136.259 62.5248 136.31C62.4721 136.672 62.539 137.041 62.7151 137.361C62.8913 137.682 63.1673 137.936 63.5011 138.086C63.9438 138.305 64.4512 138.354 64.9275 138.224C65.4039 138.094 65.8162 137.794 66.0865 137.381C66.203 137.18 66.2755 136.956 66.2991 136.725C66.3227 136.494 66.2969 136.26 66.2234 136.04C66.1499 135.819 66.0303 135.617 65.8727 135.446C65.7151 135.275 65.523 135.14 65.3091 135.049C64.8671 134.828 64.3597 134.778 63.8832 134.907C63.4066 135.036 62.994 135.336 62.7236 135.749C62.6763 135.829 62.6369 135.914 62.6061 136.002C62.5517 135.946 62.4852 135.903 62.4118 135.876C62.2435 135.833 62.0652 135.852 61.91 135.93C61.9709 135.563 61.908 135.186 61.7312 134.859C61.5545 134.532 61.2739 134.272 60.9337 134.122C60.4917 133.902 59.9844 133.852 59.5078 133.981C59.0312 134.11 58.6186 134.409 58.3483 134.823C58.2865 134.928 58.2365 135.04 58.1991 135.157L54.3616 134.253C54.3305 134.245 54.2973 134.249 54.2693 134.265C54.2414 134.281 54.2209 134.308 54.2125 134.339ZM62.9361 135.835C63.1728 135.474 63.5333 135.213 63.9496 135.1C64.3659 134.986 64.8093 135.029 65.1961 135.22C65.3832 135.3 65.5511 135.419 65.6889 135.569C65.8266 135.719 65.931 135.896 65.9951 136.089C66.0592 136.282 66.0815 136.487 66.0607 136.689C66.0398 136.892 65.9762 137.087 65.8741 137.263C65.6373 137.624 65.2765 137.885 64.86 137.998C64.4435 138.11 64.0002 138.066 63.6141 137.874C63.4271 137.794 63.2592 137.676 63.1215 137.526C62.9838 137.377 62.8794 137.2 62.8153 137.007C62.7511 136.814 62.7288 136.61 62.7496 136.408C62.7704 136.206 62.834 136.011 62.9361 135.835ZM58.5607 134.931C58.7975 134.57 59.158 134.309 59.5743 134.196C59.9906 134.082 60.4339 134.125 60.8207 134.316C61.0078 134.396 61.1758 134.515 61.3135 134.665C61.4513 134.815 61.5556 134.992 61.6197 135.185C61.6838 135.378 61.7062 135.583 61.6853 135.785C61.6645 135.988 61.6008 136.183 61.4987 136.359C61.2626 136.721 60.9021 136.983 60.4856 137.096C60.069 137.21 59.6253 137.166 59.2387 136.974C59.0515 136.894 58.8834 136.774 58.7457 136.624C58.6079 136.474 58.5035 136.296 58.4395 136.103C58.3754 135.909 58.3531 135.704 58.374 135.502C58.3949 135.299 58.4585 135.103 58.5607 134.927V134.931Z" fill="#263238"/>
<g opacity="0.3">
<path opacity="0.3" d="M54.2125 134.339C54.2067 134.364 54.2093 134.389 54.22 134.412C54.2306 134.435 54.2487 134.454 54.2712 134.465H54.2983L58.1539 135.369C58.0919 135.736 58.1538 136.113 58.3298 136.44C58.5058 136.768 58.7858 137.027 59.1257 137.177C59.5677 137.398 60.0751 137.448 60.5516 137.319C61.0282 137.19 61.4408 136.89 61.7112 136.477C61.7585 136.397 61.7979 136.312 61.8287 136.224C61.8975 136.167 61.977 136.126 62.0625 136.101C62.1479 136.076 62.2375 136.068 62.3259 136.079C62.374 136.101 62.4167 136.132 62.4511 136.172C62.4855 136.212 62.5106 136.259 62.5248 136.31C62.4721 136.672 62.539 137.041 62.7151 137.361C62.8913 137.682 63.1673 137.936 63.5011 138.086C63.9438 138.305 64.4512 138.354 64.9275 138.224C65.4039 138.094 65.8162 137.794 66.0865 137.381C66.203 137.18 66.2755 136.956 66.2991 136.725C66.3227 136.494 66.2969 136.26 66.2234 136.04C66.1499 135.819 66.0303 135.617 65.8727 135.446C65.7151 135.275 65.523 135.14 65.3091 135.049C64.8671 134.828 64.3597 134.778 63.8832 134.907C63.4066 135.036 62.994 135.336 62.7236 135.749C62.6763 135.829 62.6369 135.914 62.6061 136.002C62.5517 135.946 62.4852 135.903 62.4118 135.876C62.2435 135.833 62.0652 135.852 61.91 135.93C61.9709 135.563 61.908 135.186 61.7312 134.859C61.5545 134.532 61.2739 134.272 60.9337 134.122C60.4917 133.902 59.9844 133.852 59.5078 133.981C59.0312 134.11 58.6186 134.409 58.3483 134.823C58.2865 134.928 58.2365 135.04 58.1991 135.157L54.3616 134.253C54.3305 134.245 54.2973 134.249 54.2693 134.265C54.2414 134.281 54.2209 134.308 54.2125 134.339ZM62.9361 135.835C63.1728 135.474 63.5333 135.213 63.9496 135.1C64.3659 134.986 64.8093 135.029 65.1961 135.22C65.3832 135.3 65.5511 135.419 65.6889 135.569C65.8266 135.719 65.931 135.896 65.9951 136.089C66.0592 136.282 66.0815 136.487 66.0607 136.689C66.0398 136.892 65.9762 137.087 65.8741 137.263C65.6373 137.624 65.2765 137.885 64.86 137.998C64.4435 138.11 64.0002 138.066 63.6141 137.874C63.4271 137.794 63.2592 137.676 63.1215 137.526C62.9838 137.377 62.8794 137.2 62.8153 137.007C62.7511 136.814 62.7288 136.61 62.7496 136.408C62.7704 136.206 62.834 136.011 62.9361 135.835ZM58.5607 134.931C58.7975 134.57 59.158 134.309 59.5743 134.196C59.9906 134.082 60.4339 134.125 60.8207 134.316C61.0078 134.396 61.1758 134.515 61.3135 134.665C61.4513 134.815 61.5556 134.992 61.6197 135.185C61.6838 135.378 61.7062 135.583 61.6853 135.785C61.6645 135.988 61.6008 136.183 61.4987 136.359C61.2626 136.721 60.9021 136.983 60.4856 137.096C60.069 137.21 59.6253 137.166 59.2387 136.974C59.0515 136.894 58.8834 136.774 58.7457 136.624C58.6079 136.474 58.5035 136.296 58.4395 136.103C58.3754 135.909 58.3531 135.704 58.374 135.502C58.3949 135.299 58.4585 135.103 58.5607 134.927V134.931Z" fill="white"/>
</g>
<path d="M55.2432 136.084C55.34 135.635 55.2549 135.166 55.0067 134.78C54.7585 134.393 54.3673 134.121 53.9188 134.023C52.7074 133.792 51.4102 136.029 54.1538 137.498C54.5471 137.711 54.9087 137.372 55.2432 136.084Z" fill="#EBB376"/>
<path d="M47.9119 147.723C47.9119 147.723 48.3639 157.386 49.182 159.556C50.0001 161.726 58.5339 169.717 58.5339 169.717C58.5339 169.717 60.9159 169.188 61.3092 169.342C61.7024 169.495 63.976 171.602 63.976 171.602H57.4039L56.8298 170.589C56.8298 170.589 47.9978 164.044 47.026 162.485C46.3073 161.332 43.9976 149.594 43.9976 149.594L47.9119 147.723Z" fill="#EBB376"/>
<path d="M46.1625 142.778C47.6948 141.982 48.4225 144.545 49.3581 149.73C49.9146 153.006 50.1703 156.327 50.122 159.651L51.4328 161.979L48.1242 165.025C46.5684 163.523 45.3765 161.684 44.6392 159.651C43.6177 156.532 40.8018 145.576 46.1625 142.778Z" fill="#263238"/>
<path opacity="0.1" d="M46.1625 142.778C47.6948 141.982 48.4225 144.545 49.3581 149.73C49.9146 153.006 50.1703 156.327 50.122 159.651L51.4328 161.979L48.1242 165.025C46.5684 163.523 45.3765 161.684 44.6392 159.651C43.6177 156.532 40.8018 145.576 46.1625 142.778Z" fill="white"/>
<path d="M47.261 165.025L51.4329 161.296L52.4183 162.675L48.6893 166.336L47.261 165.025Z" fill="#678EFF"/>
<path opacity="0.4" d="M47.261 165.025L51.4329 161.296L52.4183 162.675L48.6893 166.336L47.261 165.025Z" fill="white"/>
</svg>
