<svg width="22" height="22" viewBox="0 0 22 22" fill="none" xmlns="http://www.w3.org/2000/svg">
<path d="M5.04213 13.75C5.8443 13.7454 6.61583 13.4414 7.20546 12.8975L12.9438 16.1792C12.8707 16.4324 12.8337 16.6947 12.8338 16.9583C12.8279 17.7022 13.0785 18.4255 13.5435 19.0062C14.0084 19.587 14.6592 19.9898 15.3864 20.1469C16.1136 20.3039 16.8727 20.2056 17.5358 19.8685C18.199 19.5314 18.7258 18.976 19.0274 18.296C19.3291 17.616 19.3872 16.8528 19.192 16.1349C18.9968 15.417 18.5602 14.7883 17.9557 14.3547C17.3512 13.9211 16.6158 13.7089 15.8732 13.7541C15.1306 13.7992 14.4263 14.0988 13.8788 14.6025L8.14046 11.3208C8.20971 11.0949 8.24674 10.8604 8.25046 10.6242L13.888 7.3975C14.4325 7.8896 15.1297 8.17949 15.8626 8.21856C16.5956 8.25762 17.3196 8.04348 17.9134 7.61204C18.5072 7.18061 18.9346 6.55813 19.1239 5.84899C19.3131 5.13985 19.2528 4.38719 18.9531 3.71724C18.6533 3.04729 18.1322 2.50079 17.4773 2.16941C16.8225 1.83802 16.0735 1.74189 15.3562 1.89715C14.6388 2.05241 13.9967 2.44962 13.5374 3.02215C13.0781 3.59468 12.8297 4.30771 12.8338 5.04166C12.8369 5.30503 12.8739 5.5669 12.9438 5.82083L7.72796 8.8C7.42574 8.33246 7.00707 7.9516 6.51309 7.69487C6.01911 7.43813 5.46682 7.31436 4.91052 7.3357C4.35421 7.35705 3.81304 7.52278 3.34018 7.81661C2.86733 8.11044 2.47906 8.52226 2.21356 9.01158C1.94806 9.50091 1.81445 10.0509 1.82587 10.6075C1.83729 11.1641 1.99335 11.7081 2.2787 12.1862C2.56405 12.6642 2.96888 13.0597 3.45339 13.3339C3.9379 13.6081 4.48542 13.7515 5.04213 13.75ZM16.0421 15.5833C16.3141 15.5833 16.5799 15.664 16.806 15.8151C17.0322 15.9661 17.2084 16.1809 17.3125 16.4321C17.4165 16.6834 17.4438 16.9599 17.3907 17.2266C17.3377 17.4933 17.2067 17.7383 17.0144 17.9306C16.8221 18.1229 16.5771 18.2539 16.3104 18.3069C16.0437 18.36 15.7672 18.3327 15.5159 18.2287C15.2647 18.1246 15.0499 17.9484 14.8989 17.7222C14.7478 17.4961 14.6671 17.2303 14.6671 16.9583C14.6671 16.5937 14.812 16.2439 15.0699 15.9861C15.3277 15.7282 15.6775 15.5833 16.0421 15.5833ZM16.0421 3.66666C16.3141 3.66666 16.5799 3.74731 16.806 3.89839C17.0322 4.04948 17.2084 4.26423 17.3125 4.51547C17.4165 4.76672 17.4438 5.04319 17.3907 5.30991C17.3377 5.57664 17.2067 5.82164 17.0144 6.01394C16.8221 6.20623 16.5771 6.33719 16.3104 6.39024C16.0437 6.4433 15.7672 6.41607 15.5159 6.312C15.2647 6.20793 15.0499 6.03169 14.8989 5.80557C14.7478 5.57946 14.6671 5.31361 14.6671 5.04166C14.6671 4.67699 14.812 4.32725 15.0699 4.06939C15.3277 3.81153 15.6775 3.66666 16.0421 3.66666ZM5.04213 9.16666C5.31408 9.16666 5.57992 9.24731 5.80604 9.39839C6.03215 9.54948 6.20839 9.76423 6.31246 10.0155C6.41653 10.2667 6.44376 10.5432 6.39071 10.8099C6.33765 11.0766 6.2067 11.3216 6.0144 11.5139C5.8221 11.7062 5.5771 11.8372 5.31038 11.8902C5.04365 11.9433 4.76719 11.9161 4.51594 11.812C4.26469 11.7079 4.04994 11.5317 3.89886 11.3056C3.74777 11.0795 3.66713 10.8136 3.66713 10.5417C3.66713 10.177 3.81199 9.82725 4.06985 9.56939C4.32772 9.31153 4.67745 9.16666 5.04213 9.16666Z" fill="#678EFF"/>
</svg>
