<svg width="377" height="304" viewBox="0 0 377 304" fill="none" xmlns="http://www.w3.org/2000/svg">
<g filter="url(#filter0_d_302_2)">
<rect x="22" y="20" width="333" height="260" rx="10" fill="white"/>
<path d="M45.52 46.8H47.728V58H46.048L41.248 51.152V58H39.04V46.8H40.72L45.52 53.632V46.8ZM58.6696 46.8L54.8296 53.632V58H52.6376V53.632L48.8136 46.8H51.3096L53.7416 51.472L56.1736 46.8H58.6696ZM62.9265 58.224C61.8172 58.224 60.8838 57.9787 60.1265 57.488C59.3692 56.9867 58.8358 56.3093 58.5265 55.456L60.4145 54.352C60.8518 55.4933 61.7105 56.064 62.9905 56.064C63.6092 56.064 64.0625 55.952 64.3505 55.728C64.6385 55.504 64.7825 55.2213 64.7825 54.88C64.7825 54.4853 64.6065 54.1813 64.2545 53.968C63.9025 53.744 63.2732 53.504 62.3665 53.248C61.8652 53.0987 61.4385 52.9493 61.0865 52.8C60.7452 52.6507 60.3985 52.4533 60.0465 52.208C59.7052 51.952 59.4438 51.632 59.2625 51.248C59.0812 50.864 58.9905 50.416 58.9905 49.904C58.9905 48.8907 59.3478 48.0853 60.0625 47.488C60.7878 46.88 61.6572 46.576 62.6705 46.576C63.5772 46.576 64.3718 46.8 65.0545 47.248C65.7478 47.6853 66.2865 48.2987 66.6705 49.088L64.8145 50.16C64.3665 49.2 63.6518 48.72 62.6705 48.72C62.2118 48.72 61.8492 48.8267 61.5825 49.04C61.3265 49.2427 61.1985 49.5093 61.1985 49.84C61.1985 50.192 61.3425 50.48 61.6305 50.704C61.9292 50.9173 62.4945 51.152 63.3265 51.408C63.6678 51.5147 63.9238 51.6 64.0945 51.664C64.2758 51.7173 64.5158 51.808 64.8145 51.936C65.1238 52.0533 65.3585 52.1653 65.5185 52.272C65.6892 52.3787 65.8812 52.5227 66.0945 52.704C66.3078 52.8853 66.4678 53.072 66.5745 53.264C66.6918 53.456 66.7878 53.6907 66.8625 53.968C66.9478 54.2347 66.9905 54.528 66.9905 54.848C66.9905 55.8827 66.6118 56.704 65.8545 57.312C65.1078 57.92 64.1318 58.224 62.9265 58.224ZM70.5605 55.888H75.2805V58H68.3525V46.8H75.2005V48.912H70.5605V51.296H74.8005V53.376H70.5605V55.888Z" fill="#001343"/>
<path d="M40.8 72.2H41.64V82H40.66V73.278L38.462 73.936L38.21 73.096L40.8 72.2ZM50.5278 79.116V80.04H49.2678V82H48.2878V80.04H43.1078V79.116L46.7478 72.2H47.8258L44.1858 79.116H48.2878V76.12H49.2678V79.116H50.5278ZM53.3989 80.81L52.5589 83.96H51.7189L52.2789 80.81H53.3989ZM54.8022 82V81.118L58.3302 77.562C59.3382 76.554 59.8422 75.6907 59.8422 74.972C59.8422 74.3467 59.6462 73.8613 59.2542 73.516C58.8715 73.1613 58.4095 72.984 57.8682 72.984C56.8602 72.984 56.1275 73.446 55.6702 74.37L54.8442 73.88C55.1522 73.2733 55.5722 72.816 56.1042 72.508C56.6362 72.1907 57.2242 72.032 57.8682 72.032C58.6522 72.032 59.3382 72.298 59.9262 72.83C60.5235 73.3527 60.8222 74.0667 60.8222 74.972C60.8222 75.5413 60.6635 76.0873 60.3462 76.61C60.0289 77.1327 59.5809 77.6833 59.0022 78.262L56.2022 81.048H61.0322V82H54.8022ZM64.3977 72.2H65.2377V82H64.2577V73.278L62.0597 73.936L61.8077 73.096L64.3977 72.2ZM66.9155 82V81.118L70.4435 77.562C71.4515 76.554 71.9555 75.6907 71.9555 74.972C71.9555 74.3467 71.7595 73.8613 71.3675 73.516C70.9848 73.1613 70.5228 72.984 69.9815 72.984C68.9735 72.984 68.2408 73.446 67.7835 74.37L66.9575 73.88C67.2655 73.2733 67.6855 72.816 68.2175 72.508C68.7495 72.1907 69.3375 72.032 69.9815 72.032C70.7655 72.032 71.4515 72.298 72.0395 72.83C72.6368 73.3527 72.9355 74.0667 72.9355 74.972C72.9355 75.5413 72.7768 76.0873 72.4595 76.61C72.1421 77.1327 71.6941 77.6833 71.1155 78.262L68.3155 81.048H73.1455V82H66.9155ZM75.8669 81.916C75.7176 82.0653 75.5356 82.14 75.3209 82.14C75.1063 82.14 74.9243 82.0653 74.7749 81.916C74.6256 81.7667 74.5509 81.5847 74.5509 81.37C74.5509 81.1553 74.6256 80.9733 74.7749 80.824C74.9243 80.6747 75.1063 80.6 75.3209 80.6C75.5356 80.6 75.7176 80.6747 75.8669 80.824C76.0163 80.9733 76.0909 81.1553 76.0909 81.37C76.0909 81.5847 76.0163 81.7667 75.8669 81.916ZM79.7375 72.2H80.5775V82H79.5975V73.278L77.3995 73.936L77.1475 73.096L79.7375 72.2ZM88.8353 80.796C88.1913 81.7107 87.2813 82.168 86.1053 82.168C84.9293 82.168 84.0146 81.7107 83.3613 80.796C82.7173 79.872 82.3953 78.64 82.3953 77.1C82.3953 75.56 82.7173 74.3327 83.3613 73.418C84.0146 72.494 84.9293 72.032 86.1053 72.032C87.2813 72.032 88.1913 72.494 88.8353 73.418C89.4886 74.3327 89.8153 75.56 89.8153 77.1C89.8153 78.64 89.4886 79.872 88.8353 80.796ZM84.0893 80.138C84.5746 80.8567 85.2466 81.216 86.1053 81.216C86.964 81.216 87.6313 80.8567 88.1073 80.138C88.5926 79.4193 88.8353 78.4067 88.8353 77.1C88.8353 75.7933 88.5926 74.7807 88.1073 74.062C87.6313 73.3433 86.964 72.984 86.1053 72.984C85.2466 72.984 84.5746 73.3433 84.0893 74.062C83.6133 74.7807 83.3753 75.7933 83.3753 77.1C83.3753 78.4067 83.6133 79.4193 84.0893 80.138ZM100.314 72.2H101.154V82H100.174V73.278L97.9757 73.936L97.7237 73.096L100.314 72.2ZM102.831 82V81.118L106.359 77.562C107.367 76.554 107.871 75.6907 107.871 74.972C107.871 74.3467 107.675 73.8613 107.283 73.516C106.901 73.1613 106.439 72.984 105.897 72.984C104.889 72.984 104.157 73.446 103.699 74.37L102.873 73.88C103.181 73.2733 103.601 72.816 104.133 72.508C104.665 72.1907 105.253 72.032 105.897 72.032C106.681 72.032 107.367 72.298 107.955 72.83C108.553 73.3527 108.851 74.0667 108.851 74.972C108.851 75.5413 108.693 76.0873 108.375 76.61C108.058 77.1327 107.61 77.6833 107.031 78.262L104.231 81.048H109.061V82H102.831ZM111.783 81.916C111.634 82.0653 111.452 82.14 111.237 82.14C111.022 82.14 110.84 82.0653 110.691 81.916C110.542 81.7667 110.467 81.5847 110.467 81.37C110.467 81.1553 110.542 80.9733 110.691 80.824C110.84 80.6747 111.022 80.6 111.237 80.6C111.452 80.6 111.634 80.6747 111.783 80.824C111.932 80.9733 112.007 81.1553 112.007 81.37C112.007 81.5847 111.932 81.7667 111.783 81.916ZM116.564 75.7C117.525 75.7 118.314 76.0033 118.93 76.61C119.546 77.2073 119.854 77.982 119.854 78.934C119.854 79.886 119.546 80.6653 118.93 81.272C118.314 81.8693 117.525 82.168 116.564 82.168C115.602 82.168 114.814 81.8693 114.198 81.272C113.582 80.6653 113.274 79.886 113.274 78.934C113.274 78.1967 113.474 77.5433 113.876 76.974L117.082 72.2H118.188L115.78 75.784C116.032 75.728 116.293 75.7 116.564 75.7ZM114.884 80.586C115.313 81.006 115.873 81.216 116.564 81.216C117.254 81.216 117.81 81.006 118.23 80.586C118.659 80.166 118.874 79.6153 118.874 78.934C118.874 78.2527 118.659 77.702 118.23 77.282C117.81 76.862 117.254 76.652 116.564 76.652C115.873 76.652 115.313 76.862 114.884 77.282C114.464 77.702 114.254 78.2527 114.254 78.934C114.254 79.6153 114.464 80.166 114.884 80.586ZM127.417 80.796C126.773 81.7107 125.863 82.168 124.687 82.168C123.511 82.168 122.597 81.7107 121.943 80.796C121.299 79.872 120.977 78.64 120.977 77.1C120.977 75.56 121.299 74.3327 121.943 73.418C122.597 72.494 123.511 72.032 124.687 72.032C125.863 72.032 126.773 72.494 127.417 73.418C128.071 74.3327 128.397 75.56 128.397 77.1C128.397 78.64 128.071 79.872 127.417 80.796ZM122.671 80.138C123.157 80.8567 123.829 81.216 124.687 81.216C125.546 81.216 126.213 80.8567 126.689 80.138C127.175 79.4193 127.417 78.4067 127.417 77.1C127.417 75.7933 127.175 74.7807 126.689 74.062C126.213 73.3433 125.546 72.984 124.687 72.984C123.829 72.984 123.157 73.3433 122.671 74.062C122.195 74.7807 121.957 75.7933 121.957 77.1C121.957 78.4067 122.195 79.4193 122.671 80.138ZM134.976 83.4C133.949 81.3467 133.436 79.2467 133.436 77.1C133.436 74.9533 133.949 72.8533 134.976 70.8H135.9C134.873 72.8533 134.36 74.9533 134.36 77.1C134.36 79.2467 134.873 81.3467 135.9 83.4H134.976ZM143.454 80.796C142.81 81.7107 141.9 82.168 140.724 82.168C139.548 82.168 138.634 81.7107 137.98 80.796C137.336 79.872 137.014 78.64 137.014 77.1C137.014 75.56 137.336 74.3327 137.98 73.418C138.634 72.494 139.548 72.032 140.724 72.032C141.9 72.032 142.81 72.494 143.454 73.418C144.108 74.3327 144.434 75.56 144.434 77.1C144.434 78.64 144.108 79.872 143.454 80.796ZM138.708 80.138C139.194 80.8567 139.866 81.216 140.724 81.216C141.583 81.216 142.25 80.8567 142.726 80.138C143.212 79.4193 143.454 78.4067 143.454 77.1C143.454 75.7933 143.212 74.7807 142.726 74.062C142.25 73.3433 141.583 72.984 140.724 72.984C139.866 72.984 139.194 73.3433 138.708 74.062C138.232 74.7807 137.994 75.7933 137.994 77.1C137.994 78.4067 138.232 79.4193 138.708 80.138ZM146.865 81.916C146.716 82.0653 146.534 82.14 146.319 82.14C146.104 82.14 145.922 82.0653 145.773 81.916C145.624 81.7667 145.549 81.5847 145.549 81.37C145.549 81.1553 145.624 80.9733 145.773 80.824C145.922 80.6747 146.104 80.6 146.319 80.6C146.534 80.6 146.716 80.6747 146.865 80.824C147.014 80.9733 147.089 81.1553 147.089 81.37C147.089 81.5847 147.014 81.7667 146.865 81.916ZM154.652 80.796C154.008 81.7107 153.098 82.168 151.922 82.168C150.746 82.168 149.831 81.7107 149.178 80.796C148.534 79.872 148.212 78.64 148.212 77.1C148.212 75.56 148.534 74.3327 149.178 73.418C149.831 72.494 150.746 72.032 151.922 72.032C153.098 72.032 154.008 72.494 154.652 73.418C155.305 74.3327 155.632 75.56 155.632 77.1C155.632 78.64 155.305 79.872 154.652 80.796ZM149.906 80.138C150.391 80.8567 151.063 81.216 151.922 81.216C152.78 81.216 153.448 80.8567 153.924 80.138C154.409 79.4193 154.652 78.4067 154.652 77.1C154.652 75.7933 154.409 74.7807 153.924 74.062C153.448 73.3433 152.78 72.984 151.922 72.984C151.063 72.984 150.391 73.3433 149.906 74.062C149.43 74.7807 149.192 75.7933 149.192 77.1C149.192 78.4067 149.43 79.4193 149.906 80.138ZM163.33 75.266C163.33 76.0033 163.129 76.6567 162.728 77.226L159.522 82H158.416L160.824 78.416C160.572 78.472 160.311 78.5 160.04 78.5C159.079 78.5 158.29 78.2013 157.674 77.604C157.058 76.9973 156.75 76.218 156.75 75.266C156.75 74.314 157.058 73.5393 157.674 72.942C158.29 72.3353 159.079 72.032 160.04 72.032C161.001 72.032 161.79 72.3353 162.406 72.942C163.022 73.5393 163.33 74.314 163.33 75.266ZM158.36 73.614C157.94 74.034 157.73 74.5847 157.73 75.266C157.73 75.9473 157.94 76.498 158.36 76.918C158.789 77.338 159.349 77.548 160.04 77.548C160.731 77.548 161.286 77.338 161.706 76.918C162.135 76.498 162.35 75.9473 162.35 75.266C162.35 74.5847 162.135 74.034 161.706 73.614C161.286 73.194 160.731 72.984 160.04 72.984C159.349 72.984 158.789 73.194 158.36 73.614ZM166.736 76.232C166.129 76.232 165.621 76.0313 165.21 75.63C164.799 75.2193 164.594 74.72 164.594 74.132C164.594 73.544 164.799 73.0493 165.21 72.648C165.621 72.2373 166.129 72.032 166.736 72.032C167.343 72.032 167.851 72.2373 168.262 72.648C168.673 73.0493 168.878 73.544 168.878 74.132C168.878 74.72 168.677 75.2193 168.276 75.63C167.875 76.0313 167.361 76.232 166.736 76.232ZM165.84 75.028C166.073 75.2707 166.372 75.392 166.736 75.392C167.1 75.392 167.399 75.2707 167.632 75.028C167.865 74.7853 167.982 74.4867 167.982 74.132C167.982 73.7773 167.865 73.4787 167.632 73.236C167.399 72.9933 167.1 72.872 166.736 72.872C166.372 72.872 166.073 72.9933 165.84 73.236C165.607 73.4787 165.49 73.7773 165.49 74.132C165.49 74.4867 165.607 74.7853 165.84 75.028ZM165.084 80.67L171.65 73.292L172.252 73.628L165.672 81.006L165.084 80.67ZM172.224 81.566C171.813 81.9673 171.305 82.168 170.698 82.168C170.091 82.168 169.583 81.9673 169.172 81.566C168.761 81.1553 168.556 80.656 168.556 80.068C168.556 79.48 168.761 78.9853 169.172 78.584C169.583 78.1733 170.091 77.968 170.698 77.968C171.305 77.968 171.813 78.1733 172.224 78.584C172.635 78.9853 172.84 79.48 172.84 80.068C172.84 80.656 172.635 81.1553 172.224 81.566ZM169.802 80.964C170.035 81.2067 170.334 81.328 170.698 81.328C171.062 81.328 171.361 81.2067 171.594 80.964C171.827 80.7213 171.944 80.4227 171.944 80.068C171.944 79.7133 171.827 79.4147 171.594 79.172C171.361 78.9293 171.062 78.808 170.698 78.808C170.334 78.808 170.035 78.9293 169.802 79.172C169.569 79.4147 169.452 79.7133 169.452 80.068C169.452 80.4227 169.569 80.7213 169.802 80.964ZM175.024 83.4H174.1C175.126 81.3467 175.64 79.2467 175.64 77.1C175.64 74.9533 175.126 72.8533 174.1 70.8H175.024C176.05 72.8533 176.564 74.9533 176.564 77.1C176.564 79.2467 176.05 81.3467 175.024 83.4Z" fill="#646464"/>
<path d="M100.5 56.25L96 51.75L91.5 56.25" stroke="#678EFF" stroke-width="1.5" stroke-linecap="round" stroke-linejoin="round"/>
<path d="M235.432 69L234.748 67.116H230.968L230.284 69H229.096L232.228 60.6H233.488L236.62 69H235.432ZM231.352 66.072H234.364L232.852 61.932L231.352 66.072ZM240.887 60.6C242.031 60.6 242.979 61.008 243.731 61.824C244.491 62.632 244.871 63.624 244.871 64.8C244.871 65.976 244.491 66.972 243.731 67.788C242.979 68.596 242.031 69 240.887 69H237.611V60.6H240.887ZM240.887 67.944C241.743 67.944 242.443 67.644 242.987 67.044C243.531 66.444 243.803 65.696 243.803 64.8C243.803 63.904 243.531 63.156 242.987 62.556C242.443 61.956 241.743 61.656 240.887 61.656H238.727V67.944H240.887ZM248.045 69L245.045 60.6H246.245L248.681 67.608L251.105 60.6H252.317L249.305 69H248.045Z" fill="#001343"/>
<path d="M271.5 68.25L267 63.75L262.5 68.25" stroke="#00C696" stroke-width="1.5" stroke-linecap="round" stroke-linejoin="round"/>
<path d="M296.176 60.6C297.32 60.6 298.268 61.008 299.02 61.824C299.78 62.632 300.16 63.624 300.16 64.8C300.16 65.976 299.78 66.972 299.02 67.788C298.268 68.596 297.32 69 296.176 69H292.9V60.6H296.176ZM296.176 67.944C297.032 67.944 297.732 67.644 298.276 67.044C298.82 66.444 299.092 65.696 299.092 64.8C299.092 63.904 298.82 63.156 298.276 62.556C297.732 61.956 297.032 61.656 296.176 61.656H294.016V67.944H296.176ZM302.629 67.944H306.529V69H301.513V60.6H306.469V61.656H302.629V64.236H306.169V65.28H302.629V67.944ZM311.766 69.156C310.494 69.156 309.442 68.736 308.61 67.896C307.786 67.056 307.374 66.024 307.374 64.8C307.374 63.576 307.786 62.544 308.61 61.704C309.442 60.864 310.494 60.444 311.766 60.444C312.534 60.444 313.238 60.628 313.878 60.996C314.526 61.364 315.03 61.86 315.39 62.484L314.418 63.048C314.178 62.584 313.818 62.216 313.338 61.944C312.866 61.664 312.342 61.524 311.766 61.524C310.798 61.524 310.006 61.836 309.39 62.46C308.782 63.084 308.478 63.864 308.478 64.8C308.478 65.728 308.782 66.504 309.39 67.128C310.006 67.752 310.798 68.064 311.766 68.064C312.342 68.064 312.866 67.928 313.338 67.656C313.818 67.376 314.178 67.008 314.418 66.552L315.39 67.104C315.038 67.728 314.538 68.228 313.89 68.604C313.242 68.972 312.534 69.156 311.766 69.156Z" fill="#001343"/>
<path d="M325.5 63.75L330 68.25L334.5 63.75" stroke="#FE2F2F" stroke-width="1.5" stroke-linecap="round" stroke-linejoin="round"/>
<path d="M40.376 242.6H41.336V251H40.232V243.8L38.444 244.328L38.168 243.368L40.376 242.6ZM48.4453 249.968C47.8773 250.76 47.0813 251.156 46.0573 251.156C45.0333 251.156 44.2373 250.76 43.6693 249.968C43.1013 249.176 42.8173 248.12 42.8173 246.8C42.8173 245.48 43.1013 244.424 43.6693 243.632C44.2373 242.84 45.0333 242.444 46.0573 242.444C47.0813 242.444 47.8773 242.84 48.4453 243.632C49.0133 244.424 49.2973 245.48 49.2973 246.8C49.2973 248.12 49.0133 249.176 48.4453 249.968ZM44.4853 249.212C44.8533 249.78 45.3773 250.064 46.0573 250.064C46.7373 250.064 47.2613 249.78 47.6293 249.212C48.0053 248.644 48.1933 247.84 48.1933 246.8C48.1933 245.76 48.0053 244.956 47.6293 244.388C47.2613 243.812 46.7373 243.524 46.0573 243.524C45.3773 243.524 44.8533 243.808 44.4853 244.376C44.1173 244.944 43.9333 245.752 43.9333 246.8C43.9333 247.84 44.1173 248.644 44.4853 249.212ZM50.9247 251.132C50.7087 251.132 50.5247 251.056 50.3727 250.904C50.2207 250.752 50.1447 250.568 50.1447 250.352C50.1447 250.136 50.2207 249.952 50.3727 249.8C50.5247 249.648 50.7087 249.572 50.9247 249.572C51.1487 249.572 51.3327 249.648 51.4767 249.8C51.6287 249.952 51.7047 250.136 51.7047 250.352C51.7047 250.568 51.6287 250.752 51.4767 250.904C51.3327 251.056 51.1487 251.132 50.9247 251.132ZM58.1953 249.968C57.6273 250.76 56.8313 251.156 55.8073 251.156C54.7833 251.156 53.9873 250.76 53.4193 249.968C52.8513 249.176 52.5673 248.12 52.5673 246.8C52.5673 245.48 52.8513 244.424 53.4193 243.632C53.9873 242.84 54.7833 242.444 55.8073 242.444C56.8313 242.444 57.6273 242.84 58.1953 243.632C58.7633 244.424 59.0473 245.48 59.0473 246.8C59.0473 248.12 58.7633 249.176 58.1953 249.968ZM54.2353 249.212C54.6033 249.78 55.1273 250.064 55.8073 250.064C56.4873 250.064 57.0113 249.78 57.3793 249.212C57.7553 248.644 57.9433 247.84 57.9433 246.8C57.9433 245.76 57.7553 244.956 57.3793 244.388C57.0113 243.812 56.4873 243.524 55.8073 243.524C55.1273 243.524 54.6033 243.808 54.2353 244.376C53.8673 244.944 53.6833 245.752 53.6833 246.8C53.6833 247.84 53.8673 248.644 54.2353 249.212ZM65.7539 249.968C65.1859 250.76 64.3899 251.156 63.3659 251.156C62.3419 251.156 61.5459 250.76 60.9779 249.968C60.4099 249.176 60.1259 248.12 60.1259 246.8C60.1259 245.48 60.4099 244.424 60.9779 243.632C61.5459 242.84 62.3419 242.444 63.3659 242.444C64.3899 242.444 65.1859 242.84 65.7539 243.632C66.3219 244.424 66.6059 245.48 66.6059 246.8C66.6059 248.12 66.3219 249.176 65.7539 249.968ZM61.7939 249.212C62.1619 249.78 62.6859 250.064 63.3659 250.064C64.0459 250.064 64.5699 249.78 64.9379 249.212C65.3139 248.644 65.5019 247.84 65.5019 246.8C65.5019 245.76 65.3139 244.956 64.9379 244.388C64.5699 243.812 64.0459 243.524 63.3659 243.524C62.6859 243.524 62.1619 243.808 61.7939 244.376C61.4259 244.944 61.2419 245.752 61.2419 246.8C61.2419 247.84 61.4259 248.644 61.7939 249.212Z" fill="#646464"/>
<path d="M110.376 242.6H111.336V251H110.232V243.8L108.444 244.328L108.168 243.368L110.376 242.6ZM118.445 249.968C117.877 250.76 117.081 251.156 116.057 251.156C115.033 251.156 114.237 250.76 113.669 249.968C113.101 249.176 112.817 248.12 112.817 246.8C112.817 245.48 113.101 244.424 113.669 243.632C114.237 242.84 115.033 242.444 116.057 242.444C117.081 242.444 117.877 242.84 118.445 243.632C119.013 244.424 119.297 245.48 119.297 246.8C119.297 248.12 119.013 249.176 118.445 249.968ZM114.485 249.212C114.853 249.78 115.377 250.064 116.057 250.064C116.737 250.064 117.261 249.78 117.629 249.212C118.005 248.644 118.193 247.84 118.193 246.8C118.193 245.76 118.005 244.956 117.629 244.388C117.261 243.812 116.737 243.524 116.057 243.524C115.377 243.524 114.853 243.808 114.485 244.376C114.117 244.944 113.933 245.752 113.933 246.8C113.933 247.84 114.117 248.644 114.485 249.212ZM120.925 251.132C120.709 251.132 120.525 251.056 120.373 250.904C120.221 250.752 120.145 250.568 120.145 250.352C120.145 250.136 120.221 249.952 120.373 249.8C120.525 249.648 120.709 249.572 120.925 249.572C121.149 249.572 121.333 249.648 121.477 249.8C121.629 249.952 121.705 250.136 121.705 250.352C121.705 250.568 121.629 250.752 121.477 250.904C121.333 251.056 121.149 251.132 120.925 251.132ZM126.183 246.044C126.823 246.164 127.347 246.44 127.755 246.872C128.163 247.304 128.367 247.852 128.367 248.516C128.367 249.332 128.087 249.976 127.527 250.448C126.967 250.92 126.287 251.156 125.487 251.156C124.847 251.156 124.279 251.012 123.783 250.724C123.287 250.428 122.935 250.004 122.727 249.452L123.663 248.9C123.911 249.676 124.519 250.064 125.487 250.064C126.007 250.064 126.431 249.928 126.759 249.656C127.087 249.384 127.251 249.004 127.251 248.516C127.251 248.028 127.087 247.648 126.759 247.376C126.431 247.096 126.007 246.956 125.487 246.956H125.199L124.755 246.272L126.699 243.644H122.967V242.6H128.007V243.584L126.183 246.044ZM134.98 249.968C134.413 250.76 133.617 251.156 132.593 251.156C131.569 251.156 130.773 250.76 130.205 249.968C129.637 249.176 129.353 248.12 129.353 246.8C129.353 245.48 129.637 244.424 130.205 243.632C130.773 242.84 131.569 242.444 132.593 242.444C133.617 242.444 134.413 242.84 134.98 243.632C135.549 244.424 135.833 245.48 135.833 246.8C135.833 248.12 135.549 249.176 134.98 249.968ZM131.021 249.212C131.389 249.78 131.913 250.064 132.593 250.064C133.273 250.064 133.797 249.78 134.165 249.212C134.541 248.644 134.729 247.84 134.729 246.8C134.729 245.76 134.541 244.956 134.165 244.388C133.797 243.812 133.273 243.524 132.593 243.524C131.913 243.524 131.389 243.808 131.021 244.376C130.653 244.944 130.469 245.752 130.469 246.8C130.469 247.84 130.653 248.644 131.021 249.212Z" fill="#646464"/>
<path d="M179.376 242.6H180.336V251H179.232V243.8L177.444 244.328L177.168 243.368L179.376 242.6ZM183.653 242.6H184.613V251H183.509V243.8L181.721 244.328L181.445 243.368L183.653 242.6ZM187.007 251.132C186.791 251.132 186.607 251.056 186.455 250.904C186.303 250.752 186.227 250.568 186.227 250.352C186.227 250.136 186.303 249.952 186.455 249.8C186.607 249.648 186.791 249.572 187.007 249.572C187.231 249.572 187.415 249.648 187.559 249.8C187.711 249.952 187.787 250.136 187.787 250.352C187.787 250.568 187.711 250.752 187.559 250.904C187.415 251.056 187.231 251.132 187.007 251.132ZM194.277 249.968C193.709 250.76 192.913 251.156 191.889 251.156C190.865 251.156 190.069 250.76 189.501 249.968C188.933 249.176 188.649 248.12 188.649 246.8C188.649 245.48 188.933 244.424 189.501 243.632C190.069 242.84 190.865 242.444 191.889 242.444C192.913 242.444 193.709 242.84 194.277 243.632C194.845 244.424 195.129 245.48 195.129 246.8C195.129 248.12 194.845 249.176 194.277 249.968ZM190.317 249.212C190.685 249.78 191.209 250.064 191.889 250.064C192.569 250.064 193.093 249.78 193.461 249.212C193.837 248.644 194.025 247.84 194.025 246.8C194.025 245.76 193.837 244.956 193.461 244.388C193.093 243.812 192.569 243.524 191.889 243.524C191.209 243.524 190.685 243.808 190.317 244.376C189.949 244.944 189.765 245.752 189.765 246.8C189.765 247.84 189.949 248.644 190.317 249.212ZM201.836 249.968C201.268 250.76 200.472 251.156 199.448 251.156C198.424 251.156 197.628 250.76 197.06 249.968C196.492 249.176 196.208 248.12 196.208 246.8C196.208 245.48 196.492 244.424 197.06 243.632C197.628 242.84 198.424 242.444 199.448 242.444C200.472 242.444 201.268 242.84 201.836 243.632C202.404 244.424 202.688 245.48 202.688 246.8C202.688 248.12 202.404 249.176 201.836 249.968ZM197.876 249.212C198.244 249.78 198.768 250.064 199.448 250.064C200.128 250.064 200.652 249.78 201.02 249.212C201.396 248.644 201.584 247.84 201.584 246.8C201.584 245.76 201.396 244.956 201.02 244.388C200.652 243.812 200.128 243.524 199.448 243.524C198.768 243.524 198.244 243.808 197.876 244.376C197.508 244.944 197.324 245.752 197.324 246.8C197.324 247.84 197.508 248.644 197.876 249.212Z" fill="#646464"/>
<path d="M246.376 242.6H247.336V251H246.232V243.8L244.444 244.328L244.168 243.368L246.376 242.6ZM250.653 242.6H251.613V251H250.509V243.8L248.721 244.328L248.445 243.368L250.653 242.6ZM254.007 251.132C253.791 251.132 253.607 251.056 253.455 250.904C253.303 250.752 253.227 250.568 253.227 250.352C253.227 250.136 253.303 249.952 253.455 249.8C253.607 249.648 253.791 249.572 254.007 249.572C254.231 249.572 254.415 249.648 254.559 249.8C254.711 249.952 254.787 250.136 254.787 250.352C254.787 250.568 254.711 250.752 254.559 250.904C254.415 251.056 254.231 251.132 254.007 251.132ZM259.265 246.044C259.905 246.164 260.429 246.44 260.837 246.872C261.245 247.304 261.449 247.852 261.449 248.516C261.449 249.332 261.169 249.976 260.609 250.448C260.049 250.92 259.369 251.156 258.569 251.156C257.929 251.156 257.361 251.012 256.865 250.724C256.369 250.428 256.017 250.004 255.809 249.452L256.745 248.9C256.993 249.676 257.601 250.064 258.569 250.064C259.089 250.064 259.513 249.928 259.841 249.656C260.169 249.384 260.333 249.004 260.333 248.516C260.333 248.028 260.169 247.648 259.841 247.376C259.513 247.096 259.089 246.956 258.569 246.956H258.281L257.837 246.272L259.781 243.644H256.049V242.6H261.089V243.584L259.265 246.044ZM268.063 249.968C267.495 250.76 266.699 251.156 265.675 251.156C264.651 251.156 263.855 250.76 263.287 249.968C262.719 249.176 262.435 248.12 262.435 246.8C262.435 245.48 262.719 244.424 263.287 243.632C263.855 242.84 264.651 242.444 265.675 242.444C266.699 242.444 267.495 242.84 268.063 243.632C268.631 244.424 268.915 245.48 268.915 246.8C268.915 248.12 268.631 249.176 268.063 249.968ZM264.103 249.212C264.471 249.78 264.995 250.064 265.675 250.064C266.355 250.064 266.879 249.78 267.247 249.212C267.623 248.644 267.811 247.84 267.811 246.8C267.811 245.76 267.623 244.956 267.247 244.388C266.879 243.812 266.355 243.524 265.675 243.524C264.995 243.524 264.471 243.808 264.103 244.376C263.735 244.944 263.551 245.752 263.551 246.8C263.551 247.84 263.735 248.644 264.103 249.212Z" fill="#646464"/>
<path d="M312.376 242.6H313.336V251H312.232V243.8L310.444 244.328L310.168 243.368L312.376 242.6ZM314.709 251V250.088L317.673 247.064C318.465 246.272 318.861 245.592 318.861 245.024C318.861 244.552 318.717 244.184 318.429 243.92C318.141 243.656 317.789 243.524 317.373 243.524C316.581 243.524 316.005 243.9 315.645 244.652L314.709 244.1C314.973 243.556 315.337 243.144 315.801 242.864C316.273 242.584 316.793 242.444 317.361 242.444C318.065 242.444 318.677 242.676 319.197 243.14C319.717 243.604 319.977 244.228 319.977 245.012C319.977 245.86 319.477 246.784 318.477 247.784L316.329 249.92H320.133V251H314.709ZM322.057 251.132C321.841 251.132 321.657 251.056 321.505 250.904C321.353 250.752 321.277 250.568 321.277 250.352C321.277 250.136 321.353 249.952 321.505 249.8C321.657 249.648 321.841 249.572 322.057 249.572C322.281 249.572 322.465 249.648 322.609 249.8C322.761 249.952 322.837 250.136 322.837 250.352C322.837 250.568 322.761 250.752 322.609 250.904C322.465 251.056 322.281 251.132 322.057 251.132ZM327.315 246.044C327.955 246.164 328.479 246.44 328.887 246.872C329.295 247.304 329.499 247.852 329.499 248.516C329.499 249.332 329.219 249.976 328.659 250.448C328.099 250.92 327.419 251.156 326.619 251.156C325.979 251.156 325.411 251.012 324.915 250.724C324.419 250.428 324.067 250.004 323.859 249.452L324.795 248.9C325.043 249.676 325.651 250.064 326.619 250.064C327.139 250.064 327.563 249.928 327.891 249.656C328.219 249.384 328.383 249.004 328.383 248.516C328.383 248.028 328.219 247.648 327.891 247.376C327.563 247.096 327.139 246.956 326.619 246.956H326.331L325.887 246.272L327.831 243.644H324.099V242.6H329.139V243.584L327.315 246.044ZM336.113 249.968C335.545 250.76 334.749 251.156 333.725 251.156C332.701 251.156 331.905 250.76 331.337 249.968C330.769 249.176 330.485 248.12 330.485 246.8C330.485 245.48 330.769 244.424 331.337 243.632C331.905 242.84 332.701 242.444 333.725 242.444C334.749 242.444 335.545 242.84 336.113 243.632C336.681 244.424 336.965 245.48 336.965 246.8C336.965 248.12 336.681 249.176 336.113 249.968ZM332.153 249.212C332.521 249.78 333.045 250.064 333.725 250.064C334.405 250.064 334.929 249.78 335.297 249.212C335.673 248.644 335.861 247.84 335.861 246.8C335.861 245.76 335.673 244.956 335.297 244.388C334.929 243.812 334.405 243.524 333.725 243.524C333.045 243.524 332.521 243.808 332.153 244.376C331.785 244.944 331.601 245.752 331.601 246.8C331.601 247.84 331.785 248.644 332.153 249.212Z" fill="#646464"/>
<path d="M54.2174 217.708C48.7284 217.708 43.2394 220.907 40.6071 222.689C39.5665 223.393 39 224.585 39 225.841C39 228.138 40.862 230 43.1589 230H331.912C335.827 230 339 226.827 339 222.912V166.683C339 162.753 329.427 163.42 325.496 163.42C317.888 163.42 315.087 130.643 306.391 130.643C298.783 130.643 297.409 112.102 289.8 112.102C282.191 112.102 287.112 130.643 278.416 130.643C271.74 130.643 264.549 170.012 259.826 157.519C258.061 152.847 254.45 147.333 252.899 142.587C250.236 134.439 248.989 121.424 243.015 121.424C235.406 121.424 235.739 158.299 228.13 158.299C220.522 158.299 223.783 171.615 215.087 171.615C207.478 171.615 208.109 101.5 200.5 101.5C191.804 101.5 184.609 163.42 177 163.42C169.391 163.42 172.696 179.809 165.087 179.809C156.391 179.809 156.409 192.101 148.8 192.101H133.565C124.87 192.101 125.957 204.392 118.348 204.392C111.137 204.392 114.766 207.691 103.967 203.166C102.702 202.636 101.3 202.227 99.986 202.622C93.9136 204.449 96.3267 214.635 89.4 214.635C81.7913 214.635 79.6087 204.392 72 204.392C63.3043 204.392 61.8261 217.708 54.2174 217.708Z" fill="url(#paint0_linear_302_2)" fill-opacity="0.8"/>
<line x1="261.5" y1="156" x2="261.5" y2="230" stroke="white"/>
<circle cx="261" cy="156" r="3.5" fill="#001343" stroke="url(#paint1_angular_302_2)"/>
<rect x="21" y="19" width="335" height="262" rx="11" stroke="#F3F6FF" stroke-width="2"/>
</g>
<defs>
<filter id="filter0_d_302_2" x="0" y="0" width="377" height="304" filterUnits="userSpaceOnUse" color-interpolation-filters="sRGB">
<feFlood flood-opacity="0" result="BackgroundImageFix"/>
<feColorMatrix in="SourceAlpha" type="matrix" values="0 0 0 0 0 0 0 0 0 0 0 0 0 0 0 0 0 0 127 0" result="hardAlpha"/>
<feOffset dy="2"/>
<feGaussianBlur stdDeviation="10"/>
<feComposite in2="hardAlpha" operator="out"/>
<feColorMatrix type="matrix" values="0 0 0 0 0.472667 0 0 0 0 0.678373 0 0 0 0 0.827333 0 0 0 0.08 0"/>
<feBlend mode="normal" in2="BackgroundImageFix" result="effect1_dropShadow_302_2"/>
<feBlend mode="normal" in="SourceGraphic" in2="effect1_dropShadow_302_2" result="shape"/>
</filter>
<linearGradient id="paint0_linear_302_2" x1="166.2" y1="137.813" x2="170.752" y2="246.241" gradientUnits="userSpaceOnUse">
<stop stop-color="#678EFF"/>
<stop offset="1" stop-color="#7E91D5" stop-opacity="0"/>
</linearGradient>
<radialGradient id="paint1_angular_302_2" cx="0" cy="0" r="1" gradientUnits="userSpaceOnUse" gradientTransform="translate(260.2 156.686) rotate(34.6242) scale(5.83305 5.27844)">
<stop stop-color="#00FFFF"/>
<stop offset="1" stop-color="#698AFF"/>
</radialGradient>
</defs>
</svg>
