<svg width="22" height="22" viewBox="0 0 22 22" fill="none" xmlns="http://www.w3.org/2000/svg">
<path d="M4.58333 18.3333C4.58333 18.8196 4.77649 19.2859 5.1203 19.6297C5.46412 19.9735 5.93044 20.1667 6.41667 20.1667H15.5833C16.0696 20.1667 16.5359 19.9735 16.8797 19.6297C17.2235 19.2859 17.4167 18.8196 17.4167 18.3333V7.33334H19.25V5.5H15.5833V3.66667C15.5833 3.18044 15.3902 2.71412 15.0464 2.37031C14.7025 2.02649 14.2362 1.83334 13.75 1.83334H8.25C7.76377 1.83334 7.29745 2.02649 6.95364 2.37031C6.60982 2.71412 6.41667 3.18044 6.41667 3.66667V5.5H2.75V7.33334H4.58333V18.3333ZM8.25 3.66667H13.75V5.5H8.25V3.66667ZM7.33333 7.33334H15.5833V18.3333H6.41667V7.33334H7.33333Z" fill="#F85E5E"/>
<path d="M8.25 9.16666H10.0833V16.5H8.25V9.16666ZM11.9167 9.16666H13.75V16.5H11.9167V9.16666Z" fill="#F85E5E"/>
</svg>
