<svg width="22" height="22" viewBox="0 0 22 22" fill="none" xmlns="http://www.w3.org/2000/svg">
<path d="M2.75 14.6667C2.75 15.6777 3.57225 16.5 4.58333 16.5H7.8705L11 19.6295L14.1295 16.5H17.4167C18.4278 16.5 19.25 15.6777 19.25 14.6667V3.66667C19.25 2.65558 18.4278 1.83333 17.4167 1.83333H4.58333C3.57225 1.83333 2.75 2.65558 2.75 3.66667V14.6667ZM4.58333 3.66667H17.4167V14.6667H13.3705L11 17.0372L8.6295 14.6667H4.58333V3.66667Z" fill="#001343"/>
<path d="M10.0835 12.8333H11.9168V10.0833H14.6668V8.25H11.9168V5.5H10.0835V8.25H7.3335V10.0833H10.0835V12.8333Z" fill="#001343"/>
</svg>
