<svg width="140" height="129" viewBox="0 0 140 129" fill="none" xmlns="http://www.w3.org/2000/svg">
<circle cx="62.4045" cy="64.8202" r="62.3202" fill="url(#paint0_linear_78:112)"/>
<circle cx="75.0842" cy="64.5" r="64" fill="url(#paint1_linear_78:112)"/>
<path d="M50.748 63.4501C50.6834 63.1319 50.8269 62.8078 51.1057 62.6416L83.0648 43.5909C83.5173 43.3212 84.1006 43.5793 84.2053 44.0956L85.7629 51.7763C85.8275 52.0944 85.684 52.4186 85.4052 52.5848L53.4461 71.6354C52.9936 71.9052 52.4103 71.647 52.3056 71.1308L50.748 63.4501Z" fill="url(#paint2_linear_78:112)"/>
<path d="M64.8368 72.8411C64.7723 72.523 64.9158 72.1988 65.1946 72.0326L97.1536 52.982C97.6061 52.7122 98.1895 52.9703 98.2942 53.4866L99.8518 61.1673C99.9163 61.4854 99.7729 61.8096 99.4941 61.9758L67.535 81.0264C67.0825 81.2962 66.4992 81.0381 66.3945 80.5218L64.8368 72.8411Z" fill="url(#paint3_linear_78:112)"/>
<defs>
<linearGradient id="paint0_linear_78:112" x1="62.4045" y1="2.5" x2="62.4045" y2="127.14" gradientUnits="userSpaceOnUse">
<stop stop-color="#00A8FE"/>
<stop offset="1" stop-opacity="0"/>
</linearGradient>
<linearGradient id="paint1_linear_78:112" x1="75.0842" y1="0.5" x2="75.0842" y2="128.5" gradientUnits="userSpaceOnUse">
<stop stop-color="#00FFFF"/>
<stop offset="1" stop-color="#3ABFFF"/>
</linearGradient>
<linearGradient id="paint2_linear_78:112" x1="65.9708" y1="53.7805" x2="70.5401" y2="61.4458" gradientUnits="userSpaceOnUse">
<stop stop-color="white"/>
<stop offset="1" stop-color="white" stop-opacity="0.73"/>
</linearGradient>
<linearGradient id="paint3_linear_78:112" x1="80.0597" y1="63.1716" x2="84.6289" y2="70.8368" gradientUnits="userSpaceOnUse">
<stop stop-color="white"/>
<stop offset="1" stop-color="white" stop-opacity="0.73"/>
</linearGradient>
</defs>
</svg>
