
    <svg
      width="316"
      height="160"
      viewBox="0 0 316 160"
      fill="none"
      xmlns="http://www.w3.org/2000/svg"
    >
      <path
        d="M7.9649 29.8146C7.87134 29.3533 8.07936 28.8831 8.48371 28.6421L53.6937 1.69271C54.3499 1.30154 55.1958 1.67584 55.3476 2.42456L57.5425 13.2471C57.636 13.7084 57.428 14.1786 57.0237 14.4196L11.8137 41.369C11.1575 41.7602 10.3116 41.3859 10.1597 40.6371L7.9649 29.8146Z"
        fill="url(#paint0_angular_78_148)"
      />
      <path
        d="M27.9182 43.1166C27.8246 42.6552 28.0326 42.1851 28.437 41.9441L73.6469 14.9947C74.3031 14.6035 75.1491 14.9778 75.3009 15.7265L77.4957 26.5491C77.5893 27.0104 77.3812 27.4805 76.9769 27.7216L31.767 54.671C31.1107 55.0621 30.2648 54.6878 30.113 53.9391L27.9182 43.1166Z"
        fill="url(#paint1_angular_78_148)"
      />
      <g filter="url(#filter0_d_78_148)">
        <path
          d="M32.1052 71.758H40.027V114.744H32.1052V111.121C29.7716 114.11 26.4556 115.604 22.1569 115.604C18.022 115.604 14.4808 114.048 11.5332 110.937C8.62646 107.785 7.17311 103.936 7.17311 99.3921C7.17311 94.8478 8.62646 91.02 11.5332 87.9086C14.4808 84.7562 18.022 83.1801 22.1569 83.1801C26.4556 83.1801 29.7716 84.6744 32.1052 87.6629V71.758ZM17.4898 105.656C19.1274 107.252 21.1744 108.051 23.6307 108.051C26.0871 108.051 28.1136 107.252 29.7102 105.656C31.3069 104.018 32.1052 101.93 32.1052 99.3921C32.1052 96.8538 31.3069 94.7864 29.7102 93.1898C28.1136 91.5522 26.0871 90.7334 23.6307 90.7334C21.1744 90.7334 19.1274 91.5522 17.4898 93.1898C15.8932 94.7864 15.0949 96.8538 15.0949 99.3921C15.0949 101.93 15.8932 104.018 17.4898 105.656Z"
          fill="white"
        />
      </g>
      <g filter="url(#filter1_d_78_148)">
        <path
          d="M60.1355 79.4395H52.5207L45.7043 71.0265H55.2227L60.1355 79.4395ZM47.5466 102.161C48.611 106.009 51.4973 107.933 56.2053 107.933C59.2348 107.933 61.5274 106.91 63.0831 104.863L69.4696 108.547C66.4401 112.928 61.9777 115.118 56.0825 115.118C51.006 115.118 46.9325 113.583 43.8621 110.512C40.7916 107.442 39.2564 103.573 39.2564 98.9062C39.2564 94.28 40.7711 90.4317 43.8007 87.3613C46.8302 84.2499 50.7194 82.6942 55.4684 82.6942C59.9717 82.6942 63.6767 84.2499 66.5834 87.3613C69.531 90.4727 71.0049 94.321 71.0049 98.9062C71.0049 99.9297 70.9025 101.015 70.6978 102.161H47.5466ZM47.4238 96.02H63.0831C62.6328 93.932 61.6912 92.3763 60.2583 91.3529C58.8663 90.3294 57.2697 89.8176 55.4684 89.8176C53.3395 89.8176 51.5791 90.3703 50.1872 91.4757C48.7953 92.5401 47.8741 94.0549 47.4238 96.02Z"
          fill="white"
        />
      </g>
      <g filter="url(#filter2_d_78_148)">
        <path
          d="M103.832 83.5539H112.245L102.481 114.258H94.9277L89.2781 95.6515L83.6284 114.258H76.0751L66.3111 83.5539H74.7241L79.9439 102.406L85.5321 83.5539H93.024L98.6122 102.468L103.832 83.5539Z"
          fill="white"
        />
      </g>
      <g filter="url(#filter3_d_78_148)">
        <path
          d="M133.287 83.5539H141.209V114.258H133.287V110.635C130.912 113.624 127.576 115.118 123.277 115.118C119.183 115.118 115.663 113.562 112.715 110.451C109.808 107.299 108.355 103.45 108.355 98.9062C108.355 94.3619 109.808 90.5341 112.715 87.4227C115.663 84.2704 119.183 82.6942 123.277 82.6942C127.576 82.6942 130.912 84.1885 133.287 87.177V83.5539ZM118.672 105.17C120.268 106.767 122.295 107.565 124.751 107.565C127.207 107.565 129.234 106.767 130.831 105.17C132.468 103.532 133.287 101.444 133.287 98.9062C133.287 96.3679 132.468 94.3005 130.831 92.7039C129.234 91.0663 127.207 90.2475 124.751 90.2475C122.295 90.2475 120.268 91.0663 118.672 92.7039C117.075 94.3005 116.277 96.3679 116.277 98.9062C116.277 101.444 117.075 103.532 118.672 105.17Z"
          fill="white"
        />
      </g>
      <g filter="url(#filter4_d_78_148)">
        <path d="M146.1 114.258V69.4298H154.021V114.258H146.1Z" fill="white" />
      </g>
      <g filter="url(#filter5_d_78_148)">
        <path
          d="M159.378 114.258V69.4298H167.3V114.258H159.378Z"
          fill="white"
        />
      </g>
      <g filter="url(#filter6_d_78_148)">
        <path
          d="M174.554 92.274C174.554 93.0928 175.087 93.7683 176.151 94.3005C177.256 94.7918 178.587 95.2421 180.143 95.6515C181.698 96.02 183.254 96.5112 184.81 97.1253C186.365 97.6985 187.675 98.681 188.74 100.073C189.845 101.465 190.398 103.205 190.398 105.293C190.398 108.445 189.211 110.881 186.836 112.6C184.503 114.279 181.575 115.118 178.055 115.118C171.75 115.118 167.451 112.682 165.159 107.81L172.037 103.942C172.937 106.603 174.943 107.933 178.055 107.933C180.879 107.933 182.292 107.053 182.292 105.293C182.292 104.474 181.739 103.819 180.634 103.328C179.569 102.795 178.259 102.325 176.704 101.915C175.148 101.506 173.592 100.994 172.037 100.38C170.481 99.7659 169.15 98.8038 168.045 97.4938C166.981 96.1428 166.448 94.4643 166.448 92.4582C166.448 89.4287 167.554 87.0542 169.764 85.3348C172.016 83.5744 174.8 82.6942 178.116 82.6942C180.613 82.6942 182.886 83.2673 184.932 84.4136C186.979 85.519 188.597 87.1156 189.784 89.2035L183.029 92.8881C182.046 90.8002 180.409 89.7562 178.116 89.7562C177.093 89.7562 176.233 89.9814 175.537 90.4317C174.882 90.8821 174.554 91.4962 174.554 92.274Z"
          fill="white"
        />
      </g>
      <g filter="url(#filter7_d_78_148)">
        <path
          d="M208.718 91.1686H201.779V103.942C201.779 105.006 202.045 105.784 202.577 106.275C203.109 106.767 203.887 107.053 204.911 107.135C205.934 107.176 207.203 107.155 208.718 107.074V114.258C203.273 114.873 199.425 114.361 197.173 112.723C194.963 111.086 193.857 108.158 193.857 103.942V91.1686H188.515V83.5539H193.857V77.3516L201.779 74.9566V83.5539H208.718V91.1686Z"
          fill="white"
        />
      </g>
      <g filter="url(#filter8_d_78_148)">
        <path
          d="M219.609 88.8351C220.346 86.87 221.553 85.3962 223.232 84.4136C224.951 83.4311 226.855 82.9398 228.943 82.9398V91.7827C226.527 91.4962 224.358 91.9874 222.433 93.2565C220.55 94.5257 219.609 96.634 219.609 99.5817V114.258H211.687V83.5539H219.609V88.8351Z"
          fill="white"
        />
      </g>
      <g filter="url(#filter9_d_78_148)">
        <path
          d="M237.019 102.161C238.084 106.009 240.97 107.933 245.678 107.933C248.708 107.933 251 106.91 252.556 104.863L258.942 108.547C255.913 112.928 251.451 115.118 245.555 115.118C240.479 115.118 236.405 113.583 233.335 110.512C230.264 107.442 228.729 103.573 228.729 98.9062C228.729 94.28 230.244 90.4317 233.273 87.3613C236.303 84.2499 240.192 82.6942 244.941 82.6942C249.444 82.6942 253.149 84.2499 256.056 87.3613C259.004 90.4727 260.478 94.321 260.478 98.9062C260.478 99.9297 260.375 101.015 260.171 102.161H237.019ZM236.897 96.02H252.556C252.106 93.932 251.164 92.3763 249.731 91.3529C248.339 90.3294 246.742 89.8176 244.941 89.8176C242.812 89.8176 241.052 90.3703 239.66 91.4757C238.268 92.5401 237.347 94.0549 236.897 96.02Z"
          fill="white"
        />
      </g>
      <g filter="url(#filter10_d_78_148)">
        <path
          d="M269.194 102.161C270.258 106.009 273.145 107.933 277.853 107.933C280.882 107.933 283.175 106.91 284.731 104.863L291.117 108.547C288.088 112.928 283.625 115.118 277.73 115.118C272.653 115.118 268.58 113.583 265.51 110.512C262.439 107.442 260.904 103.573 260.904 98.9062C260.904 94.28 262.419 90.4317 265.448 87.3613C268.478 84.2499 272.367 82.6942 277.116 82.6942C281.619 82.6942 285.324 84.2499 288.231 87.3613C291.179 90.4727 292.652 94.321 292.652 98.9062C292.652 99.9297 292.55 101.015 292.345 102.161H269.194ZM269.071 96.02H284.731C284.28 93.932 283.339 92.3763 281.906 91.3529C280.514 90.3294 278.917 89.8176 277.116 89.8176C274.987 89.8176 273.227 90.3703 271.835 91.4757C270.443 92.5401 269.522 94.0549 269.071 96.02Z"
          fill="white"
        />
      </g>
      <g filter="url(#filter11_d_78_148)">
        <path
          d="M310.86 91.1686H303.921V103.942C303.921 105.006 304.187 105.784 304.719 106.275C305.251 106.767 306.029 107.053 307.052 107.135C308.076 107.176 309.345 107.155 310.86 107.074V114.258C305.415 114.873 301.567 114.361 299.315 112.723C297.104 111.086 295.999 108.158 295.999 103.942V91.1686H290.656V83.5539H295.999V77.3516L303.921 74.9566V83.5539H310.86V91.1686Z"
          fill="white"
        />
      </g>
      <g filter="url(#filter12_d_78_148)">
        <path
          d="M9.68871 135.65C10.2756 137.772 11.8671 138.833 14.4632 138.833C16.1337 138.833 17.3978 138.269 18.2556 137.14L21.7772 139.172C20.1067 141.587 17.6461 142.795 14.3954 142.795C11.5962 142.795 9.3501 141.949 7.65703 140.256C5.96396 138.563 5.11743 136.429 5.11743 133.856C5.11743 131.305 5.95267 129.183 7.62317 127.49C9.29366 125.774 11.4382 124.916 14.0568 124.916C16.54 124.916 18.583 125.774 20.1857 127.49C21.8111 129.205 22.6238 131.327 22.6238 133.856C22.6238 134.42 22.5673 135.018 22.4544 135.65H9.68871ZM9.62099 132.264H18.2556C18.0073 131.113 17.4881 130.255 16.698 129.691C15.9305 129.126 15.0501 128.844 14.0568 128.844C12.883 128.844 11.9123 129.149 11.1448 129.759C10.3772 130.345 9.8693 131.181 9.62099 132.264ZM40.3243 142.321H35.2789L31.6219 137.174L27.931 142.321H22.8857L29.0823 133.686L23.1565 125.39H28.2019L31.6219 130.165L35.0419 125.39H40.0534L34.1276 133.653L40.3243 142.321ZM49.3732 142.795C46.8223 142.795 44.689 141.937 42.9734 140.222C41.2803 138.506 40.4338 136.384 40.4338 133.856C40.4338 131.327 41.2803 129.205 42.9734 127.49C44.689 125.774 46.8223 124.916 49.3732 124.916C51.0211 124.916 52.5223 125.311 53.8767 126.102C55.2312 126.892 56.2583 127.953 56.9581 129.285L53.1995 131.485C52.8609 130.786 52.3417 130.233 51.6419 129.826C50.9647 129.42 50.1971 129.217 49.3393 129.217C48.03 129.217 46.9464 129.657 46.0886 130.537C45.2308 131.395 44.8019 132.501 44.8019 133.856C44.8019 135.188 45.2308 136.294 46.0886 137.174C46.9464 138.032 48.03 138.461 49.3393 138.461C50.2197 138.461 50.9985 138.269 51.6758 137.885C52.3756 137.479 52.8948 136.926 53.2334 136.226L57.0259 138.393C56.2809 139.725 55.2312 140.797 53.8767 141.61C52.5223 142.4 51.0211 142.795 49.3732 142.795ZM68.7496 124.916C70.6007 124.916 72.1244 125.537 73.3208 126.779C74.5399 128.02 75.1494 129.736 75.1494 131.926V142.321H70.7812V132.467C70.7812 131.339 70.4765 130.481 69.867 129.894C69.2575 129.285 68.4448 128.98 67.429 128.98C66.3003 128.98 65.3973 129.33 64.7201 130.029C64.0428 130.729 63.7042 131.779 63.7042 133.179V142.321H59.3361V118.618H63.7042V127.287C64.7652 125.706 66.447 124.916 68.7496 124.916ZM91.7465 125.39H96.1146V142.321H91.7465V140.323C90.4372 141.971 88.5974 142.795 86.2271 142.795C83.9696 142.795 82.0282 141.937 80.4029 140.222C78.8001 138.484 77.9987 136.362 77.9987 133.856C77.9987 131.35 78.8001 129.239 80.4029 127.524C82.0282 125.785 83.9696 124.916 86.2271 124.916C88.5974 124.916 90.4372 125.74 91.7465 127.388V125.39ZM83.6875 137.31C84.5678 138.19 85.6853 138.63 87.0397 138.63C88.3942 138.63 89.5116 138.19 90.392 137.31C91.295 136.407 91.7465 135.255 91.7465 133.856C91.7465 132.456 91.295 131.316 90.392 130.436C89.5116 129.533 88.3942 129.081 87.0397 129.081C85.6853 129.081 84.5678 129.533 83.6875 130.436C82.8071 131.316 82.3669 132.456 82.3669 133.856C82.3669 135.255 82.8071 136.407 83.6875 137.31ZM109.489 124.916C111.34 124.916 112.864 125.537 114.06 126.779C115.279 128.02 115.889 129.736 115.889 131.926V142.321H111.521V132.467C111.521 131.339 111.216 130.481 110.606 129.894C109.997 129.285 109.184 128.98 108.168 128.98C107.04 128.98 106.137 129.33 105.46 130.029C104.782 130.729 104.444 131.779 104.444 133.179V142.321H100.076V125.39H104.444V127.287C105.505 125.706 107.186 124.916 109.489 124.916ZM132.588 125.39H136.854V141.508C136.854 144.127 135.985 146.125 134.247 147.502C132.531 148.879 130.454 149.567 128.016 149.567C126.188 149.567 124.574 149.218 123.174 148.518C121.797 147.818 120.736 146.791 119.991 145.436L123.716 143.303C124.574 144.883 126.052 145.673 128.152 145.673C129.529 145.673 130.612 145.312 131.402 144.59C132.192 143.867 132.588 142.84 132.588 141.508V139.68C131.301 141.396 129.495 142.253 127.17 142.253C124.777 142.253 122.768 141.418 121.142 139.748C119.54 138.055 118.738 136 118.738 133.585C118.738 131.192 119.551 129.149 121.176 127.456C122.802 125.763 124.799 124.916 127.17 124.916C129.495 124.916 131.301 125.774 132.588 127.49V125.39ZM124.427 136.937C125.33 137.795 126.47 138.224 127.847 138.224C129.224 138.224 130.353 137.795 131.233 136.937C132.136 136.057 132.588 134.939 132.588 133.585C132.588 132.253 132.136 131.158 131.233 130.3C130.353 129.42 129.224 128.98 127.847 128.98C126.47 128.98 125.33 129.42 124.427 130.3C123.547 131.158 123.106 132.253 123.106 133.585C123.106 134.939 123.547 136.057 124.427 136.937ZM144.506 135.65C145.093 137.772 146.684 138.833 149.28 138.833C150.951 138.833 152.215 138.269 153.073 137.14L156.594 139.172C154.924 141.587 152.463 142.795 149.213 142.795C146.413 142.795 144.167 141.949 142.474 140.256C140.781 138.563 139.935 136.429 139.935 133.856C139.935 131.305 140.77 129.183 142.44 127.49C144.111 125.774 146.255 124.916 148.874 124.916C151.357 124.916 153.4 125.774 155.003 127.49C156.628 129.205 157.441 131.327 157.441 133.856C157.441 134.42 157.385 135.018 157.272 135.65H144.506ZM144.438 132.264H153.073C152.825 131.113 152.305 130.255 151.515 129.691C150.748 129.126 149.867 128.844 148.874 128.844C147.7 128.844 146.729 129.149 145.962 129.759C145.194 130.345 144.687 131.181 144.438 132.264ZM163.858 130.199C163.858 130.65 164.152 131.023 164.739 131.316C165.348 131.587 166.082 131.835 166.94 132.061C167.798 132.264 168.656 132.535 169.513 132.874C170.371 133.19 171.094 133.732 171.68 134.499C172.29 135.267 172.595 136.226 172.595 137.377C172.595 139.116 171.94 140.459 170.631 141.407C169.344 142.332 167.73 142.795 165.789 142.795C162.312 142.795 159.942 141.452 158.678 138.766L162.47 136.632C162.967 138.1 164.073 138.833 165.789 138.833C167.346 138.833 168.125 138.348 168.125 137.377C168.125 136.926 167.82 136.565 167.211 136.294C166.624 136 165.901 135.741 165.044 135.515C164.186 135.289 163.328 135.007 162.47 134.668C161.612 134.33 160.879 133.799 160.269 133.077C159.682 132.332 159.389 131.406 159.389 130.3C159.389 128.63 159.998 127.321 161.217 126.372C162.459 125.402 163.994 124.916 165.822 124.916C167.199 124.916 168.452 125.232 169.581 125.865C170.71 126.474 171.601 127.354 172.256 128.506L168.531 130.537C167.99 129.386 167.087 128.81 165.822 128.81C165.258 128.81 164.784 128.935 164.4 129.183C164.039 129.431 163.858 129.77 163.858 130.199ZM179.777 141.915C179.212 142.479 178.535 142.761 177.745 142.761C176.955 142.761 176.278 142.479 175.713 141.915C175.149 141.35 174.867 140.673 174.867 139.883C174.867 139.093 175.149 138.416 175.713 137.851C176.278 137.287 176.955 137.005 177.745 137.005C178.535 137.005 179.212 137.287 179.777 137.851C180.341 138.416 180.623 139.093 180.623 139.883C180.623 140.673 180.341 141.35 179.777 141.915Z"
          fill="white"
        />
      </g>
      <defs>
        <filter
          id="filter0_d_78_148"
          x="2.33576"
          y="71.758"
          width="42.5286"
          height="53.5207"
          filterUnits="userSpaceOnUse"
          color-interpolation-filters="sRGB"
        >
          <feFlood flood-opacity="0" result="BackgroundImageFix" />
          <feColorMatrix
            in="SourceAlpha"
            type="matrix"
            values="0 0 0 0 0 0 0 0 0 0 0 0 0 0 0 0 0 0 127 0"
            result="hardAlpha"
          />
          <feOffset dy="4.83734" />
          <feGaussianBlur stdDeviation="2.41867" />
          <feComposite in2="hardAlpha" operator="out" />
          <feColorMatrix
            type="matrix"
            values="0 0 0 0 0 0 0 0 0 0 0 0 0 0 0 0 0 0 0.25 0"
          />
          <feBlend
            mode="normal"
            in2="BackgroundImageFix"
            result="effect1_dropShadow_78_148"
          />
          <feBlend
            mode="normal"
            in="SourceGraphic"
            in2="effect1_dropShadow_78_148"
            result="shape"
          />
        </filter>
        <filter
          id="filter1_d_78_148"
          x="34.419"
          y="71.0265"
          width="41.4232"
          height="53.7664"
          filterUnits="userSpaceOnUse"
          color-interpolation-filters="sRGB"
        >
          <feFlood flood-opacity="0" result="BackgroundImageFix" />
          <feColorMatrix
            in="SourceAlpha"
            type="matrix"
            values="0 0 0 0 0 0 0 0 0 0 0 0 0 0 0 0 0 0 127 0"
            result="hardAlpha"
          />
          <feOffset dy="4.83734" />
          <feGaussianBlur stdDeviation="2.41867" />
          <feComposite in2="hardAlpha" operator="out" />
          <feColorMatrix
            type="matrix"
            values="0 0 0 0 0 0 0 0 0 0 0 0 0 0 0 0 0 0 0.25 0"
          />
          <feBlend
            mode="normal"
            in2="BackgroundImageFix"
            result="effect1_dropShadow_78_148"
          />
          <feBlend
            mode="normal"
            in="SourceGraphic"
            in2="effect1_dropShadow_78_148"
            result="shape"
          />
        </filter>
        <filter
          id="filter2_d_78_148"
          x="61.4737"
          y="83.5539"
          width="55.6086"
          height="40.3792"
          filterUnits="userSpaceOnUse"
          color-interpolation-filters="sRGB"
        >
          <feFlood flood-opacity="0" result="BackgroundImageFix" />
          <feColorMatrix
            in="SourceAlpha"
            type="matrix"
            values="0 0 0 0 0 0 0 0 0 0 0 0 0 0 0 0 0 0 127 0"
            result="hardAlpha"
          />
          <feOffset dy="4.83734" />
          <feGaussianBlur stdDeviation="2.41867" />
          <feComposite in2="hardAlpha" operator="out" />
          <feColorMatrix
            type="matrix"
            values="0 0 0 0 0 0 0 0 0 0 0 0 0 0 0 0 0 0 0.25 0"
          />
          <feBlend
            mode="normal"
            in2="BackgroundImageFix"
            result="effect1_dropShadow_78_148"
          />
          <feBlend
            mode="normal"
            in="SourceGraphic"
            in2="effect1_dropShadow_78_148"
            result="shape"
          />
        </filter>
        <filter
          id="filter3_d_78_148"
          x="103.518"
          y="82.6942"
          width="42.5286"
          height="42.0987"
          filterUnits="userSpaceOnUse"
          color-interpolation-filters="sRGB"
        >
          <feFlood flood-opacity="0" result="BackgroundImageFix" />
          <feColorMatrix
            in="SourceAlpha"
            type="matrix"
            values="0 0 0 0 0 0 0 0 0 0 0 0 0 0 0 0 0 0 127 0"
            result="hardAlpha"
          />
          <feOffset dy="4.83734" />
          <feGaussianBlur stdDeviation="2.41867" />
          <feComposite in2="hardAlpha" operator="out" />
          <feColorMatrix
            type="matrix"
            values="0 0 0 0 0 0 0 0 0 0 0 0 0 0 0 0 0 0 0.25 0"
          />
          <feBlend
            mode="normal"
            in2="BackgroundImageFix"
            result="effect1_dropShadow_78_148"
          />
          <feBlend
            mode="normal"
            in="SourceGraphic"
            in2="effect1_dropShadow_78_148"
            result="shape"
          />
        </filter>
        <filter
          id="filter4_d_78_148"
          x="141.262"
          y="69.4298"
          width="17.5964"
          height="54.5033"
          filterUnits="userSpaceOnUse"
          color-interpolation-filters="sRGB"
        >
          <feFlood flood-opacity="0" result="BackgroundImageFix" />
          <feColorMatrix
            in="SourceAlpha"
            type="matrix"
            values="0 0 0 0 0 0 0 0 0 0 0 0 0 0 0 0 0 0 127 0"
            result="hardAlpha"
          />
          <feOffset dy="4.83734" />
          <feGaussianBlur stdDeviation="2.41867" />
          <feComposite in2="hardAlpha" operator="out" />
          <feColorMatrix
            type="matrix"
            values="0 0 0 0 0 0 0 0 0 0 0 0 0 0 0 0 0 0 0.25 0"
          />
          <feBlend
            mode="normal"
            in2="BackgroundImageFix"
            result="effect1_dropShadow_78_148"
          />
          <feBlend
            mode="normal"
            in="SourceGraphic"
            in2="effect1_dropShadow_78_148"
            result="shape"
          />
        </filter>
        <filter
          id="filter5_d_78_148"
          x="154.54"
          y="69.4298"
          width="17.5964"
          height="54.5033"
          filterUnits="userSpaceOnUse"
          color-interpolation-filters="sRGB"
        >
          <feFlood flood-opacity="0" result="BackgroundImageFix" />
          <feColorMatrix
            in="SourceAlpha"
            type="matrix"
            values="0 0 0 0 0 0 0 0 0 0 0 0 0 0 0 0 0 0 127 0"
            result="hardAlpha"
          />
          <feOffset dy="4.83734" />
          <feGaussianBlur stdDeviation="2.41867" />
          <feComposite in2="hardAlpha" operator="out" />
          <feColorMatrix
            type="matrix"
            values="0 0 0 0 0 0 0 0 0 0 0 0 0 0 0 0 0 0 0.25 0"
          />
          <feBlend
            mode="normal"
            in2="BackgroundImageFix"
            result="effect1_dropShadow_78_148"
          />
          <feBlend
            mode="normal"
            in="SourceGraphic"
            in2="effect1_dropShadow_78_148"
            result="shape"
          />
        </filter>
        <filter
          id="filter6_d_78_148"
          x="160.321"
          y="82.6942"
          width="34.9137"
          height="42.0987"
          filterUnits="userSpaceOnUse"
          color-interpolation-filters="sRGB"
        >
          <feFlood flood-opacity="0" result="BackgroundImageFix" />
          <feColorMatrix
            in="SourceAlpha"
            type="matrix"
            values="0 0 0 0 0 0 0 0 0 0 0 0 0 0 0 0 0 0 127 0"
            result="hardAlpha"
          />
          <feOffset dy="4.83734" />
          <feGaussianBlur stdDeviation="2.41867" />
          <feComposite in2="hardAlpha" operator="out" />
          <feColorMatrix
            type="matrix"
            values="0 0 0 0 0 0 0 0 0 0 0 0 0 0 0 0 0 0 0.25 0"
          />
          <feBlend
            mode="normal"
            in2="BackgroundImageFix"
            result="effect1_dropShadow_78_148"
          />
          <feBlend
            mode="normal"
            in="SourceGraphic"
            in2="effect1_dropShadow_78_148"
            result="shape"
          />
        </filter>
        <filter
          id="filter7_d_78_148"
          x="183.677"
          y="74.9566"
          width="29.8782"
          height="49.8976"
          filterUnits="userSpaceOnUse"
          color-interpolation-filters="sRGB"
        >
          <feFlood flood-opacity="0" result="BackgroundImageFix" />
          <feColorMatrix
            in="SourceAlpha"
            type="matrix"
            values="0 0 0 0 0 0 0 0 0 0 0 0 0 0 0 0 0 0 127 0"
            result="hardAlpha"
          />
          <feOffset dy="4.83734" />
          <feGaussianBlur stdDeviation="2.41867" />
          <feComposite in2="hardAlpha" operator="out" />
          <feColorMatrix
            type="matrix"
            values="0 0 0 0 0 0 0 0 0 0 0 0 0 0 0 0 0 0 0.25 0"
          />
          <feBlend
            mode="normal"
            in2="BackgroundImageFix"
            result="effect1_dropShadow_78_148"
          />
          <feBlend
            mode="normal"
            in="SourceGraphic"
            in2="effect1_dropShadow_78_148"
            result="shape"
          />
        </filter>
        <filter
          id="filter8_d_78_148"
          x="206.85"
          y="82.9398"
          width="26.9307"
          height="40.9933"
          filterUnits="userSpaceOnUse"
          color-interpolation-filters="sRGB"
        >
          <feFlood flood-opacity="0" result="BackgroundImageFix" />
          <feColorMatrix
            in="SourceAlpha"
            type="matrix"
            values="0 0 0 0 0 0 0 0 0 0 0 0 0 0 0 0 0 0 127 0"
            result="hardAlpha"
          />
          <feOffset dy="4.83734" />
          <feGaussianBlur stdDeviation="2.41867" />
          <feComposite in2="hardAlpha" operator="out" />
          <feColorMatrix
            type="matrix"
            values="0 0 0 0 0 0 0 0 0 0 0 0 0 0 0 0 0 0 0.25 0"
          />
          <feBlend
            mode="normal"
            in2="BackgroundImageFix"
            result="effect1_dropShadow_78_148"
          />
          <feBlend
            mode="normal"
            in="SourceGraphic"
            in2="effect1_dropShadow_78_148"
            result="shape"
          />
        </filter>
        <filter
          id="filter9_d_78_148"
          x="223.892"
          y="82.6942"
          width="41.4232"
          height="42.0987"
          filterUnits="userSpaceOnUse"
          color-interpolation-filters="sRGB"
        >
          <feFlood flood-opacity="0" result="BackgroundImageFix" />
          <feColorMatrix
            in="SourceAlpha"
            type="matrix"
            values="0 0 0 0 0 0 0 0 0 0 0 0 0 0 0 0 0 0 127 0"
            result="hardAlpha"
          />
          <feOffset dy="4.83734" />
          <feGaussianBlur stdDeviation="2.41867" />
          <feComposite in2="hardAlpha" operator="out" />
          <feColorMatrix
            type="matrix"
            values="0 0 0 0 0 0 0 0 0 0 0 0 0 0 0 0 0 0 0.25 0"
          />
          <feBlend
            mode="normal"
            in2="BackgroundImageFix"
            result="effect1_dropShadow_78_148"
          />
          <feBlend
            mode="normal"
            in="SourceGraphic"
            in2="effect1_dropShadow_78_148"
            result="shape"
          />
        </filter>
        <filter
          id="filter10_d_78_148"
          x="256.066"
          y="82.6942"
          width="41.4232"
          height="42.0987"
          filterUnits="userSpaceOnUse"
          color-interpolation-filters="sRGB"
        >
          <feFlood flood-opacity="0" result="BackgroundImageFix" />
          <feColorMatrix
            in="SourceAlpha"
            type="matrix"
            values="0 0 0 0 0 0 0 0 0 0 0 0 0 0 0 0 0 0 127 0"
            result="hardAlpha"
          />
          <feOffset dy="4.83734" />
          <feGaussianBlur stdDeviation="2.41867" />
          <feComposite in2="hardAlpha" operator="out" />
          <feColorMatrix
            type="matrix"
            values="0 0 0 0 0 0 0 0 0 0 0 0 0 0 0 0 0 0 0.25 0"
          />
          <feBlend
            mode="normal"
            in2="BackgroundImageFix"
            result="effect1_dropShadow_78_148"
          />
          <feBlend
            mode="normal"
            in="SourceGraphic"
            in2="effect1_dropShadow_78_148"
            result="shape"
          />
        </filter>
        <filter
          id="filter11_d_78_148"
          x="285.819"
          y="74.9566"
          width="29.8782"
          height="49.8976"
          filterUnits="userSpaceOnUse"
          color-interpolation-filters="sRGB"
        >
          <feFlood flood-opacity="0" result="BackgroundImageFix" />
          <feColorMatrix
            in="SourceAlpha"
            type="matrix"
            values="0 0 0 0 0 0 0 0 0 0 0 0 0 0 0 0 0 0 127 0"
            result="hardAlpha"
          />
          <feOffset dy="4.83734" />
          <feGaussianBlur stdDeviation="2.41867" />
          <feComposite in2="hardAlpha" operator="out" />
          <feColorMatrix
            type="matrix"
            values="0 0 0 0 0 0 0 0 0 0 0 0 0 0 0 0 0 0 0.25 0"
          />
          <feBlend
            mode="normal"
            in2="BackgroundImageFix"
            result="effect1_dropShadow_78_148"
          />
          <feBlend
            mode="normal"
            in="SourceGraphic"
            in2="effect1_dropShadow_78_148"
            result="shape"
          />
        </filter>
        <filter
          id="filter12_d_78_148"
          x="0.280093"
          y="118.618"
          width="185.181"
          height="40.624"
          filterUnits="userSpaceOnUse"
          color-interpolation-filters="sRGB"
        >
          <feFlood flood-opacity="0" result="BackgroundImageFix" />
          <feColorMatrix
            in="SourceAlpha"
            type="matrix"
            values="0 0 0 0 0 0 0 0 0 0 0 0 0 0 0 0 0 0 127 0"
            result="hardAlpha"
          />
          <feOffset dy="4.83734" />
          <feGaussianBlur stdDeviation="2.41867" />
          <feComposite in2="hardAlpha" operator="out" />
          <feColorMatrix
            type="matrix"
            values="0 0 0 0 0 0 0 0 0 0 0 0 0 0 0 0 0 0 0.25 0"
          />
          <feBlend
            mode="normal"
            in2="BackgroundImageFix"
            result="effect1_dropShadow_78_148"
          />
          <feBlend
            mode="normal"
            in="SourceGraphic"
            in2="effect1_dropShadow_78_148"
            result="shape"
          />
        </filter>
        <radialGradient
          id="paint0_angular_78_148"
          cx="0"
          cy="0"
          r="1"
          gradientUnits="userSpaceOnUse"
          gradientTransform="translate(28.2046 25.5035) rotate(-22.4445) scale(36.0322 10.025)"
        >
          <stop stop-color="#00FFFF" />
          <stop offset="1" stop-color="#698AFF" />
        </radialGradient>
        <radialGradient
          id="paint1_angular_78_148"
          cx="0"
          cy="0"
          r="1"
          gradientUnits="userSpaceOnUse"
          gradientTransform="translate(48.1579 38.8055) rotate(-22.4445) scale(36.0322 10.025)"
        >
          <stop stop-color="#00FFFF" />
          <stop offset="1" stop-color="#698AFF" />
        </radialGradient>
      </defs>
    </svg>
 
