<svg width="246" height="203" viewBox="0 0 246 203" fill="none" xmlns="http://www.w3.org/2000/svg">
<path d="M9.264 3.22157C10.2987 3.22157 11.1573 3.56824 11.84 4.26157C12.5333 4.94424 12.88 5.79757 12.88 6.82157C12.88 7.8349 12.5333 8.68824 11.84 9.38157C11.1573 10.0749 10.2987 10.4216 9.264 10.4216H6.688V14.4216H5.2V3.22157H9.264ZM9.264 9.02957C9.88267 9.02957 10.3947 8.82157 10.8 8.40557C11.2053 7.9789 11.408 7.4509 11.408 6.82157C11.408 6.18157 11.2053 5.65357 10.8 5.23757C10.3947 4.82157 9.88267 4.61357 9.264 4.61357H6.688V9.02957H9.264ZM27.9495 12.9336C26.8295 14.0642 25.4588 14.6296 23.8375 14.6296C22.2162 14.6296 20.8455 14.0642 19.7255 12.9336C18.6055 11.8029 18.0455 10.4322 18.0455 8.82157C18.0455 7.20024 18.6055 5.82957 19.7255 4.70957C20.8455 3.5789 22.2162 3.01357 23.8375 3.01357C25.4588 3.01357 26.8295 3.5789 27.9495 4.70957C29.0802 5.82957 29.6455 7.20024 29.6455 8.82157C29.6455 10.4322 29.0802 11.8029 27.9495 12.9336ZM20.7495 11.9256C21.5815 12.7576 22.6108 13.1736 23.8375 13.1736C25.0642 13.1736 26.0882 12.7576 26.9095 11.9256C27.7415 11.0829 28.1575 10.0482 28.1575 8.82157C28.1575 7.58424 27.7415 6.54957 26.9095 5.71757C26.0882 4.8749 25.0642 4.45357 23.8375 4.45357C22.6108 4.45357 21.5815 4.8749 20.7495 5.71757C19.9282 6.54957 19.5175 7.58424 19.5175 8.82157C19.5175 10.0482 19.9282 11.0829 20.7495 11.9256ZM37.8504 14.4216L34.6344 3.22157H36.2024L38.7624 12.4376L41.4824 3.22157H42.9864L45.7064 12.4376L48.2664 3.22157H49.8344L46.6184 14.4216H44.8904L42.2344 5.47757L39.5784 14.4216H37.8504ZM56.9224 13.0136H62.1224V14.4216H55.4344V3.22157H62.0424V4.62957H56.9224V8.06957H61.6424V9.46157H56.9224V13.0136ZM74.5588 14.4216L72.0468 10.1336H69.4068V14.4216H67.9188V3.22157H72.3988C73.3588 3.22157 74.1801 3.5629 74.8628 4.24557C75.5454 4.91757 75.8868 5.73357 75.8868 6.69357C75.8868 7.4189 75.6681 8.08024 75.2308 8.67757C74.8041 9.2749 74.2494 9.69624 73.5668 9.94157L76.2068 14.4216H74.5588ZM69.4068 4.61357V8.78957H72.3988C72.9534 8.78957 73.4228 8.5869 73.8068 8.18157C74.2014 7.76557 74.3988 7.26957 74.3988 6.69357C74.3988 6.11757 74.2014 5.6269 73.8068 5.22157C73.4228 4.81624 72.9534 4.61357 72.3988 4.61357H69.4068ZM83.188 13.0136H88.388V14.4216H81.7V3.22157H88.308V4.62957H83.188V8.06957H87.908V9.46157H83.188V13.0136ZM98.5524 3.22157C100.078 3.22157 101.342 3.76557 102.344 4.85357C103.358 5.9309 103.864 7.25357 103.864 8.82157C103.864 10.3896 103.358 11.7176 102.344 12.8056C101.342 13.8829 100.078 14.4216 98.5524 14.4216H94.1844V3.22157H98.5524ZM98.5524 13.0136C99.6937 13.0136 100.627 12.6136 101.352 11.8136C102.078 11.0136 102.44 10.0162 102.44 8.82157C102.44 7.6269 102.078 6.62957 101.352 5.82957C100.627 5.02957 99.6937 4.62957 98.5524 4.62957H95.6724V13.0136H98.5524ZM120.069 8.61357C120.581 8.8589 120.986 9.2109 121.285 9.66957C121.594 10.1282 121.749 10.6562 121.749 11.2536C121.749 12.1496 121.434 12.9016 120.805 13.5096C120.175 14.1176 119.407 14.4216 118.501 14.4216H113.669V3.22157H118.149C119.023 3.22157 119.765 3.5149 120.373 4.10157C120.981 4.68824 121.285 5.41357 121.285 6.27757C121.285 7.26957 120.879 8.04824 120.069 8.61357ZM118.149 4.61357H115.157V8.03757H118.149C118.618 8.03757 119.013 7.87224 119.333 7.54157C119.653 7.2109 119.813 6.80557 119.813 6.32557C119.813 5.85624 119.647 5.45624 119.317 5.12557C118.997 4.78424 118.607 4.61357 118.149 4.61357ZM118.501 13.0296C119.002 13.0296 119.423 12.8536 119.765 12.5016C120.106 12.1496 120.277 11.7176 120.277 11.2056C120.277 10.7042 120.101 10.2776 119.749 9.92557C119.407 9.57357 118.991 9.39757 118.501 9.39757H115.157V13.0296H118.501ZM135.849 3.22157L131.881 9.89357V14.4216H130.393V9.87757L126.441 3.22157H128.105L131.145 8.46957L134.185 3.22157H135.849Z" fill="white"/>
<g filter="url(#filter0_d_78:86)">
<path d="M7.9649 72.3441C7.87134 71.8828 8.07936 71.4127 8.48371 71.1716L53.6937 44.2222C54.3499 43.8311 55.1958 44.2054 55.3476 44.9541L57.5425 55.7766C57.636 56.238 57.428 56.7081 57.0237 56.9491L11.8137 83.8985C11.1575 84.2897 10.3116 83.9154 10.1597 83.1667L7.9649 72.3441Z" fill="url(#paint0_linear_78:86)"/>
<path d="M27.9182 85.6461C27.8246 85.1847 28.0326 84.7146 28.437 84.4736L73.6469 57.5242C74.3031 57.133 75.1491 57.5073 75.3009 58.256L77.4957 69.0786C77.5893 69.5399 77.3812 70.0101 76.9769 70.2511L31.767 97.2005C31.1107 97.5917 30.2648 97.2173 30.113 96.4686L27.9182 85.6461Z" fill="url(#paint1_linear_78:86)"/>
</g>
<g filter="url(#filter1_d_78:86)">
<path d="M32.1052 115.015H40.027V158.002H32.1052V154.378C29.7716 157.367 26.4556 158.861 22.1569 158.861C18.022 158.861 14.4808 157.306 11.5332 154.194C8.62646 151.042 7.17311 147.194 7.17311 142.649C7.17311 138.105 8.62646 134.277 11.5332 131.166C14.4808 128.014 18.022 126.437 22.1569 126.437C26.4556 126.437 29.7716 127.932 32.1052 130.92V115.015ZM17.4898 148.913C19.1274 150.51 21.1744 151.308 23.6307 151.308C26.0871 151.308 28.1136 150.51 29.7102 148.913C31.3069 147.276 32.1052 145.188 32.1052 142.649C32.1052 140.111 31.3069 138.044 29.7102 136.447C28.1136 134.809 26.0871 133.991 23.6307 133.991C21.1744 133.991 19.1274 134.809 17.4898 136.447C15.8932 138.044 15.0949 140.111 15.0949 142.649C15.0949 145.188 15.8932 147.276 17.4898 148.913Z" fill="white"/>
</g>
<g filter="url(#filter2_d_78:86)">
<path d="M60.1355 123.182H52.5207L45.7043 114.769H55.2227L60.1355 123.182ZM47.5466 145.904C48.611 149.752 51.4973 151.676 56.2053 151.676C59.2348 151.676 61.5274 150.653 63.0831 148.606L69.4696 152.29C66.4401 156.671 61.9777 158.861 56.0825 158.861C51.006 158.861 46.9325 157.326 43.8621 154.255C40.7916 151.185 39.2564 147.316 39.2564 142.649C39.2564 138.023 40.7711 134.174 43.8007 131.104C46.8302 127.993 50.7194 126.437 55.4684 126.437C59.9717 126.437 63.6767 127.993 66.5834 131.104C69.531 134.215 71.0049 138.064 71.0049 142.649C71.0049 143.672 70.9025 144.757 70.6978 145.904H47.5466ZM47.4238 139.763H63.0831C62.6328 137.675 61.6912 136.119 60.2583 135.096C58.8663 134.072 57.2697 133.56 55.4684 133.56C53.3395 133.56 51.5791 134.113 50.1872 135.218C48.7953 136.283 47.8741 137.798 47.4238 139.763Z" fill="white"/>
</g>
<g filter="url(#filter3_d_78:86)">
<path d="M89.0366 126.437C93.1715 126.437 96.6923 128.013 99.5989 131.165C102.547 134.277 104.02 138.105 104.02 142.649C104.02 147.193 102.547 151.041 99.5989 154.194C96.6923 157.305 93.1715 158.861 89.0366 158.861C84.738 158.861 81.4219 157.367 79.0883 154.378V170.283H71.1666V127.297H79.0883V130.92C81.4219 127.931 84.738 126.437 89.0366 126.437ZM81.4833 148.913C83.0799 150.509 85.1064 151.308 87.5628 151.308C90.0191 151.308 92.0456 150.509 93.6423 148.913C95.2798 147.275 96.0986 145.187 96.0986 142.649C96.0986 140.111 95.2798 138.043 93.6423 136.447C92.0456 134.809 90.0191 133.99 87.5628 133.99C85.1064 133.99 83.0799 134.809 81.4833 136.447C79.8866 138.043 79.0883 140.111 79.0883 142.649C79.0883 145.187 79.8866 147.275 81.4833 148.913Z" fill="white"/>
</g>
<g filter="url(#filter4_d_78:86)">
<path d="M113.024 144.904C114.089 148.752 116.975 150.676 121.683 150.676C124.713 150.676 127.005 149.653 128.561 147.606L134.947 151.29C131.918 155.671 127.456 157.861 121.56 157.861C116.484 157.861 112.41 156.326 109.34 153.255C106.269 150.185 104.734 146.316 104.734 141.649C104.734 137.023 106.249 133.174 109.278 130.104C112.308 126.993 116.197 125.437 120.946 125.437C125.45 125.437 129.155 126.993 132.061 130.104C135.009 133.215 136.483 137.064 136.483 141.649C136.483 142.672 136.38 143.757 136.176 144.904H113.024ZM112.902 138.763H128.561C128.111 136.675 127.169 135.119 125.736 134.096C124.344 133.072 122.748 132.56 120.946 132.56C118.817 132.56 117.057 133.113 115.665 134.218C114.273 135.283 113.352 136.798 112.902 138.763Z" fill="white"/>
</g>
<g filter="url(#filter5_d_78:86)">
<path d="M161.615 154.194C158.463 157.305 154.615 158.861 150.07 158.861C145.526 158.861 141.678 157.305 138.525 154.194C135.414 151.041 133.858 147.193 133.858 142.649C133.858 138.105 135.414 134.277 138.525 131.165C141.678 128.013 145.526 126.437 150.07 126.437C154.615 126.437 158.463 128.013 161.615 131.165C164.768 134.277 166.344 138.105 166.344 142.649C166.344 147.193 164.768 151.041 161.615 154.194ZM144.114 148.728C145.71 150.325 147.696 151.123 150.07 151.123C152.445 151.123 154.43 150.325 156.027 148.728C157.624 147.132 158.422 145.105 158.422 142.649C158.422 140.193 157.624 138.166 156.027 136.569C154.43 134.973 152.445 134.174 150.07 134.174C147.696 134.174 145.71 134.973 144.114 136.569C142.558 138.166 141.78 140.193 141.78 142.649C141.78 145.105 142.558 147.132 144.114 148.728Z" fill="white"/>
</g>
<g filter="url(#filter6_d_78:86)">
<path d="M199.378 158.001V113.173H207.3V158.001H199.378Z" fill="white"/>
</g>
<g filter="url(#filter7_d_78:86)">
<path d="M183.169 126.437C187.304 126.437 190.825 128.013 193.731 131.165C196.679 134.277 198.153 138.105 198.153 142.649C198.153 147.193 196.679 151.041 193.731 154.194C190.825 157.305 187.304 158.861 183.169 158.861C178.871 158.861 175.554 157.367 173.221 154.378V170.283H165.299V127.297H173.221V130.92C175.554 127.931 178.871 126.437 183.169 126.437ZM175.616 148.913C177.212 150.509 179.239 151.308 181.695 151.308C184.152 151.308 186.178 150.509 187.775 148.913C189.412 147.275 190.231 145.187 190.231 142.649C190.231 140.111 189.412 138.043 187.775 136.447C186.178 134.809 184.152 133.99 181.695 133.99C179.239 133.99 177.212 134.809 175.616 136.447C174.019 138.043 173.221 140.111 173.221 142.649C173.221 145.187 174.019 147.275 175.616 148.913Z" fill="white"/>
</g>
<g filter="url(#filter8_d_78:86)">
<path d="M217.019 145.904C218.084 149.752 220.97 151.676 225.678 151.676C228.708 151.676 231 150.653 232.556 148.606L238.942 152.29C235.913 156.671 231.451 158.861 225.555 158.861C220.479 158.861 216.405 157.326 213.335 154.255C210.264 151.185 208.729 147.316 208.729 142.649C208.729 138.023 210.244 134.174 213.273 131.104C216.303 127.993 220.192 126.437 224.941 126.437C229.444 126.437 233.149 127.993 236.056 131.104C239.004 134.215 240.478 138.064 240.478 142.649C240.478 143.672 240.375 144.757 240.171 145.904H217.019ZM216.897 139.763H232.556C232.106 137.675 231.164 136.119 229.731 135.096C228.339 134.072 226.742 133.56 224.941 133.56C222.812 133.56 221.052 134.113 219.66 135.218C218.268 136.283 217.347 137.798 216.897 139.763Z" fill="white"/>
</g>
<g filter="url(#filter9_d_78:86)">
<path d="M18.9667 168.648H23.2333V184.766C23.2333 187.384 22.3642 189.382 20.6259 190.759C18.9103 192.136 16.8335 192.825 14.3954 192.825C12.5669 192.825 10.9529 192.475 9.55327 191.775C8.17624 191.075 7.11525 190.048 6.3703 188.694L10.095 186.56C10.9529 188.141 12.4315 188.931 14.5309 188.931C15.9079 188.931 16.9915 188.57 17.7816 187.847C18.5717 187.125 18.9667 186.098 18.9667 184.766V182.937C17.68 184.653 15.8741 185.511 13.5489 185.511C11.156 185.511 9.14693 184.675 7.52158 183.005C5.91881 181.312 5.11743 179.258 5.11743 176.842C5.11743 174.449 5.9301 172.406 7.55544 170.713C9.18079 169.02 11.1786 168.174 13.5489 168.174C15.8741 168.174 17.68 169.032 18.9667 170.747V168.648ZM10.8061 180.194C11.7091 181.052 12.8491 181.481 14.2261 181.481C15.6032 181.481 16.7319 181.052 17.6123 180.194C18.5152 179.314 18.9667 178.197 18.9667 176.842C18.9667 175.51 18.5152 174.415 17.6123 173.558C16.7319 172.677 15.6032 172.237 14.2261 172.237C12.8491 172.237 11.7091 172.677 10.8061 173.558C9.92574 174.415 9.48554 175.51 9.48554 176.842C9.48554 178.197 9.92574 179.314 10.8061 180.194ZM41.6192 183.479C39.881 185.195 37.759 186.052 35.2533 186.052C32.7475 186.052 30.6255 185.195 28.8873 183.479C27.1717 181.741 26.3139 179.619 26.3139 177.113C26.3139 174.607 27.1717 172.497 28.8873 170.781C30.6255 169.043 32.7475 168.174 35.2533 168.174C37.759 168.174 39.881 169.043 41.6192 170.781C43.3574 172.497 44.2265 174.607 44.2265 177.113C44.2265 179.619 43.3574 181.741 41.6192 183.479ZM31.9687 180.465C32.8491 181.346 33.9439 181.786 35.2533 181.786C36.5626 181.786 37.6574 181.346 38.5378 180.465C39.4182 179.585 39.8584 178.468 39.8584 177.113C39.8584 175.759 39.4182 174.641 38.5378 173.761C37.6574 172.88 36.5626 172.44 35.2533 172.44C33.9439 172.44 32.8491 172.88 31.9687 173.761C31.1109 174.641 30.682 175.759 30.682 177.113C30.682 178.468 31.1109 179.585 31.9687 180.465ZM57.7785 168.648H62.5868L56.1531 185.578H51.1755L44.7418 168.648H49.5502L53.6474 180.499L57.7785 168.648ZM67.7226 178.908C68.3095 181.03 69.901 182.091 72.4971 182.091C74.1676 182.091 75.4317 181.526 76.2895 180.398L79.8111 182.429C78.1406 184.845 75.68 186.052 72.4293 186.052C69.6301 186.052 67.384 185.206 65.6909 183.513C63.9979 181.82 63.1513 179.687 63.1513 177.113C63.1513 174.562 63.9866 172.44 65.6571 170.747C67.3276 169.032 69.4721 168.174 72.0907 168.174C74.5739 168.174 76.6169 169.032 78.2196 170.747C79.845 172.463 80.6577 174.585 80.6577 177.113C80.6577 177.677 80.6012 178.276 80.4883 178.908H67.7226ZM67.6549 175.522H76.2895C76.0412 174.37 75.522 173.512 74.7319 172.948C73.9644 172.384 73.084 172.102 72.0907 172.102C70.9169 172.102 69.9462 172.406 69.1786 173.016C68.4111 173.603 67.9032 174.438 67.6549 175.522ZM88.0751 171.56C88.4815 170.476 89.1474 169.664 90.073 169.122C91.0211 168.58 92.0708 168.309 93.2221 168.309V173.185C91.8902 173.027 90.6938 173.298 89.6328 173.998C88.5944 174.698 88.0751 175.86 88.0751 177.486V185.578H83.707V168.648H88.0751V171.56ZM105.19 168.174C107.041 168.174 108.565 168.794 109.762 170.036C110.981 171.278 111.59 172.993 111.59 175.183V185.578H107.222V175.725C107.222 174.596 106.917 173.738 106.308 173.151C105.698 172.542 104.885 172.237 103.87 172.237C102.741 172.237 101.838 172.587 101.161 173.287C100.483 173.987 100.145 175.036 100.145 176.436V185.578H95.7768V168.648H100.145V170.544C101.206 168.964 102.888 168.174 105.19 168.174ZM128.187 168.648H132.555V185.578H128.187V183.581C126.878 185.229 125.038 186.052 122.668 186.052C120.41 186.052 118.469 185.195 116.844 183.479C115.241 181.741 114.439 179.619 114.439 177.113C114.439 174.607 115.241 172.497 116.844 170.781C118.469 169.043 120.41 168.174 122.668 168.174C125.038 168.174 126.878 168.998 128.187 170.646V168.648ZM120.128 180.567C121.009 181.447 122.126 181.888 123.48 181.888C124.835 181.888 125.952 181.447 126.833 180.567C127.736 179.664 128.187 178.513 128.187 177.113C128.187 175.713 127.736 174.573 126.833 173.693C125.952 172.79 124.835 172.339 123.48 172.339C122.126 172.339 121.009 172.79 120.128 173.693C119.248 174.573 118.808 175.713 118.808 177.113C118.808 178.513 119.248 179.664 120.128 180.567ZM145.93 168.174C147.781 168.174 149.305 168.794 150.501 170.036C151.72 171.278 152.329 172.993 152.329 175.183V185.578H147.961V175.725C147.961 174.596 147.657 173.738 147.047 173.151C146.438 172.542 145.625 172.237 144.609 172.237C143.48 172.237 142.577 172.587 141.9 173.287C141.223 173.987 140.884 175.036 140.884 176.436V185.578H136.516V168.648H140.884V170.544C141.945 168.964 143.627 168.174 145.93 168.174ZM164.118 186.052C161.567 186.052 159.434 185.195 157.718 183.479C156.025 181.763 155.179 179.641 155.179 177.113C155.179 174.585 156.025 172.463 157.718 170.747C159.434 169.032 161.567 168.174 164.118 168.174C165.766 168.174 167.267 168.569 168.622 169.359C169.976 170.149 171.003 171.21 171.703 172.542L167.945 174.743C167.606 174.043 167.087 173.49 166.387 173.084C165.71 172.677 164.942 172.474 164.084 172.474C162.775 172.474 161.692 172.914 160.834 173.795C159.976 174.652 159.547 175.759 159.547 177.113C159.547 178.445 159.976 179.551 160.834 180.432C161.692 181.289 162.775 181.718 164.084 181.718C164.965 181.718 165.744 181.526 166.421 181.143C167.121 180.736 167.64 180.183 167.978 179.483L171.771 181.651C171.026 182.982 169.976 184.055 168.622 184.867C167.267 185.657 165.766 186.052 164.118 186.052ZM177.508 178.908C178.094 181.03 179.686 182.091 182.282 182.091C183.952 182.091 185.217 181.526 186.074 180.398L189.596 182.429C187.926 184.845 185.465 186.052 182.214 186.052C179.415 186.052 177.169 185.206 175.476 183.513C173.783 181.82 172.936 179.687 172.936 177.113C172.936 174.562 173.771 172.44 175.442 170.747C177.112 169.032 179.257 168.174 181.876 168.174C184.359 168.174 186.402 169.032 188.005 170.747C189.63 172.463 190.443 174.585 190.443 177.113C190.443 177.677 190.386 178.276 190.273 178.908H177.508ZM177.44 175.522H186.074C185.826 174.37 185.307 173.512 184.517 172.948C183.749 172.384 182.869 172.102 181.876 172.102C180.702 172.102 179.731 172.406 178.964 173.016C178.196 173.603 177.688 174.438 177.44 175.522Z" fill="white"/>
</g>
<defs>
<filter id="filter0_d_78:86" x="3.94275" y="44.0651" width="77.5751" height="61.2926" filterUnits="userSpaceOnUse" color-interpolation-filters="sRGB">
<feFlood flood-opacity="0" result="BackgroundImageFix"/>
<feColorMatrix in="SourceAlpha" type="matrix" values="0 0 0 0 0 0 0 0 0 0 0 0 0 0 0 0 0 0 127 0" result="hardAlpha"/>
<feOffset dy="4"/>
<feGaussianBlur stdDeviation="2"/>
<feComposite in2="hardAlpha" operator="out"/>
<feColorMatrix type="matrix" values="0 0 0 0 0 0 0 0 0 0 0 0 0 0 0 0 0 0 0.25 0"/>
<feBlend mode="normal" in2="BackgroundImageFix" result="effect1_dropShadow_78:86"/>
<feBlend mode="normal" in="SourceGraphic" in2="effect1_dropShadow_78:86" result="shape"/>
</filter>
<filter id="filter1_d_78:86" x="2.33576" y="115.015" width="42.5286" height="53.5207" filterUnits="userSpaceOnUse" color-interpolation-filters="sRGB">
<feFlood flood-opacity="0" result="BackgroundImageFix"/>
<feColorMatrix in="SourceAlpha" type="matrix" values="0 0 0 0 0 0 0 0 0 0 0 0 0 0 0 0 0 0 127 0" result="hardAlpha"/>
<feOffset dy="4.83734"/>
<feGaussianBlur stdDeviation="2.41867"/>
<feComposite in2="hardAlpha" operator="out"/>
<feColorMatrix type="matrix" values="0 0 0 0 0 0 0 0 0 0 0 0 0 0 0 0 0 0 0.25 0"/>
<feBlend mode="normal" in2="BackgroundImageFix" result="effect1_dropShadow_78:86"/>
<feBlend mode="normal" in="SourceGraphic" in2="effect1_dropShadow_78:86" result="shape"/>
</filter>
<filter id="filter2_d_78:86" x="34.4191" y="114.769" width="41.4232" height="53.7664" filterUnits="userSpaceOnUse" color-interpolation-filters="sRGB">
<feFlood flood-opacity="0" result="BackgroundImageFix"/>
<feColorMatrix in="SourceAlpha" type="matrix" values="0 0 0 0 0 0 0 0 0 0 0 0 0 0 0 0 0 0 127 0" result="hardAlpha"/>
<feOffset dy="4.83734"/>
<feGaussianBlur stdDeviation="2.41867"/>
<feComposite in2="hardAlpha" operator="out"/>
<feColorMatrix type="matrix" values="0 0 0 0 0 0 0 0 0 0 0 0 0 0 0 0 0 0 0.25 0"/>
<feBlend mode="normal" in2="BackgroundImageFix" result="effect1_dropShadow_78:86"/>
<feBlend mode="normal" in="SourceGraphic" in2="effect1_dropShadow_78:86" result="shape"/>
</filter>
<filter id="filter3_d_78:86" x="66.3292" y="126.437" width="42.5285" height="53.5207" filterUnits="userSpaceOnUse" color-interpolation-filters="sRGB">
<feFlood flood-opacity="0" result="BackgroundImageFix"/>
<feColorMatrix in="SourceAlpha" type="matrix" values="0 0 0 0 0 0 0 0 0 0 0 0 0 0 0 0 0 0 127 0" result="hardAlpha"/>
<feOffset dy="4.83734"/>
<feGaussianBlur stdDeviation="2.41867"/>
<feComposite in2="hardAlpha" operator="out"/>
<feColorMatrix type="matrix" values="0 0 0 0 0 0 0 0 0 0 0 0 0 0 0 0 0 0 0.25 0"/>
<feBlend mode="normal" in2="BackgroundImageFix" result="effect1_dropShadow_78:86"/>
<feBlend mode="normal" in="SourceGraphic" in2="effect1_dropShadow_78:86" result="shape"/>
</filter>
<filter id="filter4_d_78:86" x="99.8969" y="125.437" width="41.4232" height="42.0986" filterUnits="userSpaceOnUse" color-interpolation-filters="sRGB">
<feFlood flood-opacity="0" result="BackgroundImageFix"/>
<feColorMatrix in="SourceAlpha" type="matrix" values="0 0 0 0 0 0 0 0 0 0 0 0 0 0 0 0 0 0 127 0" result="hardAlpha"/>
<feOffset dy="4.83734"/>
<feGaussianBlur stdDeviation="2.41867"/>
<feComposite in2="hardAlpha" operator="out"/>
<feColorMatrix type="matrix" values="0 0 0 0 0 0 0 0 0 0 0 0 0 0 0 0 0 0 0.25 0"/>
<feBlend mode="normal" in2="BackgroundImageFix" result="effect1_dropShadow_78:86"/>
<feBlend mode="normal" in="SourceGraphic" in2="effect1_dropShadow_78:86" result="shape"/>
</filter>
<filter id="filter5_d_78:86" x="129.021" y="126.437" width="42.16" height="42.0986" filterUnits="userSpaceOnUse" color-interpolation-filters="sRGB">
<feFlood flood-opacity="0" result="BackgroundImageFix"/>
<feColorMatrix in="SourceAlpha" type="matrix" values="0 0 0 0 0 0 0 0 0 0 0 0 0 0 0 0 0 0 127 0" result="hardAlpha"/>
<feOffset dy="4.83734"/>
<feGaussianBlur stdDeviation="2.41867"/>
<feComposite in2="hardAlpha" operator="out"/>
<feColorMatrix type="matrix" values="0 0 0 0 0 0 0 0 0 0 0 0 0 0 0 0 0 0 0.25 0"/>
<feBlend mode="normal" in2="BackgroundImageFix" result="effect1_dropShadow_78:86"/>
<feBlend mode="normal" in="SourceGraphic" in2="effect1_dropShadow_78:86" result="shape"/>
</filter>
<filter id="filter6_d_78:86" x="194.541" y="113.173" width="17.5964" height="54.5033" filterUnits="userSpaceOnUse" color-interpolation-filters="sRGB">
<feFlood flood-opacity="0" result="BackgroundImageFix"/>
<feColorMatrix in="SourceAlpha" type="matrix" values="0 0 0 0 0 0 0 0 0 0 0 0 0 0 0 0 0 0 127 0" result="hardAlpha"/>
<feOffset dy="4.83734"/>
<feGaussianBlur stdDeviation="2.41867"/>
<feComposite in2="hardAlpha" operator="out"/>
<feColorMatrix type="matrix" values="0 0 0 0 0 0 0 0 0 0 0 0 0 0 0 0 0 0 0.25 0"/>
<feBlend mode="normal" in2="BackgroundImageFix" result="effect1_dropShadow_78:86"/>
<feBlend mode="normal" in="SourceGraphic" in2="effect1_dropShadow_78:86" result="shape"/>
</filter>
<filter id="filter7_d_78:86" x="160.462" y="126.437" width="42.5285" height="53.5207" filterUnits="userSpaceOnUse" color-interpolation-filters="sRGB">
<feFlood flood-opacity="0" result="BackgroundImageFix"/>
<feColorMatrix in="SourceAlpha" type="matrix" values="0 0 0 0 0 0 0 0 0 0 0 0 0 0 0 0 0 0 127 0" result="hardAlpha"/>
<feOffset dy="4.83734"/>
<feGaussianBlur stdDeviation="2.41867"/>
<feComposite in2="hardAlpha" operator="out"/>
<feColorMatrix type="matrix" values="0 0 0 0 0 0 0 0 0 0 0 0 0 0 0 0 0 0 0.25 0"/>
<feBlend mode="normal" in2="BackgroundImageFix" result="effect1_dropShadow_78:86"/>
<feBlend mode="normal" in="SourceGraphic" in2="effect1_dropShadow_78:86" result="shape"/>
</filter>
<filter id="filter8_d_78:86" x="203.892" y="126.437" width="41.4232" height="42.0986" filterUnits="userSpaceOnUse" color-interpolation-filters="sRGB">
<feFlood flood-opacity="0" result="BackgroundImageFix"/>
<feColorMatrix in="SourceAlpha" type="matrix" values="0 0 0 0 0 0 0 0 0 0 0 0 0 0 0 0 0 0 127 0" result="hardAlpha"/>
<feOffset dy="4.83734"/>
<feGaussianBlur stdDeviation="2.41867"/>
<feComposite in2="hardAlpha" operator="out"/>
<feColorMatrix type="matrix" values="0 0 0 0 0 0 0 0 0 0 0 0 0 0 0 0 0 0 0.25 0"/>
<feBlend mode="normal" in2="BackgroundImageFix" result="effect1_dropShadow_78:86"/>
<feBlend mode="normal" in="SourceGraphic" in2="effect1_dropShadow_78:86" result="shape"/>
</filter>
<filter id="filter9_d_78:86" x="0.280093" y="168.174" width="195" height="34.3258" filterUnits="userSpaceOnUse" color-interpolation-filters="sRGB">
<feFlood flood-opacity="0" result="BackgroundImageFix"/>
<feColorMatrix in="SourceAlpha" type="matrix" values="0 0 0 0 0 0 0 0 0 0 0 0 0 0 0 0 0 0 127 0" result="hardAlpha"/>
<feOffset dy="4.83734"/>
<feGaussianBlur stdDeviation="2.41867"/>
<feComposite in2="hardAlpha" operator="out"/>
<feColorMatrix type="matrix" values="0 0 0 0 0 0 0 0 0 0 0 0 0 0 0 0 0 0 0.25 0"/>
<feBlend mode="normal" in2="BackgroundImageFix" result="effect1_dropShadow_78:86"/>
<feBlend mode="normal" in="SourceGraphic" in2="effect1_dropShadow_78:86" result="shape"/>
</filter>
<linearGradient id="paint0_linear_78:86" x1="29.5184" y1="58.633" x2="35.9889" y2="69.4878" gradientUnits="userSpaceOnUse">
<stop stop-color="white"/>
<stop offset="1" stop-color="white" stop-opacity="0.73"/>
</linearGradient>
<linearGradient id="paint1_linear_78:86" x1="49.4717" y1="71.9349" x2="55.9422" y2="82.7898" gradientUnits="userSpaceOnUse">
<stop stop-color="white"/>
<stop offset="1" stop-color="white" stop-opacity="0.73"/>
</linearGradient>
</defs>
</svg>
