<svg width="661" height="661" viewBox="0 0 661 661" fill="none" xmlns="http://www.w3.org/2000/svg">
<path d="M661 505.533H0V505.863H661V505.533Z" fill="#E0E0E0"/>
<path d="M594.768 526.804H550.983V527.134H594.768V526.804Z" fill="#EBEBEB"/>
<path d="M437.873 530.4H426.385V530.73H437.873V530.4Z" fill="#EBEBEB"/>
<path d="M549.661 514.536H524.292V514.866H549.661V514.536Z" fill="#EBEBEB"/>
<path d="M126.449 516.757H69.3521V517.087H126.449V516.757Z" fill="#EBEBEB"/>
<path d="M146.597 516.757H138.228V517.087H146.597V516.757Z" fill="#EBEBEB"/>
<path d="M297.648 522.335H173.803V522.666H297.648V522.335Z" fill="#EBEBEB"/>
<path d="M313.314 446.572H58.049C56.0493 446.568 54.1327 445.771 52.7199 444.356C51.3071 442.941 50.5136 441.023 50.5136 439.023V80.1925C50.531 78.2043 51.3322 76.3032 52.7431 74.9022C54.154 73.5012 56.0607 72.7134 58.049 72.71H313.314C315.316 72.71 317.236 73.5053 318.652 74.9209C320.067 76.3366 320.863 78.2566 320.863 80.2586V439.023C320.863 441.025 320.067 442.945 318.652 444.361C317.236 445.776 315.316 446.572 313.314 446.572ZM58.049 72.9744C56.1369 72.9779 54.3044 73.7399 52.9536 75.0932C51.6028 76.4465 50.8441 78.2804 50.8441 80.1925V439.023C50.8441 440.935 51.6028 442.769 52.9536 444.122C54.3044 445.476 56.1369 446.238 58.049 446.241H313.314C315.227 446.238 317.061 445.476 318.414 444.123C319.767 442.77 320.529 440.936 320.532 439.023V80.1925C320.529 78.2792 319.767 76.4453 318.414 75.0924C317.061 73.7395 315.227 72.9779 313.314 72.9744H58.049Z" fill="#E0E0E0"/>
<path d="M599.276 446.572H343.998C341.997 446.568 340.079 445.772 338.664 444.357C337.249 442.942 336.453 441.024 336.449 439.023V80.1925C336.47 78.2031 337.274 76.302 338.687 74.9013C340.1 73.5007 342.008 72.7134 343.998 72.71H599.276C601.262 72.7169 603.165 73.5062 604.573 74.9068C605.981 76.3074 606.781 78.2065 606.798 80.1925V439.023C606.798 441.02 606.006 442.936 604.596 444.351C603.187 445.766 601.273 446.565 599.276 446.572ZM343.998 72.9744C342.084 72.9779 340.25 73.7395 338.898 75.0924C337.545 76.4453 336.783 78.2792 336.78 80.1925V439.023C336.783 440.936 337.545 442.77 338.898 444.123C340.25 445.476 342.084 446.238 343.998 446.241H599.276C601.189 446.238 603.023 445.476 604.376 444.123C605.729 442.77 606.49 440.936 606.494 439.023V80.1925C606.49 78.2792 605.729 76.4453 604.376 75.0924C603.023 73.7395 601.189 72.9779 599.276 72.9744H343.998Z" fill="#E0E0E0"/>
<path d="M364.264 298.547H530.492V250.109L364.264 250.109V298.547Z" fill="#E0E0E0"/>
<path d="M521.053 298.547H530.492V257.949H521.053V298.547Z" fill="#EBEBEB"/>
<path d="M475.391 298.547H484.83V257.949H475.391V298.547Z" fill="#EBEBEB"/>
<path d="M416.669 296.929L425.971 298.532L432.867 258.524L423.565 256.92L416.669 296.929Z" fill="#EBEBEB"/>
<path d="M509.353 298.547H518.792V263.303H509.353V298.547Z" fill="#EBEBEB"/>
<path d="M487.646 298.547H497.085V263.303H487.646V298.547Z" fill="#EBEBEB"/>
<path d="M432.862 298.547H442.302V263.303H432.862V298.547Z" fill="#EBEBEB"/>
<path d="M455.364 296.485L464.578 298.532L472.224 264.127L463.01 262.079L455.364 296.485Z" fill="#EBEBEB"/>
<path d="M501.183 298.547H505.903V255.939H501.183V298.547Z" fill="#EBEBEB"/>
<path d="M445.025 298.547H449.744V255.939H445.025V298.547Z" fill="#EBEBEB"/>
<path d="M530.492 306.215H364.264V354.653H530.492V306.215Z" fill="#E0E0E0"/>
<path d="M373.703 314.054H364.264V354.653H373.703V314.054Z" fill="#EBEBEB"/>
<path d="M419.365 314.054H409.926V354.653H419.365V314.054Z" fill="#EBEBEB"/>
<path d="M471.214 313.018L461.912 314.621L468.808 354.63L478.11 353.027L471.214 313.018Z" fill="#EBEBEB"/>
<path d="M385.403 319.408H375.964V354.653H385.403V319.408Z" fill="#EBEBEB"/>
<path d="M407.11 319.408H397.671V354.653H407.11V319.408Z" fill="#EBEBEB"/>
<path d="M461.894 319.408H452.454V354.653H461.894V319.408Z" fill="#EBEBEB"/>
<path d="M431.789 318.171L422.575 320.219L430.221 354.624L439.435 352.576L431.789 318.171Z" fill="#EBEBEB"/>
<path d="M393.573 312.045H388.853V354.653H393.573V312.045Z" fill="#EBEBEB"/>
<path d="M449.731 312.045H445.012V354.653H449.731V312.045Z" fill="#EBEBEB"/>
<path d="M521.053 354.653H530.492V314.054H521.053V354.653Z" fill="#EBEBEB"/>
<path d="M509.353 354.653H518.792V319.408H509.353V354.653Z" fill="#EBEBEB"/>
<path d="M487.646 354.653H497.085V319.408H487.646V354.653Z" fill="#EBEBEB"/>
<path d="M501.183 354.653H505.903V312.045H501.183V354.653Z" fill="#EBEBEB"/>
<path d="M364.264 410.759H530.492V362.321H364.264V410.759Z" fill="#E0E0E0"/>
<path d="M425.644 410.759H435.083V370.16H425.644V410.759Z" fill="#EBEBEB"/>
<path d="M366.924 409.134L376.226 410.738L383.122 370.729L373.82 369.126L366.924 409.134Z" fill="#EBEBEB"/>
<path d="M459.607 410.759H469.046V375.514H459.607V410.759Z" fill="#EBEBEB"/>
<path d="M437.899 410.759H447.338V375.514H437.899V410.759Z" fill="#EBEBEB"/>
<path d="M383.116 410.759H392.555V375.514H383.116V410.759Z" fill="#EBEBEB"/>
<path d="M405.615 408.69L414.829 410.738L422.476 376.333L413.261 374.285L405.615 408.69Z" fill="#EBEBEB"/>
<path d="M451.437 410.759H456.156V368.151H451.437V410.759Z" fill="#EBEBEB"/>
<path d="M395.278 410.759H399.998V368.151H395.278V410.759Z" fill="#EBEBEB"/>
<path d="M475.571 409.137L484.873 410.741L491.77 370.732L482.468 369.129L475.571 409.137Z" fill="#EBEBEB"/>
<path d="M491.758 410.759H501.197V375.514H491.758V410.759Z" fill="#EBEBEB"/>
<path d="M514.266 408.694L523.481 410.742L531.127 376.337L521.913 374.289L514.266 408.694Z" fill="#EBEBEB"/>
<path d="M503.907 410.759H508.626V368.151H503.907V410.759Z" fill="#EBEBEB"/>
<path d="M557.26 241.449H526.964V417.715H557.26V241.449Z" fill="#E0E0E0"/>
<path d="M138.043 185.397C138.043 185.397 136.497 175.191 143.939 168.634C151.382 162.077 150.734 158.19 148.606 157.688C146.478 157.186 144.521 163.73 141.243 165.528C141.243 165.528 141.137 156.194 144.468 152.757C147.8 149.32 149.531 140.462 146.372 140.304C143.212 140.145 142.882 145.592 142.221 149.399C141.56 153.207 138.043 158.653 138.043 158.653C138.043 158.653 137.356 150.298 135.201 146.861C133.046 143.424 138.784 135.558 136.523 132.121C134.262 128.683 130.389 135.241 130.706 142.604C131.023 149.968 135.994 157.834 134.804 165.528C134.804 165.528 132.636 160.121 130.693 159.631C128.75 159.142 126.727 155.56 125.405 154.238C124.083 152.916 122.457 157.503 125.405 161.76C128.353 166.017 135.888 177.399 134.738 186.613L138.043 185.397Z" fill="#E0E0E0"/>
<path d="M142.498 180.757L144.931 196.066C145.109 197.177 145.043 198.313 144.739 199.397C144.435 200.48 143.899 201.484 143.169 202.341C142.439 203.197 141.531 203.884 140.509 204.355C139.487 204.826 138.375 205.069 137.25 205.069H134.606C133.48 205.071 132.366 204.829 131.343 204.359C130.319 203.889 129.41 203.202 128.678 202.346C127.946 201.489 127.409 200.484 127.104 199.4C126.8 198.316 126.734 197.178 126.912 196.066L129.344 180.757H142.498Z" fill="#E0E0E0"/>
<path d="M105.588 208.281L278.03 208.281V199.424L105.588 199.424V208.281Z" fill="#E0E0E0"/>
<path d="M262.496 199.424H270.098V166.77H262.496V199.424Z" fill="#E0E0E0"/>
<path d="M225.771 199.424H233.373V166.77H225.771V199.424Z" fill="#E0E0E0"/>
<path d="M178.51 198.133L186.001 199.424L191.548 167.245L184.057 165.954L178.51 198.133Z" fill="#E0E0E0"/>
<path d="M253.084 199.424H260.685V171.067H253.084V199.424Z" fill="#E0E0E0"/>
<path d="M235.62 199.424H243.222V171.067H235.62V199.424Z" fill="#E0E0E0"/>
<path d="M191.545 199.424H199.146V171.067H191.545V199.424Z" fill="#E0E0E0"/>
<path d="M209.644 197.76L217.064 199.409L223.216 171.727L215.796 170.078L209.644 197.76Z" fill="#E0E0E0"/>
<path d="M246.527 199.41H250.321V165.131H246.527V199.41Z" fill="#E0E0E0"/>
<path d="M201.341 199.41H205.135V165.131H201.341V199.41Z" fill="#E0E0E0"/>
<path d="M278.043 265.563H105.601V274.421H278.043V265.563Z" fill="#E0E0E0"/>
<path d="M121.135 232.91H113.533V265.563H121.135V232.91Z" fill="#E0E0E0"/>
<path d="M157.873 232.91H150.272V265.563H157.873V232.91Z" fill="#E0E0E0"/>
<path d="M199.581 232.087L192.09 233.379L197.637 265.557L205.128 264.266L199.581 232.087Z" fill="#E0E0E0"/>
<path d="M130.548 237.206H122.946V265.563H130.548V237.206Z" fill="#E0E0E0"/>
<path d="M148.011 237.206H140.41V265.563H148.011V237.206Z" fill="#E0E0E0"/>
<path d="M192.087 237.206H184.485V265.563H192.087V237.206Z" fill="#E0E0E0"/>
<path d="M167.863 236.216L160.442 237.865L166.594 265.546L174.015 263.897L167.863 236.216Z" fill="#E0E0E0"/>
<path d="M137.105 231.284H133.31V265.563H137.105V231.284Z" fill="#E0E0E0"/>
<path d="M182.291 231.284H178.496V265.563H182.291V231.284Z" fill="#E0E0E0"/>
<path d="M261.492 239.718H224.476V265.273H261.492V239.718Z" fill="#E0E0E0"/>
<path d="M456.976 185.159C471.235 185.159 482.794 173.6 482.794 159.341C482.794 145.081 471.235 133.522 456.976 133.522C442.717 133.522 431.157 145.081 431.157 159.341C431.157 173.6 442.717 185.159 456.976 185.159Z" fill="#E0E0E0"/>
<path d="M456.976 181.299C469.103 181.299 478.934 171.468 478.934 159.341C478.934 147.213 469.103 137.382 456.976 137.382C444.849 137.382 435.017 147.213 435.017 159.341C435.017 171.468 444.849 181.299 456.976 181.299Z" fill="#F0F0F0"/>
<path d="M455.945 144.283V159.632L445.765 153.868" fill="#F0F0F0"/>
<path d="M455.945 160.953C455.718 160.95 455.495 160.891 455.297 160.782L445.117 155.018C444.813 154.846 444.589 154.56 444.495 154.223C444.4 153.886 444.444 153.525 444.615 153.22C444.7 153.067 444.815 152.933 444.952 152.825C445.09 152.717 445.247 152.637 445.416 152.591C445.584 152.544 445.76 152.531 445.934 152.553C446.107 152.575 446.274 152.631 446.426 152.717L454.623 157.358V144.283C454.623 143.932 454.762 143.596 455.01 143.348C455.258 143.1 455.594 142.961 455.945 142.961C456.295 142.961 456.631 143.1 456.879 143.348C457.127 143.596 457.267 143.932 457.267 144.283V159.631C457.267 159.982 457.127 160.318 456.879 160.566C456.631 160.814 456.295 160.953 455.945 160.953Z" fill="#E0E0E0"/>
<path d="M330.5 565.234C472.063 565.234 586.823 558.534 586.823 550.269C586.823 542.004 472.063 535.304 330.5 535.304C188.937 535.304 74.1774 542.004 74.1774 550.269C74.1774 558.534 188.937 565.234 330.5 565.234Z" fill="#F5F5F5"/>
<path d="M558.558 168.793H295.454V417.911H558.558V168.793Z" fill="#9D9FAA"/>
<path opacity="0.7" d="M558.558 168.793H295.454V417.911H558.558V168.793Z" fill="white"/>
<path d="M558.558 168.793H295.454V181.471H558.558V168.793Z" fill="#424974"/>
<path opacity="0.2" d="M558.558 181.484H549.86V418.149H558.558V181.484Z" fill="black"/>
<path opacity="0.6" d="M554.698 187.089H553.905C552.678 187.089 551.684 188.084 551.684 189.31V217.839C551.684 219.066 552.678 220.06 553.905 220.06H554.698C555.925 220.06 556.919 219.066 556.919 217.839V189.31C556.919 188.084 555.925 187.089 554.698 187.089Z" fill="white"/>
<path opacity="0.2" d="M544.109 345.042H300.861C300.686 345.039 300.52 344.968 300.397 344.845C300.274 344.721 300.203 344.555 300.2 344.381C300.2 344.206 300.269 344.038 300.393 343.914C300.517 343.79 300.685 343.72 300.861 343.72H544.109C544.284 343.72 544.452 343.79 544.576 343.914C544.7 344.038 544.77 344.206 544.77 344.381C544.77 344.556 544.7 344.724 544.576 344.848C544.452 344.972 544.284 345.042 544.109 345.042Z" fill="black"/>
<path opacity="0.2" d="M544.109 288.196H300.861C300.686 288.193 300.52 288.122 300.397 287.999C300.274 287.875 300.203 287.709 300.2 287.535C300.2 287.36 300.269 287.192 300.393 287.068C300.517 286.944 300.685 286.874 300.861 286.874H544.109C544.284 286.874 544.452 286.944 544.576 287.068C544.7 287.192 544.77 287.36 544.77 287.535C544.77 287.71 544.7 287.878 544.576 288.002C544.452 288.126 544.284 288.196 544.109 288.196Z" fill="black"/>
<path d="M544.122 187.076H300.927V224.264H544.122V187.076Z" fill="#424974"/>
<path opacity="0.6" d="M555.531 175.139C555.531 175.769 555.344 176.385 554.994 176.909C554.644 177.433 554.146 177.841 553.564 178.082C552.982 178.323 552.341 178.386 551.723 178.263C551.105 178.14 550.538 177.837 550.092 177.391C549.646 176.946 549.343 176.378 549.22 175.76C549.097 175.142 549.16 174.502 549.401 173.919C549.643 173.337 550.051 172.84 550.575 172.489C551.099 172.139 551.715 171.953 552.345 171.953C553.19 171.953 554 172.288 554.598 172.886C555.195 173.483 555.531 174.294 555.531 175.139Z" fill="white"/>
<path opacity="0.6" d="M544.294 175.139C544.294 175.769 544.107 176.385 543.757 176.909C543.407 177.433 542.909 177.841 542.327 178.082C541.745 178.323 541.104 178.386 540.486 178.263C539.868 178.14 539.301 177.837 538.855 177.391C538.409 176.946 538.106 176.378 537.983 175.76C537.86 175.142 537.923 174.502 538.164 173.919C538.405 173.337 538.814 172.84 539.338 172.489C539.862 172.139 540.478 171.953 541.108 171.953C541.953 171.953 542.763 172.288 543.361 172.886C543.958 173.483 544.294 174.294 544.294 175.139Z" fill="white"/>
<path opacity="0.6" d="M533.057 175.139C533.057 175.769 532.87 176.385 532.52 176.909C532.17 177.433 531.672 177.841 531.09 178.082C530.508 178.323 529.867 178.386 529.249 178.263C528.631 178.14 528.064 177.837 527.618 177.391C527.172 176.946 526.869 176.378 526.746 175.76C526.623 175.142 526.686 174.502 526.927 173.919C527.169 173.337 527.577 172.84 528.101 172.489C528.625 172.139 529.241 171.953 529.871 171.953C530.716 171.953 531.526 172.288 532.124 172.886C532.721 173.483 533.057 174.294 533.057 175.139Z" fill="white"/>
<path opacity="0.4" d="M311.344 249.171C309.804 249.171 308.299 248.714 307.018 247.858C305.738 247.003 304.74 245.787 304.15 244.364C303.561 242.941 303.407 241.375 303.707 239.865C304.008 238.354 304.749 236.967 305.838 235.878C306.927 234.789 308.315 234.047 309.825 233.747C311.336 233.447 312.901 233.601 314.324 234.19C315.747 234.779 316.963 235.777 317.818 237.058C318.674 238.338 319.131 239.844 319.131 241.384C319.127 243.448 318.306 245.427 316.846 246.886C315.387 248.346 313.408 249.167 311.344 249.171Z" fill="black"/>
<path d="M312.296 238.423V244.332H310.974V239.52H309.797V238.423H312.296Z" fill="white"/>
<path opacity="0.4" d="M533.599 233.835H326.455C325.622 233.835 324.948 234.51 324.948 235.342V236.281C324.948 237.113 325.622 237.788 326.455 237.788H533.599C534.431 237.788 535.106 237.113 535.106 236.281V235.342C535.106 234.51 534.431 233.835 533.599 233.835Z" fill="black"/>
<path opacity="0.4" d="M533.599 244.107H326.455C325.622 244.107 324.948 244.782 324.948 245.614V246.553C324.948 247.385 325.622 248.06 326.455 248.06H533.599C534.431 248.06 535.106 247.385 535.106 246.553V245.614C535.106 244.782 534.431 244.107 533.599 244.107Z" fill="black"/>
<path opacity="0.4" d="M461.946 254.366H326.455C325.622 254.366 324.948 255.041 324.948 255.873V256.812C324.948 257.644 325.622 258.319 326.455 258.319H461.946C462.779 258.319 463.454 257.644 463.454 256.812V255.873C463.454 255.041 462.779 254.366 461.946 254.366Z" fill="black"/>
<path opacity="0.2" d="M328.57 277.673C330.563 277.673 332.179 276.057 332.179 274.064C332.179 272.071 330.563 270.455 328.57 270.455C326.577 270.455 324.961 272.071 324.961 274.064C324.961 276.057 326.577 277.673 328.57 277.673Z" fill="black"/>
<path d="M331.055 274.064C331.058 274.559 330.913 275.044 330.64 275.457C330.366 275.87 329.976 276.192 329.519 276.383C329.062 276.574 328.558 276.624 328.073 276.528C327.587 276.432 327.14 276.194 326.79 275.844C326.44 275.494 326.202 275.047 326.106 274.561C326.01 274.075 326.06 273.572 326.251 273.115C326.442 272.658 326.764 272.268 327.177 271.994C327.59 271.72 328.075 271.576 328.57 271.578C329.229 271.578 329.861 271.84 330.327 272.306C330.793 272.772 331.055 273.405 331.055 274.064Z" fill="white"/>
<path opacity="0.4" d="M375.342 272.094H340.362C339.53 272.094 338.855 272.769 338.855 273.601V274.54C338.855 275.372 339.53 276.047 340.362 276.047H375.342C376.175 276.047 376.849 275.372 376.849 274.54V273.601C376.849 272.769 376.175 272.094 375.342 272.094Z" fill="black"/>
<path opacity="0.2" d="M405.51 273.984C405.51 274.698 405.299 275.396 404.902 275.99C404.505 276.583 403.942 277.046 403.282 277.319C402.623 277.592 401.897 277.663 401.197 277.524C400.497 277.385 399.854 277.041 399.349 276.536C398.844 276.032 398.501 275.389 398.361 274.689C398.222 273.988 398.294 273.263 398.567 272.603C398.84 271.944 399.303 271.38 399.896 270.984C400.49 270.587 401.187 270.375 401.901 270.375C402.858 270.375 403.776 270.756 404.453 271.432C405.13 272.109 405.51 273.027 405.51 273.984Z" fill="black"/>
<path d="M404.4 273.985C404.402 274.479 404.258 274.964 403.985 275.376C403.712 275.789 403.323 276.111 402.867 276.302C402.41 276.493 401.908 276.545 401.422 276.45C400.936 276.355 400.49 276.118 400.139 275.769C399.788 275.42 399.549 274.975 399.452 274.49C399.354 274.005 399.403 273.502 399.592 273.045C399.78 272.587 400.101 272.196 400.512 271.921C400.923 271.646 401.407 271.499 401.901 271.499C402.562 271.499 403.195 271.761 403.663 272.226C404.132 272.692 404.396 273.324 404.4 273.985Z" fill="#424974"/>
<path opacity="0.4" d="M448.7 272.015H413.707C412.874 272.015 412.2 272.689 412.2 273.522V274.46C412.2 275.293 412.874 275.967 413.707 275.967H448.7C449.532 275.967 450.207 275.293 450.207 274.46V273.522C450.207 272.689 449.532 272.015 448.7 272.015Z" fill="black"/>
<path opacity="0.2" d="M478.855 273.905C478.855 274.619 478.643 275.317 478.247 275.91C477.85 276.504 477.286 276.966 476.627 277.239C475.967 277.513 475.242 277.584 474.542 277.445C473.842 277.306 473.198 276.962 472.694 276.457C472.189 275.952 471.845 275.309 471.706 274.609C471.567 273.909 471.638 273.184 471.911 272.524C472.185 271.865 472.647 271.301 473.241 270.904C473.834 270.508 474.532 270.296 475.246 270.296C476.203 270.296 477.121 270.676 477.798 271.353C478.475 272.03 478.855 272.948 478.855 273.905Z" fill="black"/>
<path d="M477.744 273.905C477.744 274.399 477.598 274.882 477.323 275.293C477.049 275.704 476.659 276.024 476.202 276.214C475.745 276.403 475.243 276.452 474.758 276.356C474.274 276.259 473.828 276.021 473.479 275.672C473.13 275.322 472.892 274.877 472.795 274.393C472.699 273.908 472.748 273.406 472.937 272.949C473.126 272.492 473.447 272.102 473.858 271.828C474.269 271.553 474.752 271.407 475.246 271.407C475.908 271.407 476.544 271.67 477.013 272.138C477.481 272.607 477.744 273.243 477.744 273.905Z" fill="white"/>
<path opacity="0.4" d="M522.031 271.922H487.051C486.219 271.922 485.544 272.597 485.544 273.429V274.368C485.544 275.2 486.219 275.875 487.051 275.875H522.031C522.864 275.875 523.538 275.2 523.538 274.368V273.429C523.538 272.597 522.864 271.922 522.031 271.922Z" fill="black"/>
<path opacity="0.4" d="M311.344 315.033C315.645 315.033 319.131 311.546 319.131 307.246C319.131 302.946 315.645 299.459 311.344 299.459C307.044 299.459 303.558 302.946 303.558 307.246C303.558 311.546 307.044 315.033 311.344 315.033Z" fill="black"/>
<path d="M313.592 309.137V310.247H309.136V309.348L311.41 307.193C311.939 306.691 312.032 306.387 312.032 306.109C312.032 305.832 311.714 305.369 311.08 305.369C310.844 305.361 310.61 305.411 310.397 305.515C310.185 305.618 310.002 305.773 309.864 305.964L308.872 305.316C309.142 304.955 309.497 304.667 309.905 304.475C310.313 304.284 310.762 304.196 311.212 304.219C312.534 304.219 313.407 304.893 313.407 305.964C313.399 306.33 313.305 306.69 313.133 307.014C312.961 307.338 312.715 307.616 312.415 307.828L311.093 309.15L313.592 309.137Z" fill="white"/>
<path opacity="0.4" d="M533.599 299.737H326.455C325.622 299.737 324.948 300.412 324.948 301.244V302.183C324.948 303.015 325.622 303.69 326.455 303.69H533.599C534.431 303.69 535.106 303.015 535.106 302.183V301.244C535.106 300.412 534.431 299.737 533.599 299.737Z" fill="black"/>
<path opacity="0.4" d="M365.824 309.996H326.455C325.622 309.996 324.948 310.671 324.948 311.503V312.441C324.948 313.274 325.622 313.949 326.455 313.949H365.824C366.656 313.949 367.331 313.274 367.331 312.441V311.503C367.331 310.671 366.656 309.996 365.824 309.996Z" fill="black"/>
<path opacity="0.2" d="M328.57 333.144C330.563 333.144 332.179 331.528 332.179 329.535C332.179 327.542 330.563 325.926 328.57 325.926C326.577 325.926 324.961 327.542 324.961 329.535C324.961 331.528 326.577 333.144 328.57 333.144Z" fill="black"/>
<path d="M328.57 332.034C329.95 332.034 331.068 330.915 331.068 329.535C331.068 328.155 329.95 327.036 328.57 327.036C327.19 327.036 326.071 328.155 326.071 329.535C326.071 330.915 327.19 332.034 328.57 332.034Z" fill="white"/>
<path opacity="0.4" d="M375.342 327.565H340.362C339.53 327.565 338.855 328.24 338.855 329.072V330.011C338.855 330.843 339.53 331.518 340.362 331.518H375.342C376.175 331.518 376.849 330.843 376.849 330.011V329.072C376.849 328.24 376.175 327.565 375.342 327.565Z" fill="black"/>
<path opacity="0.2" d="M401.901 333.065C403.894 333.065 405.51 331.449 405.51 329.456C405.51 327.462 403.894 325.847 401.901 325.847C399.908 325.847 398.292 327.462 398.292 329.456C398.292 331.449 399.908 333.065 401.901 333.065Z" fill="black"/>
<path d="M401.901 331.954C403.281 331.954 404.4 330.836 404.4 329.456C404.4 328.076 403.281 326.957 401.901 326.957C400.521 326.957 399.403 328.076 399.403 329.456C399.403 330.836 400.521 331.954 401.901 331.954Z" fill="white"/>
<path opacity="0.4" d="M448.7 327.473H413.707C412.874 327.473 412.2 328.147 412.2 328.98V329.918C412.2 330.751 412.874 331.425 413.707 331.425H448.7C449.532 331.425 450.207 330.751 450.207 329.918V328.98C450.207 328.147 449.532 327.473 448.7 327.473Z" fill="black"/>
<path opacity="0.2" d="M478.855 329.376C478.855 330.09 478.643 330.788 478.247 331.381C477.85 331.975 477.286 332.437 476.627 332.711C475.967 332.984 475.242 333.055 474.542 332.916C473.842 332.777 473.198 332.433 472.694 331.928C472.189 331.424 471.845 330.78 471.706 330.08C471.567 329.38 471.638 328.655 471.911 327.995C472.185 327.336 472.647 326.772 473.241 326.375C473.834 325.979 474.532 325.767 475.246 325.767C476.203 325.767 477.121 326.147 477.798 326.824C478.475 327.501 478.855 328.419 478.855 329.376Z" fill="black"/>
<path d="M477.744 329.376C477.744 329.87 477.598 330.354 477.323 330.764C477.049 331.175 476.659 331.496 476.202 331.685C475.745 331.874 475.243 331.923 474.758 331.827C474.274 331.73 473.828 331.493 473.479 331.143C473.13 330.794 472.892 330.348 472.795 329.864C472.699 329.379 472.748 328.877 472.937 328.42C473.126 327.964 473.447 327.573 473.858 327.299C474.269 327.024 474.752 326.878 475.246 326.878C475.908 326.878 476.544 327.141 477.013 327.61C477.481 328.078 477.744 328.714 477.744 329.376Z" fill="#424974"/>
<path opacity="0.4" d="M522.031 327.393H487.051C486.219 327.393 485.544 328.068 485.544 328.9V329.839C485.544 330.671 486.219 331.346 487.051 331.346H522.031C522.864 331.346 523.538 330.671 523.538 329.839V328.9C523.538 328.068 522.864 327.393 522.031 327.393Z" fill="black"/>
<path opacity="0.4" d="M311.344 372.222C309.804 372.222 308.299 371.766 307.018 370.91C305.738 370.054 304.74 368.838 304.15 367.416C303.561 365.993 303.407 364.427 303.707 362.917C304.008 361.406 304.749 360.019 305.838 358.93C306.927 357.841 308.315 357.099 309.825 356.799C311.336 356.498 312.901 356.653 314.324 357.242C315.747 357.831 316.963 358.829 317.818 360.11C318.674 361.39 319.131 362.896 319.131 364.436C319.131 366.501 318.31 368.481 316.85 369.942C315.39 371.402 313.409 372.222 311.344 372.222Z" fill="black"/>
<path d="M313.539 365.533C313.539 366.525 312.772 367.437 311.093 367.437C310.297 367.456 309.514 367.234 308.846 366.802L309.374 365.758C309.866 366.103 310.452 366.288 311.053 366.287C311.741 366.287 312.164 366.009 312.164 365.533C312.164 365.057 311.833 364.806 311.053 364.806H310.432V363.907L311.648 362.585H309.136V361.488H313.314V362.373L311.992 363.894C312.408 363.924 312.798 364.108 313.085 364.412C313.371 364.716 313.533 365.116 313.539 365.533Z" fill="white"/>
<path opacity="0.4" d="M533.599 356.874H326.455C325.622 356.874 324.948 357.549 324.948 358.381V359.32C324.948 360.152 325.622 360.827 326.455 360.827H533.599C534.431 360.827 535.106 360.152 535.106 359.32V358.381C535.106 357.549 534.431 356.874 533.599 356.874Z" fill="black"/>
<path opacity="0.4" d="M533.599 367.133H326.455C325.622 367.133 324.948 367.807 324.948 368.64V369.578C324.948 370.411 325.622 371.085 326.455 371.085H533.599C534.431 371.085 535.106 370.411 535.106 369.578V368.64C535.106 367.807 534.431 367.133 533.599 367.133Z" fill="black"/>
<path opacity="0.4" d="M430.218 377.405H326.455C325.622 377.405 324.948 378.079 324.948 378.912V379.85C324.948 380.683 325.622 381.357 326.455 381.357H430.218C431.051 381.357 431.726 380.683 431.726 379.85V378.912C431.726 378.079 431.051 377.405 430.218 377.405Z" fill="black"/>
<path opacity="0.4" d="M404.981 393.744H398.821C398.529 393.744 398.292 393.981 398.292 394.273V400.434C398.292 400.726 398.529 400.963 398.821 400.963H404.981C405.273 400.963 405.51 400.726 405.51 400.434V394.273C405.51 393.981 405.273 393.744 404.981 393.744Z" fill="black"/>
<path d="M404.651 400.103V394.617H399.165V400.103H404.651Z" fill="white"/>
<path opacity="0.4" d="M448.7 395.384H413.707C412.874 395.384 412.2 396.058 412.2 396.891V397.829C412.2 398.662 412.874 399.337 413.707 399.337H448.7C449.532 399.337 450.207 398.662 450.207 397.829V396.891C450.207 396.058 449.532 395.384 448.7 395.384Z" fill="black"/>
<path d="M401.61 398.94C401.569 398.941 401.527 398.933 401.488 398.917C401.45 398.901 401.415 398.878 401.386 398.847L400.064 397.605C400.002 397.541 399.968 397.455 399.968 397.367C399.968 397.278 400.002 397.193 400.064 397.129C400.094 397.097 400.131 397.071 400.172 397.054C400.213 397.037 400.257 397.028 400.302 397.028C400.346 397.028 400.39 397.037 400.431 397.054C400.472 397.071 400.509 397.097 400.54 397.129L401.663 398.147L403.58 395.873C403.636 395.805 403.717 395.761 403.805 395.753C403.893 395.744 403.981 395.771 404.049 395.827C404.118 395.883 404.161 395.964 404.17 396.052C404.178 396.14 404.152 396.228 404.096 396.296L401.888 398.821C401.829 398.886 401.75 398.928 401.663 398.94H401.61Z" fill="#424974"/>
<path opacity="0.4" d="M478.326 393.665H472.166C471.873 393.665 471.637 393.902 471.637 394.194V400.354C471.637 400.647 471.873 400.883 472.166 400.883H478.326C478.618 400.883 478.855 400.647 478.855 400.354V394.194C478.855 393.902 478.618 393.665 478.326 393.665Z" fill="black"/>
<path d="M477.982 400.024V394.538H472.496V400.024H477.982Z" fill="white"/>
<path opacity="0.4" d="M522.031 395.291H487.051C486.219 395.291 485.544 395.966 485.544 396.798V397.737C485.544 398.569 486.219 399.244 487.051 399.244H522.031C522.864 399.244 523.538 398.569 523.538 397.737V396.798C523.538 395.966 522.864 395.291 522.031 395.291Z" fill="black"/>
<path d="M474.955 398.861C474.872 398.856 474.793 398.823 474.73 398.768L473.408 397.512C473.37 397.485 473.338 397.449 473.314 397.409C473.29 397.368 473.275 397.322 473.271 397.275C473.266 397.228 473.272 397.181 473.287 397.136C473.302 397.091 473.327 397.05 473.359 397.016C473.392 396.981 473.431 396.954 473.475 396.937C473.519 396.919 473.566 396.911 473.613 396.913C473.66 396.914 473.707 396.927 473.749 396.948C473.791 396.969 473.828 396.999 473.858 397.036L474.968 398.054L476.898 395.78C476.924 395.742 476.958 395.709 476.997 395.684C477.036 395.659 477.081 395.643 477.127 395.636C477.173 395.629 477.22 395.633 477.265 395.646C477.309 395.658 477.351 395.68 477.386 395.71C477.422 395.74 477.451 395.778 477.471 395.82C477.491 395.861 477.503 395.907 477.504 395.954C477.505 396 477.497 396.047 477.479 396.09C477.461 396.133 477.434 396.171 477.401 396.203L475.259 398.742C475.195 398.807 475.111 398.849 475.021 398.861H474.955Z" fill="#424974"/>
<path opacity="0.4" d="M331.637 393.824H325.476C325.184 393.824 324.948 394.061 324.948 394.353V400.513C324.948 400.805 325.184 401.042 325.476 401.042H331.637C331.929 401.042 332.166 400.805 332.166 400.513V394.353C332.166 394.061 331.929 393.824 331.637 393.824Z" fill="black"/>
<path d="M331.306 400.183V394.696H325.82V400.183H331.306Z" fill="white"/>
<path opacity="0.4" d="M375.342 395.463H340.362C339.53 395.463 338.855 396.138 338.855 396.97V397.909C338.855 398.741 339.53 399.416 340.362 399.416H375.342C376.175 399.416 376.849 398.741 376.849 397.909V396.97C376.849 396.138 376.175 395.463 375.342 395.463Z" fill="black"/>
<path d="M312.587 204.487C312.529 203.475 312.776 202.468 313.296 201.598C313.816 200.727 314.586 200.033 315.506 199.606C316.425 199.178 317.451 199.036 318.452 199.198C319.453 199.36 320.383 199.82 321.119 200.516C321.856 201.213 322.367 202.114 322.586 203.105C322.805 204.095 322.721 205.128 322.346 206.07C321.97 207.012 321.321 207.819 320.481 208.388C319.642 208.957 318.651 209.26 317.637 209.259C316.987 209.297 316.337 209.202 315.725 208.979C315.114 208.756 314.554 208.411 314.081 207.964C313.608 207.517 313.232 206.978 312.975 206.38C312.718 205.782 312.586 205.138 312.587 204.487ZM320.519 204.487C320.508 203.917 320.33 203.362 320.005 202.893C319.681 202.424 319.225 202.061 318.696 201.85C318.166 201.639 317.585 201.589 317.027 201.707C316.469 201.824 315.958 202.104 315.559 202.511C315.159 202.918 314.888 203.434 314.781 203.994C314.673 204.554 314.734 205.134 314.954 205.66C315.175 206.186 315.546 206.635 316.021 206.951C316.496 207.266 317.053 207.435 317.624 207.435C318.012 207.446 318.399 207.377 318.759 207.233C319.12 207.088 319.447 206.871 319.72 206.594C319.992 206.317 320.205 205.988 320.345 205.625C320.485 205.263 320.549 204.875 320.532 204.487H320.519Z" fill="white"/>
<path d="M331.399 205.042V209.101H329.35V205.359C329.35 204.209 328.821 203.681 327.909 203.681C326.997 203.681 326.204 204.289 326.204 205.597V209.101H324.154V202.002H326.111V202.834C326.416 202.522 326.783 202.277 327.188 202.116C327.593 201.954 328.028 201.879 328.464 201.896C328.875 201.869 329.287 201.933 329.67 202.085C330.053 202.236 330.398 202.471 330.678 202.772C330.959 203.073 331.17 203.433 331.294 203.826C331.419 204.219 331.455 204.634 331.399 205.042Z" fill="white"/>
<path d="M333.263 199.318H335.312V209.101H333.263V199.318Z" fill="white"/>
<path d="M336.978 199.873C336.98 199.708 337.017 199.545 337.087 199.395C337.157 199.245 337.257 199.111 337.382 199.003C337.507 198.894 337.653 198.813 337.811 198.765C337.969 198.717 338.136 198.703 338.3 198.723C338.461 198.699 338.626 198.709 338.783 198.753C338.941 198.797 339.087 198.874 339.212 198.98C339.337 199.085 339.438 199.215 339.509 199.362C339.579 199.51 339.618 199.67 339.622 199.833C339.546 200.114 339.38 200.361 339.149 200.537C338.918 200.713 338.636 200.809 338.346 200.809C338.056 200.809 337.774 200.713 337.543 200.537C337.313 200.361 337.146 200.114 337.07 199.833L336.978 199.873ZM337.229 202.002H339.291V209.101H337.229V202.002Z" fill="white"/>
<path d="M348.453 205.042V209.101H346.364V205.359C346.364 204.209 345.835 203.681 344.923 203.681C344.011 203.681 343.231 204.289 343.231 205.597V209.101H341.169V202.002H343.138V202.834C343.44 202.522 343.805 202.277 344.208 202.115C344.611 201.953 345.044 201.878 345.478 201.896C345.892 201.865 346.307 201.926 346.694 202.076C347.081 202.226 347.429 202.46 347.714 202.761C347.999 203.063 348.213 203.424 348.341 203.818C348.469 204.213 348.507 204.631 348.453 205.042Z" fill="white"/>
<path d="M357.297 206.139H351.93C352.039 206.58 352.304 206.966 352.676 207.226C353.048 207.486 353.501 207.602 353.952 207.554C354.28 207.566 354.606 207.513 354.913 207.397C355.219 207.281 355.499 207.105 355.737 206.88L356.834 208.056C356.459 208.451 356.001 208.758 355.494 208.957C354.987 209.156 354.443 209.241 353.899 209.206C353.389 209.256 352.874 209.199 352.388 209.038C351.901 208.878 351.453 208.618 351.072 208.274C350.691 207.931 350.387 207.512 350.177 207.044C349.967 206.577 349.857 206.07 349.854 205.558C349.848 205.064 349.943 204.574 350.134 204.118C350.324 203.663 350.605 203.251 350.961 202.908C351.316 202.565 351.738 202.298 352.2 202.124C352.662 201.95 353.155 201.872 353.648 201.896C354.139 201.871 354.63 201.95 355.088 202.126C355.547 202.303 355.964 202.574 356.311 202.921C356.659 203.269 356.929 203.685 357.106 204.144C357.283 204.603 357.361 205.093 357.337 205.584C357.337 205.743 357.31 205.968 357.297 206.139ZM351.903 204.936H355.393C355.321 204.526 355.107 204.153 354.788 203.885C354.469 203.617 354.065 203.47 353.648 203.47C353.231 203.47 352.828 203.617 352.508 203.885C352.189 204.153 351.975 204.526 351.903 204.936Z" fill="white"/>
<path d="M364.489 201.605H361.541V199.873H369.578V201.605H366.63V209.101H364.489V201.605Z" fill="white"/>
<path d="M376.77 206.139H371.403C371.512 206.58 371.777 206.966 372.149 207.226C372.521 207.486 372.974 207.602 373.425 207.554C373.753 207.566 374.079 207.513 374.386 207.397C374.692 207.281 374.973 207.105 375.21 206.88L376.307 208.056C375.932 208.451 375.474 208.758 374.967 208.957C374.46 209.156 373.916 209.241 373.372 209.206C372.862 209.256 372.347 209.199 371.861 209.038C371.374 208.878 370.926 208.618 370.545 208.274C370.164 207.931 369.86 207.512 369.65 207.044C369.44 206.577 369.33 206.07 369.327 205.558C369.321 205.065 369.416 204.576 369.605 204.122C369.795 203.667 370.075 203.255 370.429 202.913C370.783 202.57 371.203 202.303 371.664 202.128C372.124 201.953 372.616 201.874 373.108 201.896C373.6 201.869 374.092 201.946 374.552 202.122C375.013 202.298 375.431 202.569 375.78 202.916C376.129 203.264 376.401 203.681 376.578 204.141C376.756 204.6 376.834 205.092 376.81 205.584C376.77 205.743 376.77 205.968 376.77 206.139ZM371.376 204.936H374.866C374.795 204.526 374.58 204.153 374.261 203.885C373.942 203.617 373.538 203.47 373.121 203.47C372.704 203.47 372.301 203.617 371.982 203.885C371.662 204.153 371.448 204.526 371.376 204.936Z" fill="white"/>
<path d="M377.484 208.44L378.171 206.972C378.923 207.408 379.775 207.64 380.643 207.647C381.595 207.647 381.965 207.395 381.965 207.012C381.965 205.849 377.669 207.012 377.669 204.196C377.669 202.874 378.885 201.896 380.961 201.896C381.906 201.878 382.841 202.091 383.684 202.517L382.997 203.985C382.378 203.628 381.675 203.446 380.961 203.456C380.035 203.456 379.639 203.747 379.639 204.117C379.639 205.333 383.922 204.117 383.922 206.959C383.922 208.281 382.693 209.206 380.577 209.206C379.497 209.229 378.429 208.965 377.484 208.44Z" fill="white"/>
<path d="M389.752 208.757C389.25 209.072 388.665 209.229 388.073 209.207C387.723 209.256 387.367 209.226 387.031 209.118C386.695 209.01 386.387 208.826 386.133 208.582C385.878 208.337 385.682 208.038 385.56 207.706C385.438 207.375 385.393 207.02 385.429 206.668V203.747H384.332V202.16H385.429V200.442H387.478V202.16H389.25V203.747H387.478V206.642C387.462 206.764 387.473 206.888 387.511 207.005C387.549 207.122 387.613 207.229 387.698 207.318C387.783 207.407 387.887 207.475 388.003 207.518C388.118 207.562 388.241 207.578 388.364 207.567C388.663 207.571 388.955 207.478 389.197 207.303L389.752 208.757Z" fill="white"/>
<path d="M529.97 213.231C534.064 209.137 534.064 202.5 529.97 198.406C525.876 194.312 519.238 194.312 515.144 198.406C511.05 202.5 511.05 209.137 515.144 213.231C519.238 217.325 525.876 217.325 529.97 213.231Z" fill="white"/>
<path opacity="0.2" d="M531.841 200.944L522.587 205.835V195.352C524.492 195.355 526.36 195.878 527.99 196.863C529.621 197.848 530.952 199.259 531.841 200.944Z" fill="black"/>
<path d="M502.876 528.509C502.876 528.509 508.587 501.501 498.183 486.879C487.778 472.258 507.582 486.708 509.869 500.403C509.869 500.403 513.28 475.92 503.18 458.708C493.08 441.495 511.971 455.614 513.584 473.369C513.584 473.369 516.677 451.529 512.037 439.248C507.397 426.966 515.461 434.872 518.568 442.566C521.674 450.26 517.603 469.31 517.603 469.31C517.603 469.31 525.693 434.079 533.361 436.881C541.028 439.684 521.899 462.766 519.255 474.77C519.255 474.77 528.284 458.615 535.119 461.986C541.954 465.357 524.543 467.023 516.505 491.07L513.716 502.36C513.716 502.36 522.031 486.417 527.465 491.454C532.898 496.49 511.35 505.163 506.313 529.329L502.876 528.509Z" fill="#263238"/>
<path d="M503.999 530.122C503.999 530.122 505.189 496.081 522.018 481.671C538.847 467.261 510.808 478.67 503.999 494.388C503.999 494.388 507.198 464.048 524.411 446.426C541.623 428.804 514.8 440.12 507.595 460.889C507.595 460.889 510.398 433.814 519.612 420.502C528.826 407.189 516.809 414.222 510.808 422.511C504.806 430.8 503.999 454.768 503.999 454.768C503.999 454.768 504.792 410.164 494.745 411.248C484.698 412.332 500.747 445.62 500.351 460.823C500.351 460.823 494.335 438.785 485.134 440.768C475.933 442.751 496.345 450.022 498.751 481.195V495.565C498.751 495.565 493.542 473.99 485.531 478.379C477.52 482.768 500.747 499.61 499.544 530.043L503.999 530.122Z" fill="#263238"/>
<path opacity="0.2" d="M503.999 530.122C503.999 530.122 505.189 496.081 522.018 481.671C538.847 467.261 510.808 478.67 503.999 494.388C503.999 494.388 507.198 464.048 524.411 446.426C541.623 428.804 514.8 440.12 507.595 460.889C507.595 460.889 510.398 433.814 519.612 420.502C528.826 407.189 516.809 414.222 510.808 422.511C504.806 430.8 503.999 454.768 503.999 454.768C503.999 454.768 504.792 410.164 494.745 411.248C484.698 412.332 500.747 445.62 500.351 460.823C500.351 460.823 494.335 438.785 485.134 440.768C475.933 442.751 496.345 450.022 498.751 481.195V495.565C498.751 495.565 493.542 473.99 485.531 478.379C477.52 482.768 500.747 499.61 499.544 530.043L503.999 530.122Z" fill="white"/>
<path d="M512.301 554.037H491.916C488.059 554.037 484.361 552.505 481.633 549.778C478.906 547.051 477.374 543.352 477.374 539.495V536.758H526.83V539.495C526.83 543.349 525.3 547.046 522.576 549.773C519.851 552.5 516.156 554.033 512.301 554.037Z" fill="#424974"/>
<path d="M476.475 542.245H527.742C530.816 542.245 533.308 539.753 533.308 536.679V532.343C533.308 529.269 530.816 526.777 527.742 526.777H476.475C473.401 526.777 470.91 529.269 470.91 532.343V536.679C470.91 539.753 473.401 542.245 476.475 542.245Z" fill="#424974"/>
<path opacity="0.2" d="M476.475 542.245H527.742C530.816 542.245 533.308 539.753 533.308 536.679V532.343C533.308 529.269 530.816 526.777 527.742 526.777H476.475C473.401 526.777 470.91 529.269 470.91 532.343V536.679C470.91 539.753 473.401 542.245 476.475 542.245Z" fill="white"/>
<path d="M227.001 368.137C226.816 368.519 226.736 368.944 226.769 369.367C226.802 369.79 226.948 370.196 227.19 370.545C227.432 370.893 227.762 371.171 228.147 371.35C228.532 371.528 228.958 371.601 229.38 371.561H291.99C293.031 371.511 294.035 371.161 294.882 370.554C295.728 369.946 296.382 369.107 296.762 368.137L309.982 329.932C310.114 329.576 310.181 329.2 310.181 328.821C310.179 328.495 310.109 328.173 309.975 327.875C309.841 327.578 309.647 327.312 309.404 327.094C309.161 326.876 308.875 326.711 308.565 326.61C308.255 326.509 307.927 326.474 307.603 326.508H245.033C243.992 326.558 242.988 326.908 242.141 327.515C241.294 328.122 240.641 328.962 240.26 329.932L227.001 368.137Z" fill="#263238"/>
<path d="M292.466 369.644C292.977 369.621 293.469 369.449 293.885 369.151C294.3 368.854 294.62 368.442 294.806 367.965L308.026 329.76C308.081 329.607 308.108 329.446 308.105 329.284C308.105 328.755 307.722 328.424 307.114 328.424H244.57C244.059 328.448 243.567 328.619 243.151 328.917C242.736 329.215 242.416 329.627 242.23 330.103L229.01 368.309C228.942 368.463 228.913 368.632 228.925 368.8C228.936 368.968 228.988 369.131 229.076 369.274C229.175 369.402 229.304 369.502 229.452 369.567C229.6 369.632 229.762 369.658 229.922 369.644H292.466Z" fill="#424974"/>
<path opacity="0.8" d="M292.466 369.644C292.977 369.621 293.469 369.449 293.885 369.151C294.3 368.854 294.62 368.442 294.806 367.965L308.026 329.76C308.081 329.607 308.108 329.446 308.105 329.284C308.105 328.755 307.722 328.424 307.114 328.424H244.57C244.059 328.448 243.567 328.619 243.151 328.917C242.736 329.215 242.416 329.627 242.23 330.103L229.01 368.309C228.942 368.463 228.913 368.632 228.925 368.8C228.936 368.968 228.988 369.131 229.076 369.274C229.175 369.402 229.304 369.502 229.452 369.567C229.6 369.632 229.762 369.658 229.922 369.644H292.466Z" fill="white"/>
<path d="M200.204 368.732V370.491L212.604 373.677H291.699C292.285 373.677 292.846 373.444 293.26 373.03C293.674 372.616 293.907 372.054 293.907 371.469V368.732H200.204Z" fill="#263238"/>
<path opacity="0.2" d="M266.383 368.732V370.491L278.797 373.677H212.604L200.204 370.491V368.732H266.383Z" fill="white"/>
<g opacity="0.2">
<path opacity="0.2" d="M304.086 337.401H240.802L243.261 330.5H306.545L304.086 337.401Z" fill="#424974"/>
</g>
<g opacity="0.1">
<path opacity="0.1" d="M300.914 346.285H237.63C237.444 346.285 237.352 346.139 237.418 345.941C237.454 345.848 237.515 345.766 237.594 345.706C237.674 345.645 237.768 345.608 237.867 345.597H301.165C301.337 345.597 301.429 345.756 301.363 345.941C301.331 346.037 301.272 346.121 301.191 346.182C301.111 346.243 301.014 346.279 300.914 346.285Z" fill="black"/>
</g>
<g opacity="0.1">
<path opacity="0.1" d="M297.45 355.975H234.166C233.981 355.975 233.888 355.816 233.954 355.631C233.991 355.536 234.054 355.454 234.136 355.393C234.218 355.332 234.315 355.295 234.417 355.288H297.701C297.886 355.288 297.979 355.433 297.913 355.631C297.876 355.726 297.813 355.809 297.731 355.87C297.649 355.93 297.552 355.967 297.45 355.975Z" fill="black"/>
</g>
<g opacity="0.1">
<path opacity="0.1" d="M294 365.665H230.715C230.53 365.665 230.438 365.507 230.504 365.321C230.535 365.224 230.594 365.138 230.674 365.075C230.754 365.011 230.852 364.973 230.953 364.965H294.238C294.423 364.965 294.515 365.123 294.449 365.321C294.414 365.415 294.354 365.498 294.274 365.558C294.195 365.619 294.099 365.656 294 365.665Z" fill="black"/>
</g>
<path d="M272.953 553.878H279.841L292.228 381.437H283.08L272.953 553.878Z" fill="#263238"/>
<path opacity="0.2" d="M272.94 553.878H279.841L291.62 390.003L292.228 381.714H283.08L282.591 390.003L272.94 553.878Z" fill="white"/>
<path opacity="0.2" d="M282.591 389.593H291.62L292.228 381.714H283.08L282.591 389.593Z" fill="black"/>
<path d="M222.36 553.878H229.248L230.372 381.437H221.237L222.36 553.878Z" fill="#263238"/>
<path opacity="0.3" d="M221.223 381.714L221.409 409.529L222.347 553.878H229.248L230.2 409.529L230.372 381.714H221.223Z" fill="white"/>
<path opacity="0.2" d="M221.223 381.714L221.409 409.846H230.2L230.372 381.714H221.223Z" fill="black"/>
<path d="M149.174 553.878H156.062L168.449 381.437H159.301L149.174 553.878Z" fill="#263238"/>
<path opacity="0.3" d="M149.174 553.878H156.062L167.854 390.003L168.449 381.714H159.301L158.812 390.003L149.174 553.878Z" fill="white"/>
<path opacity="0.2" d="M158.812 389.593H167.854L168.449 381.714H159.301L158.812 389.593Z" fill="black"/>
<path d="M351.811 553.878H358.698L348.572 381.437H339.423L351.811 553.878Z" fill="#263238"/>
<path opacity="0.3" d="M339.423 381.714L340.032 390.003L351.811 553.878H358.698L349.061 390.003L348.572 381.714H339.423Z" fill="white"/>
<path opacity="0.2" d="M348.572 381.714H339.423L340.032 389.593H349.061L348.572 381.714Z" fill="black"/>
<path d="M352.961 385.76H154.899C154.524 385.76 154.152 385.686 153.806 385.542C153.46 385.399 153.145 385.188 152.88 384.923C152.614 384.658 152.404 384.343 152.261 383.997C152.117 383.65 152.043 383.279 152.043 382.904V377.127H355.843V382.904C355.843 383.281 355.768 383.655 355.623 384.003C355.478 384.351 355.265 384.667 354.997 384.933C354.729 385.198 354.411 385.408 354.062 385.55C353.712 385.692 353.338 385.763 352.961 385.76Z" fill="#424974"/>
<path opacity="0.2" d="M152.056 381.437H355.816V377.114H152.056V381.437Z" fill="black"/>
<path d="M147.786 378.237H360.086C360.732 378.237 361.35 377.981 361.806 377.525C362.263 377.069 362.519 376.45 362.519 375.805C362.519 375.16 362.263 374.541 361.806 374.085C361.35 373.629 360.732 373.372 360.086 373.372H147.786C147.141 373.372 146.523 373.629 146.066 374.085C145.61 374.541 145.354 375.16 145.354 375.805C145.354 376.45 145.61 377.069 146.066 377.525C146.523 377.981 147.141 378.237 147.786 378.237Z" fill="#424974"/>
<path d="M353.305 367.252C353.398 369.351 353.013 371.443 352.181 373.372H303.809V372.222H304.787V362.228H303.809V361.078H352.181C353.009 363.027 353.392 365.136 353.305 367.252Z" fill="#263238"/>
<path opacity="0.2" d="M353.305 367.252C353.398 369.351 353.013 371.443 352.181 373.372H303.809V372.222H304.787V362.228H303.809V361.078H352.181C353.009 363.027 353.392 365.136 353.305 367.252Z" fill="white"/>
<path opacity="0.2" d="M327.42 367.252C327.513 369.351 327.129 371.443 326.296 373.372H303.822V372.222H304.8V362.228H303.822V361.078H326.296C327.124 363.027 327.508 365.136 327.42 367.252Z" fill="black"/>
<path opacity="0.8" d="M325.04 367.252C325.117 368.956 324.805 370.656 324.128 372.222H304.787V362.228H324.128C324.799 363.815 325.111 365.53 325.04 367.252Z" fill="white"/>
<path opacity="0.6" d="M345.425 367.252C345.518 369.351 345.134 371.443 344.302 373.372H335.299C336.131 371.443 336.516 369.351 336.423 367.252C336.505 365.149 336.121 363.054 335.299 361.118H344.302C345.124 363.054 345.507 365.149 345.425 367.252Z" fill="white"/>
<path d="M357.614 354.997C357.707 357.096 357.323 359.188 356.49 361.118H308.119V359.967H309.097V350.013H308.119V348.863H356.49C357.31 350.8 357.694 352.894 357.614 354.997Z" fill="#424974"/>
<path opacity="0.2" d="M331.729 354.997C331.822 357.096 331.438 359.188 330.606 361.118H308.132V359.967H309.11V350.013H308.132V348.863H330.606C331.425 350.8 331.809 352.894 331.729 354.997Z" fill="black"/>
<path opacity="0.8" d="M329.35 354.997C329.426 356.701 329.114 358.401 328.438 359.967H309.097V350.013H328.438C329.103 351.587 329.415 353.289 329.35 354.997Z" fill="white"/>
<path opacity="0.2" d="M349.735 354.997C349.828 357.096 349.444 359.188 348.611 361.118H339.609C340.441 359.188 340.825 357.096 340.732 354.997C340.812 352.894 340.428 350.8 339.609 348.863H348.611C349.431 350.8 349.814 352.894 349.735 354.997Z" fill="black"/>
<path d="M195.325 524.398L191.069 544.096L180.982 543.924L185.199 524.398H195.325Z" fill="#EBB376"/>
<path opacity="0.2" d="M195.339 524.398L193.223 534.141L183.229 533.467L185.199 524.398H195.339Z" fill="black"/>
<path d="M192.589 543.593H192.8C192.8 543.593 193.025 543.673 193.052 543.699C193.078 543.725 193.052 543.699 193.052 543.699C193.064 543.705 193.078 543.708 193.091 543.708C193.105 543.708 193.119 543.705 193.131 543.699C193.989 543.975 194.876 544.152 195.775 544.228C196.439 544.35 197.125 544.212 197.692 543.844C197.878 543.686 198.013 543.475 198.079 543.24C198.145 543.004 198.139 542.755 198.062 542.522C198.043 542.371 197.988 542.227 197.9 542.102C197.813 541.978 197.696 541.877 197.56 541.809C196.594 541.649 195.603 541.831 194.757 542.324C195.356 541.703 195.708 540.885 195.748 540.024C195.711 539.821 195.608 539.636 195.455 539.497C195.303 539.358 195.108 539.274 194.902 539.257C194.707 539.222 194.506 539.228 194.313 539.273C194.12 539.318 193.938 539.403 193.779 539.521C192.721 540.434 192.549 543.289 192.549 543.487L192.589 543.593ZM193.673 543.012L193.475 543.131C193.411 542.039 193.708 540.956 194.321 540.05C194.389 539.985 194.47 539.935 194.559 539.903C194.648 539.871 194.742 539.858 194.836 539.865H194.955C195.286 539.865 195.365 540.09 195.365 540.235C195.149 541.332 194.549 542.317 193.673 543.012ZM193.818 543.514C195.035 542.84 196.766 542.113 197.414 542.403C197.479 542.436 197.535 542.485 197.577 542.545C197.619 542.605 197.644 542.674 197.652 542.747C197.689 542.894 197.687 543.047 197.648 543.193C197.609 543.339 197.533 543.472 197.427 543.58C196.978 544.003 195.656 543.977 193.818 543.514Z" fill="#424974"/>
<path d="M192.351 542.364L181.048 541.663C180.954 541.652 180.859 541.66 180.768 541.686C180.677 541.712 180.592 541.756 180.519 541.815C180.445 541.874 180.384 541.947 180.338 542.03C180.293 542.113 180.265 542.204 180.255 542.298L179.144 551.221C179.119 551.689 179.277 552.149 179.586 552.503C179.894 552.856 180.329 553.074 180.797 553.112C184.763 553.283 186.64 553.178 191.611 553.442C196.027 553.912 200.471 554.071 204.91 553.918C209.127 553.508 208.612 549.344 206.787 549.146C202.477 548.656 196.766 545.484 194.056 543.078C193.582 542.658 192.983 542.407 192.351 542.364Z" fill="#263238"/>
<path d="M254.379 524.398L250.122 544.096L240.022 543.924L244.253 524.398H254.379Z" fill="#EBB376"/>
<path opacity="0.2" d="M254.379 524.398L252.264 534.141L242.27 533.467L244.239 524.398H254.379Z" fill="black"/>
<path d="M251.629 543.593H251.841C251.841 543.593 252.066 543.672 252.105 543.699C252.145 543.725 252.105 543.699 252.105 543.699C252.118 543.705 252.131 543.708 252.145 543.708C252.159 543.708 252.172 543.705 252.185 543.699C253.043 543.974 253.93 544.151 254.829 544.228C255.497 544.353 256.189 544.216 256.759 543.844C256.943 543.684 257.075 543.473 257.138 543.238C257.202 543.002 257.194 542.753 257.116 542.522C257.101 542.37 257.047 542.224 256.959 542.099C256.871 541.974 256.752 541.874 256.613 541.808C255.648 541.649 254.656 541.831 253.811 542.324C254.407 541.7 254.763 540.885 254.815 540.024C254.774 539.821 254.668 539.636 254.513 539.498C254.358 539.36 254.163 539.275 253.956 539.257C253.761 539.223 253.56 539.229 253.367 539.274C253.174 539.32 252.992 539.404 252.832 539.521C251.775 540.434 251.603 543.289 251.603 543.487L251.629 543.593ZM252.714 543.012L252.515 543.13C252.458 542.039 252.755 540.959 253.361 540.05C253.43 539.986 253.511 539.936 253.6 539.904C253.689 539.872 253.783 539.859 253.877 539.865H253.996C254.326 539.865 254.406 540.09 254.419 540.235C254.191 541.331 253.587 542.313 252.714 543.012ZM252.859 543.514C254.075 542.84 255.807 542.113 256.455 542.403C256.52 542.436 256.576 542.485 256.618 542.545C256.659 542.605 256.685 542.674 256.693 542.747C256.731 542.892 256.732 543.045 256.695 543.191C256.658 543.337 256.584 543.47 256.481 543.58C255.966 544.003 254.644 543.977 252.859 543.514Z" fill="#424974"/>
<path d="M251.392 542.364L240.088 541.663C239.995 541.652 239.899 541.66 239.809 541.686C239.718 541.712 239.633 541.756 239.559 541.815C239.485 541.874 239.424 541.947 239.379 542.03C239.333 542.113 239.305 542.204 239.295 542.298L238.185 551.221C238.159 551.69 238.318 552.149 238.626 552.503C238.935 552.856 239.37 553.074 239.837 553.112C243.803 553.284 245.68 553.178 250.651 553.442C255.064 553.898 259.504 554.044 263.937 553.878C268.154 553.469 267.639 549.304 265.828 549.106C261.505 548.617 255.794 545.444 253.097 543.038C252.618 542.633 252.018 542.396 251.392 542.364Z" fill="#263238"/>
<path d="M213.424 486.906C209.582 501.723 204.669 516.241 198.723 530.347L180.294 528.945C180.294 528.945 187.856 499.412 190.593 472.364C192.285 455.667 192.139 441.852 187.248 440.781C184.168 440.094 176.976 440.12 167.749 440.332V405.96C193.633 411.248 219.386 421.295 221.342 429.333C224.079 440.662 219.293 464.617 213.424 486.906Z" fill="#424974"/>
<path opacity="0.4" d="M213.424 486.906C209.582 501.723 204.669 516.241 198.723 530.347L180.294 528.945C180.294 528.945 187.856 499.412 190.593 472.364C192.285 455.667 192.139 441.852 187.248 440.781C184.168 440.094 176.976 440.12 167.749 440.332V405.96C193.633 411.248 219.386 421.295 221.342 429.333C224.079 440.662 219.293 464.617 213.424 486.906Z" fill="white"/>
<path opacity="0.2" d="M213.424 486.906C206.549 482.543 198.498 477.427 190.593 472.364C192.285 455.667 192.139 441.852 187.248 440.781C184.168 440.094 176.976 440.12 167.749 440.332V405.96C193.633 411.248 219.386 421.295 221.342 429.333C224.079 440.662 219.293 464.617 213.424 486.906Z" fill="black"/>
<path d="M203.35 402.589L204.976 389.541L152.228 380.855C152.228 380.855 134.976 415.108 143.424 431.792C151.157 447.153 233.597 438.005 246.289 440.768C258.98 443.531 239.282 528.932 239.282 528.932L257.79 530.347C257.79 530.347 286.266 453.512 280.409 429.346C277.831 418.81 234.364 404.849 203.35 402.589Z" fill="#424974"/>
<path opacity="0.6" d="M203.35 402.589L204.976 389.541L152.228 380.855C152.228 380.855 134.976 415.108 143.424 431.792C151.157 447.153 233.597 438.005 246.289 440.768C258.98 443.531 239.282 528.932 239.282 528.932L257.79 530.347C257.79 530.347 286.266 453.512 280.409 429.346C277.831 418.81 234.364 404.849 203.35 402.589Z" fill="white"/>
<path d="M232.368 296.445C231.918 297.225 231.971 298.111 232.487 298.402C233.002 298.693 233.809 298.296 234.219 297.503C234.629 296.71 234.615 295.85 234.113 295.546C233.611 295.242 232.857 295.692 232.368 296.445Z" fill="#263238"/>
<path d="M231.535 292.228C231.426 292.175 231.335 292.093 231.271 291.99C231.22 291.86 231.221 291.715 231.272 291.586C231.324 291.456 231.422 291.35 231.548 291.289C232.317 290.939 233.159 290.777 234.003 290.818C234.847 290.86 235.669 291.103 236.4 291.527C236.516 291.601 236.598 291.717 236.63 291.85C236.662 291.983 236.641 292.123 236.572 292.241C236.492 292.357 236.369 292.437 236.231 292.464C236.093 292.491 235.95 292.463 235.832 292.387C235.252 292.061 234.603 291.878 233.939 291.853C233.274 291.828 232.614 291.961 232.011 292.241C231.936 292.276 231.854 292.294 231.771 292.291C231.689 292.289 231.608 292.267 231.535 292.228Z" fill="#263238"/>
<path d="M233.108 295.441C232.674 298.379 232.643 301.364 233.016 304.311C232.258 304.383 231.493 304.29 230.775 304.039C230.056 303.788 229.4 303.385 228.851 302.857L233.108 295.441Z" fill="#DE5753"/>
<path d="M228.376 306.492C228.058 306.876 227.741 307.246 227.397 307.59C225.47 309.612 222.969 310.996 220.232 311.556C219.539 311.7 218.837 311.793 218.13 311.833C216.274 311.957 214.414 311.665 212.685 310.979C210.956 310.293 209.402 309.23 208.136 307.867C207 306.625 206.123 305.169 205.558 303.584C203.099 296.974 205.558 291.686 209.14 282.551C209.931 280.392 211.261 278.471 213.003 276.971C214.746 275.471 216.844 274.442 219.097 273.983C221.349 273.523 223.682 273.647 225.874 274.344C228.065 275.041 230.041 276.287 231.614 277.964C238.78 285.446 233.994 299.314 228.376 306.492Z" fill="#E4897B"/>
<path opacity="0.2" d="M220.232 311.529C219.539 311.674 218.836 311.766 218.13 311.807C216.274 311.931 214.414 311.639 212.685 310.953C210.956 310.267 209.402 309.204 208.136 307.841C209.025 306.947 210.025 306.169 211.11 305.527C214.661 306.617 217.826 308.7 220.232 311.529Z" fill="black"/>
<path d="M190.447 311.873C191.346 318.351 205.492 320.77 205.492 320.77C205.492 320.77 212.472 323.943 212.763 321.18C209.867 317.835 209.55 314.914 210.555 312.362C211.218 310.815 212.184 309.417 213.397 308.251C214.05 307.579 214.738 306.944 215.459 306.347L211.137 288.632C208.03 295.361 197.401 310.921 190.447 311.873Z" fill="#E4897B"/>
<path d="M230.808 272.887C230.808 272.887 233.835 272.504 236.096 278.175C238.053 282.921 233.452 283.952 233.65 289.002C233.849 294.052 229.248 296.842 229.248 296.842C229.248 296.842 225.361 300.187 222.07 298.375C222.07 298.375 217.76 300.491 216.623 304.179C215.486 307.867 208.81 301.205 202.795 302.222C202.795 302.222 198.736 298.415 199.027 289.188C199.259 285.18 200.241 281.252 201.922 277.607C202.721 275.677 203.895 273.926 205.377 272.456C206.859 270.985 208.62 269.824 210.555 269.04C217.482 265.947 229.526 268.273 230.808 272.887Z" fill="#263238"/>
<path d="M221.29 295.626C221.085 296.54 221.086 297.489 221.291 298.403C221.497 299.317 221.903 300.175 222.479 300.914C223.947 302.513 226.3 300.477 227.265 297.675C228.085 295.176 228.375 291.263 226.221 290.827C224.066 290.391 221.752 292.929 221.29 295.626Z" fill="#E4897B"/>
<path d="M211.137 314.239C207.242 310.798 202.435 308.557 197.295 307.788C195.049 307.511 192.776 307.997 190.839 309.167C188.902 310.337 187.414 312.123 186.613 314.239L210.33 319.038L211.137 314.239Z" fill="#424974"/>
<path d="M207.104 364.29L216.768 365.731C218.967 365.046 221.224 364.563 223.511 364.29C225.996 364.08 228.495 364.08 230.98 364.29C230.98 364.29 235.316 365.93 235.316 370.16C235.316 370.16 225.11 372.897 221.197 371.257L207.104 370.16V364.29Z" fill="#E4897B"/>
<path opacity="0.2" d="M207.104 364.29L216.768 365.731C218.967 365.046 221.224 364.563 223.511 364.29C225.996 364.08 228.495 364.08 230.98 364.29C230.98 364.29 235.316 365.93 235.316 370.16C235.316 370.16 225.11 372.897 221.197 371.257L207.104 370.16V364.29Z" fill="black"/>
<path d="M222.81 317.28C220.844 322.78 219.082 328.068 217.522 333.144C216.517 336.29 215.605 339.371 214.772 342.398C214.058 344.897 213.45 347.316 212.802 349.669C212.511 350.793 212.221 351.916 211.943 353.027C210.423 359.108 209.193 364.674 208.228 369.565C206.621 377.264 205.429 385.045 204.659 392.872L150.457 386.09C152.334 376.77 153.801 368.64 155.851 359.862C156.974 355.05 158.27 350.052 159.922 344.566C161.086 340.6 162.434 336.436 164.047 331.888C169.48 316.275 174.504 311.952 174.504 311.952C195.312 308.528 222.81 317.28 222.81 317.28Z" fill="#424974"/>
<path d="M240.842 365.295L250.506 366.749C252.703 366.056 254.96 365.569 257.248 365.295C259.734 365.092 262.232 365.092 264.717 365.295C264.717 365.295 269.093 366.934 269.093 371.125C269.093 371.125 258.887 373.862 254.961 372.222L240.842 371.125V365.295Z" fill="#E4897B"/>
<path d="M178.338 529.805L200.283 531.259L203.509 521.78L179.329 520.643L178.338 529.805Z" fill="#424974"/>
<path opacity="0.2" d="M178.338 529.805L200.283 531.259L203.509 521.78L179.329 520.643L178.338 529.805Z" fill="white"/>
<path d="M237.378 529.805L259.324 531.259L262.549 521.78L238.37 520.643L237.378 529.805Z" fill="#424974"/>
<path opacity="0.2" d="M237.378 529.805L259.324 531.259L262.549 521.78L238.37 520.643L237.378 529.805Z" fill="white"/>
<path d="M150.285 386.791L174.729 390.003L175.522 386.394L151.038 382.838L150.285 386.791Z" fill="black"/>
<path d="M177.558 386.421L177.254 390.003L199.847 393.11V389.567L177.558 386.421Z" fill="black"/>
<path d="M201.248 389.765V393.11L204.527 393.546V390.307L201.248 389.765Z" fill="black"/>
<path opacity="0.2" d="M217.509 333.144C216.504 336.29 215.592 339.371 214.759 342.398C214.045 344.897 213.437 347.316 212.789 349.669C211.097 340.415 214.111 329.35 214.111 329.35L217.509 333.144Z" fill="black"/>
<path d="M221.171 320.4C225.586 321.286 227.873 351.956 228.851 356.015C229.711 359.558 250.506 366.749 250.506 366.749V371.733C250.506 371.733 227.503 370.16 222.096 367.939C216.689 365.718 213.424 335.431 213.424 335.431L221.171 320.4Z" fill="#E4897B"/>
<g opacity="0.2">
<path opacity="0.2" d="M222.81 317.28C220.844 322.78 219.082 328.068 217.522 333.144C216.517 336.29 215.605 339.371 214.772 342.398C214.058 344.897 213.45 347.316 212.802 349.669C212.511 350.793 212.221 351.916 211.943 353.027C210.423 359.108 209.193 364.674 208.228 369.565C206.621 377.264 205.429 385.045 204.659 392.872L150.457 386.09C152.334 376.77 153.801 368.64 155.851 359.862C156.974 355.05 158.27 350.052 159.922 344.566C161.086 340.6 162.434 336.436 164.047 331.888C169.48 316.275 174.504 311.952 174.504 311.952C195.312 308.528 222.81 317.28 222.81 317.28Z" fill="white"/>
</g>
<path d="M222.81 317.28C226.855 318.602 228.851 345.042 228.851 345.042L214.164 346.985L211.123 336.119C211.123 336.119 212.34 330.989 214.085 325.609C216.623 317.809 222.81 317.28 222.81 317.28Z" fill="#424974"/>
<path d="M128.062 549.37C128.062 548.449 127.789 547.549 127.277 546.784C126.765 546.018 126.037 545.422 125.186 545.07C124.335 544.718 123.399 544.627 122.496 544.807C121.593 544.988 120.764 545.433 120.114 546.085C119.463 546.737 119.021 547.567 118.843 548.471C118.665 549.374 118.759 550.31 119.113 551.16C119.468 552.01 120.066 552.736 120.833 553.246C121.6 553.756 122.501 554.026 123.422 554.024C124.032 554.024 124.637 553.903 125.201 553.669C125.765 553.435 126.277 553.092 126.708 552.66C127.139 552.228 127.48 551.715 127.713 551.15C127.945 550.586 128.064 549.981 128.062 549.37Z" fill="#263238"/>
<path opacity="0.2" d="M128.062 549.37C128.062 548.449 127.789 547.549 127.277 546.784C126.765 546.018 126.037 545.422 125.186 545.07C124.335 544.718 123.399 544.627 122.496 544.807C121.593 544.988 120.764 545.433 120.114 546.085C119.463 546.737 119.021 547.567 118.843 548.471C118.665 549.374 118.759 550.31 119.113 551.16C119.468 552.01 120.066 552.736 120.833 553.246C121.6 553.756 122.501 554.026 123.422 554.024C124.032 554.024 124.637 553.903 125.201 553.669C125.765 553.435 126.277 553.092 126.708 552.66C127.139 552.228 127.48 551.715 127.713 551.15C127.945 550.586 128.064 549.981 128.062 549.37Z" fill="white"/>
<path d="M239.917 549.37C239.917 548.45 239.644 547.55 239.132 546.785C238.621 546.02 237.894 545.423 237.044 545.071C236.194 544.719 235.258 544.627 234.355 544.806C233.453 544.986 232.623 545.429 231.973 546.08C231.322 546.731 230.879 547.56 230.699 548.462C230.519 549.365 230.612 550.301 230.964 551.151C231.316 552.001 231.913 552.728 232.678 553.24C233.443 553.751 234.343 554.024 235.263 554.024C235.875 554.026 236.481 553.906 237.046 553.673C237.611 553.44 238.125 553.097 238.557 552.665C238.99 552.232 239.333 551.719 239.566 551.153C239.799 550.588 239.918 549.982 239.917 549.37Z" fill="#263238"/>
<path opacity="0.2" d="M239.917 549.37C239.917 548.45 239.644 547.55 239.132 546.785C238.621 546.02 237.894 545.423 237.044 545.071C236.194 544.719 235.258 544.627 234.355 544.806C233.453 544.986 232.623 545.429 231.973 546.08C231.322 546.731 230.879 547.56 230.699 548.462C230.519 549.365 230.612 550.301 230.964 551.151C231.316 552.001 231.913 552.728 232.678 553.24C233.443 553.751 234.343 554.024 235.263 554.024C235.875 554.026 236.481 553.906 237.046 553.673C237.611 553.44 238.125 553.097 238.557 552.665C238.99 552.232 239.333 551.719 239.566 551.153C239.799 550.588 239.918 549.982 239.917 549.37Z" fill="white"/>
<path opacity="0.2" d="M125.735 549.37C125.735 548.91 125.599 548.459 125.342 548.076C125.086 547.693 124.722 547.395 124.296 547.22C123.87 547.044 123.402 546.999 122.95 547.089C122.498 547.18 122.084 547.403 121.759 547.73C121.434 548.057 121.213 548.472 121.125 548.925C121.037 549.377 121.085 549.845 121.263 550.27C121.441 550.695 121.741 551.057 122.126 551.311C122.51 551.565 122.961 551.7 123.422 551.697C123.727 551.697 124.029 551.637 124.31 551.52C124.592 551.403 124.847 551.231 125.062 551.015C125.277 550.798 125.448 550.542 125.563 550.26C125.679 549.977 125.737 549.675 125.735 549.37Z" fill="white"/>
<path opacity="0.2" d="M235.263 551.697C236.548 551.697 237.59 550.655 237.59 549.37C237.59 548.085 236.548 547.044 235.263 547.044C233.978 547.044 232.936 548.085 232.936 549.37C232.936 550.655 233.978 551.697 235.263 551.697Z" fill="white"/>
<path d="M183.19 528.985V479H175.496V528.985C145.565 529.752 127.375 540.222 123.726 542.509C123.518 542.643 123.347 542.827 123.229 543.044C123.111 543.261 123.05 543.505 123.052 543.752V547.903C123.052 548.292 123.206 548.665 123.482 548.941C123.757 549.216 124.13 549.37 124.519 549.37C124.786 549.379 125.05 549.314 125.283 549.184C125.516 549.054 125.709 548.862 125.841 548.63L127.613 545.51C143.12 540.566 159.262 537.895 175.535 537.578V545.801C175.539 546.304 175.741 546.784 176.097 547.139C176.454 547.493 176.936 547.691 177.439 547.691H181.326C181.828 547.691 182.31 547.493 182.667 547.139C183.024 546.784 183.226 546.304 183.229 545.801V537.578C199.503 537.895 215.644 540.566 231.152 545.51L232.923 548.63C233.055 548.862 233.248 549.054 233.481 549.184C233.714 549.314 233.978 549.379 234.245 549.37C234.634 549.37 235.008 549.216 235.283 548.941C235.558 548.665 235.713 548.292 235.713 547.903V543.752C235.714 543.505 235.653 543.261 235.535 543.044C235.417 542.827 235.246 542.643 235.038 542.509C231.35 540.222 213.12 529.752 183.19 528.985Z" fill="#263238"/>
<path opacity="0.2" d="M183.19 528.985V479H175.496V528.985C145.565 529.752 127.375 540.222 123.726 542.509C123.518 542.643 123.347 542.827 123.229 543.044C123.111 543.261 123.05 543.505 123.052 543.752V547.903C123.052 548.292 123.206 548.665 123.482 548.941C123.757 549.216 124.13 549.37 124.519 549.37C124.786 549.379 125.05 549.314 125.283 549.184C125.516 549.054 125.709 548.862 125.841 548.63L127.613 545.51C143.12 540.566 159.262 537.895 175.535 537.578V545.801C175.539 546.304 175.741 546.784 176.097 547.139C176.454 547.493 176.936 547.691 177.439 547.691H181.326C181.828 547.691 182.31 547.493 182.667 547.139C183.024 546.784 183.226 546.304 183.229 545.801V537.578C199.503 537.895 215.644 540.566 231.152 545.51L232.923 548.63C233.055 548.862 233.248 549.054 233.481 549.184C233.714 549.314 233.978 549.379 234.245 549.37C234.634 549.37 235.008 549.216 235.283 548.941C235.558 548.665 235.713 548.292 235.713 547.903V543.752C235.714 543.505 235.653 543.261 235.535 543.044C235.417 542.827 235.246 542.643 235.038 542.509C231.35 540.222 213.12 529.752 183.19 528.985Z" fill="black"/>
<path d="M180.85 544.73H177.835C177.273 544.73 176.818 545.186 176.818 545.748V553.006C176.818 553.568 177.273 554.024 177.835 554.024H180.85C181.412 554.024 181.868 553.568 181.868 553.006V545.748C181.868 545.186 181.412 544.73 180.85 544.73Z" fill="#263238"/>
<path opacity="0.2" d="M180.85 544.73H177.835C177.273 544.73 176.818 545.186 176.818 545.748V553.006C176.818 553.568 177.273 554.024 177.835 554.024H180.85C181.412 554.024 181.868 553.568 181.868 553.006V545.748C181.868 545.186 181.412 544.73 180.85 544.73Z" fill="white"/>
<path d="M128.961 429.795H229.737C232.511 429.795 235.17 430.897 237.131 432.858C239.092 434.819 240.194 437.479 240.194 440.252V446.572H118.491V440.226C118.498 437.455 119.604 434.8 121.568 432.844C123.531 430.888 126.19 429.792 128.961 429.795Z" fill="#424974"/>
<path d="M161.892 388.258H228.891C229.712 388.232 230.528 388.397 231.274 388.741C232.02 389.085 232.676 389.599 233.189 390.24C233.702 390.882 234.059 391.634 234.231 392.437C234.403 393.241 234.385 394.073 234.179 394.868L222.096 446.585H219.333L229.539 401.214C229.717 400.425 229.713 399.606 229.529 398.819C229.346 398.031 228.986 397.296 228.477 396.668C227.968 396.039 227.323 395.534 226.592 395.19C225.86 394.847 225.059 394.673 224.251 394.683H163.267L161.892 388.258Z" fill="#263238"/>
<path d="M187.248 448.396V492.128C187.245 492.8 186.976 493.443 186.501 493.919C186.026 494.394 185.382 494.663 184.71 494.666H173.988C173.655 494.668 173.324 494.603 173.015 494.476C172.706 494.349 172.426 494.163 172.19 493.926C171.954 493.69 171.767 493.41 171.64 493.101C171.513 492.792 171.448 492.462 171.45 492.128V448.396H187.248Z" fill="#263238"/>
<path opacity="0.2" d="M187.261 448.396H171.45V466.56H187.261V448.396Z" fill="black"/>
<path d="M243.512 443.888V449.176C243.512 449.877 243.234 450.55 242.738 451.046C242.242 451.541 241.57 451.82 240.868 451.82H117.922C117.221 451.82 116.549 451.541 116.053 451.046C115.557 450.55 115.278 449.877 115.278 449.176V443.888C115.278 443.187 115.557 442.514 116.053 442.018C116.549 441.522 117.221 441.244 117.922 441.244H240.868C241.57 441.244 242.242 441.522 242.738 442.018C243.234 442.514 243.512 443.187 243.512 443.888Z" fill="#263238"/>
<path d="M186.931 446.585H115.173C115.173 446.585 92.3813 408.67 92.3813 346.02V323.004C92.3813 318.446 94.192 314.075 97.415 310.852C100.638 307.629 105.009 305.818 109.567 305.818H139.973C144.445 305.796 148.748 307.525 151.96 310.636C155.172 313.747 157.038 317.992 157.159 322.462C157.939 354.798 162.699 424.706 186.931 446.585Z" fill="#263238"/>
<path opacity="0.2" d="M171.146 446.585H118.425C117.425 446.587 116.444 446.314 115.588 445.797C114.732 445.279 114.035 444.537 113.573 443.65C108.391 433.642 92.421 398.504 92.421 346.02V323.004C92.421 318.446 94.2317 314.075 97.4547 310.852C100.678 307.629 105.049 305.818 109.607 305.818H135.902C140.367 305.816 144.658 307.552 147.866 310.659C151.074 313.766 152.947 317.999 153.088 322.462C153.881 351.295 157.754 410.164 175.852 437.992C176.433 438.827 176.77 439.808 176.824 440.825C176.878 441.841 176.648 442.852 176.159 443.745C175.67 444.638 174.942 445.376 174.056 445.878C173.171 446.379 172.163 446.624 171.146 446.585Z" fill="white"/>
<path opacity="0.2" d="M243.512 443.888V449.176C243.512 449.877 243.234 450.55 242.738 451.046C242.242 451.541 241.57 451.82 240.868 451.82H185.741C184.785 451.816 183.869 451.435 183.193 450.759C182.517 450.083 182.135 449.167 182.132 448.211V444.866C182.132 443.909 182.512 442.991 183.189 442.314C183.866 441.637 184.784 441.257 185.741 441.257H240.855C241.202 441.255 241.547 441.322 241.868 441.453C242.189 441.585 242.482 441.778 242.729 442.022C242.975 442.266 243.172 442.557 243.306 442.877C243.441 443.197 243.511 443.541 243.512 443.888Z" fill="black"/>
</svg>
